<?xml version="1.0" standalone="no"?>
<!DOCTYPE svg PUBLIC "-//W3C//DTD SVG 1.1//EN" "http://www.w3.org/Graphics/SVG/1.1/DTD/svg11.dtd" >
<svg>
<metadata>
Created by FontForge 20110222 at Mon Mar  7 04:04:50 2011
 By www-data
 
</metadata>
<defs>
<font id="BalloonExtra-Bold" horiz-adv-x="500" >
  <font-face 
    font-family="Balloon Extra"
    font-weight="400"
    font-stretch="normal"
    units-per-em="1000"
    panose-1="0 0 0 0 0 0 0 0 0 0"
    ascent="800"
    descent="-200"
    x-height="780"
    cap-height="786"
    bbox="-16 -237 1102 1071"
    underline-thickness="50"
    underline-position="-55"
    unicode-range="U+0020-25D9"
  />
    <missing-glyph />
    <glyph glyph-name="space" unicode=" " horiz-adv-x="251" 
 />
    <glyph glyph-name="space" unicode="&#xa0;" horiz-adv-x="251" 
 />
    <glyph glyph-name="exclam" unicode="!" horiz-adv-x="376" 
d="M231 184q52 -1 68 -30t16 -66v-2v-3q-1 -37 -27 -66t-62 -29h-2.5h-3.5q-36 3 -56 31t-20 68q0 30 20.5 56.5t44.5 36.5q6 2 11.5 3t10.5 1v0zM214 377l30 157q1 6 7.5 37.5t14.5 68.5q1 1 1 2.5t1 2.5q6 32 12 60.5t8 42.5q5 32 34.5 41.5t64.5 10.5h4.5h4.5h10.5h10.5
h2h2q8 0 16.5 -0.5t18.5 -0.5q25 -2 46 -8.5t22 -24.5v-3.5t-1 -4.5t-2 -4.5t-3 -5.5q-2 -2 -3.5 -5t-1.5 -6l-88 -234l-59 -145q-3 -9 -6 -16t-5 -13q-1 -3 -2 -5t-2 -5q-2 -3 -3.5 -6.5t-3.5 -7.5q-9 -19 -20.5 -22.5t-25.5 -3.5h-3h-3h-3.5h-3.5h-7.5h-7.5h-6.5h-7.5
q-20 1 -37 6.5t-18 22.5v1.5t1 1.5v1.5v1.5q4 24 6 32.5t3 14.5v0v0q1 3 1.5 6.5t1.5 9.5v0z" />
    <glyph glyph-name="quotedbl" unicode="&#x22;" horiz-adv-x="423" 
d="M365 682l-91 -157l-2 -4l-2 -4q-1 -1 -2 -3t-1 -3q-5 -10 -11 -19.5t-15 -16.5q-3 -2 -5.5 -3.5t-5.5 -2.5t-5.5 -2t-5.5 -1q-10 0 -17.5 6t-8.5 16q-1 7 -1 13v12v9.5t1 9.5l49 202q0 1 0.5 1.5t0.5 1.5q2 4 5 8t6 7q5 4 8.5 7t4.5 4q12 12 28 17.5t34 5.5h2.5h2.5h4.5
h4.5h8h8q16 -1 29.5 -5t13.5 -18q0 -3 -1 -7t-3 -9q-4 -11 -8.5 -20t-9.5 -18q-3 -6 -7 -13l-8 -14v0zM571 683l-92 -157l-2 -4l-2 -4q-1 -1 -2 -3t-1 -3q-5 -10 -11 -19.5t-15 -16.5q-3 -2 -5.5 -3.5t-5.5 -2.5t-5.5 -2t-5.5 -1q-10 0 -17.5 6t-8.5 16q-1 7 -1 13v12v9.5
t1 9.5l49 202q0 1 0.5 1.5t0.5 1.5q2 4 5 8t6 7q5 4 8.5 7t4.5 4q12 12 28.5 17.5t34.5 5.5h2.5h2.5h4.5h4.5h8h8q16 -1 29.5 -5t13.5 -18q0 -3 -1 -7t-3 -9q-4 -11 -8.5 -20t-9.5 -18q-3 -6 -7 -13l-8 -14v0z" />
    <glyph glyph-name="numbersign" unicode="#" horiz-adv-x="716" 
d="M311 501l4 7q-7 -1 -14 -1h-13q-10 0 -18 0.5t-16 1.5h-1.5h-1.5q-9 1 -18.5 1.5t-20.5 0.5h-11.5t-13.5 -1v0h-1q-4 0 -6.5 2.5t-2.5 6.5q0 5 2 11.5t5 13.5l2 4l2 4q3 6 5.5 11.5t4.5 8.5q1 3 3.5 8t6.5 11q5 8 11.5 14.5t13.5 6.5h37t28 -1h6h6q6 -1 13 -1h14h11h13h8
t8 1q12 0 23 0.5t19 2.5q2 3 3 6l2 6v0.5v0.5q4 10 11.5 30t35.5 83q2 4 3 7t1 6q1 4 3 7.5t5 7.5q6 4 17.5 9t34.5 12q5 2 9 2.5t8 0.5q12 0 17 -5t6 -12q0 -2 -0.5 -4.5t-1.5 -4.5q-2 -5 -3.5 -10.5t-3.5 -10.5q-14 -41 -27.5 -75t-22.5 -55q8 0 11.5 -0.5t5.5 -0.5
q0 -1 0.5 -1h0.5q2 0 4 -0.5t7 -0.5h3.5h3.5q11 0 16.5 0.5t10.5 1.5q4 1 10 1.5t16 1.5q4 9 7 17.5t6 17.5q9 24 18 51t23 59q5 11 12 17.5t22 11.5q8 4 19 7t25 7q5 2 9 2.5t6 0.5q8 0 10.5 -2.5t2.5 -7.5q0 -2 -0.5 -4t-0.5 -4q-1 -2 -1.5 -4t-1.5 -4q-6 -18 -11.5 -33
t-9.5 -28q-2 -4 -3 -7.5t-3 -7.5q-7 -18 -14.5 -37t-19.5 -44q11 1 18 2.5t14 2.5h1.5h1.5q13 2 35 4.5t77 7.5q3 0 5.5 0.5t5.5 1.5t6 1.5t6 0.5q4 0 6 -2.5t2 -10.5q0 -4 -0.5 -11t-2.5 -17q-2 -14 -12 -25.5t-21 -19.5q-6 -5 -12.5 -7.5t-11.5 -3.5q-29 -5 -49.5 -9
t-39.5 -6q-16 -3 -33.5 -4.5t-40.5 -3.5q-6 -13 -8.5 -19t-4.5 -11l-0.5 -0.5l-0.5 -0.5q-1 -3 -2.5 -6l-3.5 -7q-2 -3 -3 -5l-2 -4q-1 0 -1 -0.5v-0.5q-2 -3 -4.5 -7t-6.5 -14q16 2 33 4t35 5t37 5.5t40 3.5h3.5h2.5q9 0 13 -3t4 -14q0 -7 -1.5 -17.5t-4.5 -25.5
q-3 -16 -11.5 -21t-18.5 -6q-1 0 -2.5 -0.5t-3.5 -0.5t-3.5 -0.5t-3.5 -0.5q-53 -10 -98.5 -16t-71.5 -7q-2 -6 -4 -9.5t-4 -6.5v-1v0l-6.5 -13t-10.5 -24q-8 -17 -13.5 -30.5t-10.5 -26.5q0 -1 -0.5 -2t-1.5 -2q-6 -15 -13 -31t-18 -38q-5 -10 -15 -16t-21 -9
q-9 -3 -17.5 -4t-14.5 -1q-2 0 -5 -0.5t-7 -1.5q-3 0 -6 -0.5t-6 -0.5q-4 -1 -7.5 -1h-6.5q-8 0 -13 2t-2 7q13 25 22.5 43.5t18.5 35.5q0 1 0.5 1.5t0.5 1.5q8 14 16 29.5t18 34.5q4 8 7.5 14.5t6.5 13.5q1 0 1.5 1t0.5 2q3 6 6 11.5t6 12.5q-6 -1 -11.5 -1.5t-10.5 -0.5
q-6 -1 -11.5 -1.5t-11.5 -0.5h-6h-5q-3 -1 -5.5 -1h-5.5h-10.5t-12.5 1q-3 -6 -4.5 -11t-3.5 -9v-0.5v-0.5q-3 -7 -7 -15.5t-15 -26.5q-10 -17 -17.5 -30.5t-14.5 -26.5q-1 -3 -2.5 -6t-3.5 -6q-6 -14 -13.5 -29.5t-16.5 -34.5q-5 -10 -15.5 -15t-21.5 -7q-8 -2 -15 -2.5
t-13 -0.5q-2 -1 -3.5 -1h-2.5h-2.5h-3.5q-2 -1 -4.5 -1h-4.5q-9 0 -15.5 2.5t-2.5 10.5q14 27 23.5 45t18.5 35q6 12 13 25t16 30q5 10 9.5 18.5t9.5 16.5q4 8 8.5 16.5t9.5 18.5q-22 -1 -47.5 -2.5t-54.5 -1.5q-19 0 -39 0.5t-41 1.5q-15 1 -13 9t7 17q0 1 0.5 1t0.5 1
q1 2 2 3.5t2 3.5q1 3 6 12t11 18q3 5 6 9.5t7 8.5q5 6 10 10t9 4q28 -1 48.5 -1h36.5h24t22 1q12 0 25.5 0.5t30.5 0.5q7 12 10 17l6 10v0.5t1 0.5q1 2 2 4.5t3 6.5t3 7t3 6q0 2 1 3.5t1 2.5q1 3 2 5.5t2 5.5q-7 -1 -11.5 -1h-8.5h-1h-1q-6 -1 -14.5 -1.5t-23.5 -1.5v0z
M469 516v1q-2 -4 -4 -8.5t-4 -8.5l-4 -8t-4 -9q-2 -4 -4 -7t-3 -6h-0.5h-0.5q-2 -5 -5 -10.5t-8 -16.5q10 0 15 0.5t9 1.5q4 0 8.5 0.5l13.5 1.5t14 1h9h2h2h8.5t12.5 1q8 14 11 19t4 9v0v0q1 2 2 4.5t3 6.5t3 6.5t2 5.5q2 3 4 7.5l6 13.5q-11 -1 -18 -2t-13 -2
q-3 0 -7 -0.5t-9 -0.5h-6h-6q-3 -1 -5.5 -1h-4.5h-10.5t-12.5 1v0z" />
    <glyph glyph-name="dollar" unicode="$" horiz-adv-x="528" 
d="M389 118v1l-10 -48q-2 -11 -5 -19.5t-7 -16.5q-1 -3 -2 -5.5t-3 -5.5q-12 -23 -28 -27.5t-35 -4.5q-3 -1 -6 -1h-6h-5.5t-5.5 -1h-5h-6h-7h-7q-26 1 -47 8t-22 27v2v2t0.5 2t0.5 2q1 6 2.5 13.5t4.5 15.5q1 4 2.5 8t2.5 8l19 52l-6 7q-3 3 -9 5t-15 3q-22 5 -32 14.5
t-11 21.5v2t1 2v1v2q2 9 4.5 19.5t6.5 21.5q2 7 4.5 13.5t5.5 13.5q5 12 9.5 22.5t7.5 16.5t9.5 8t13.5 2h2h1q6 0 12 -1t10 -2t7.5 -2t4.5 -1q10 -3 20.5 -5.5t20.5 -4.5q11 -2 21 -3.5t20 -1.5q26 0 44.5 9.5t19.5 34.5v0v1q0 7 -4.5 13.5t-12.5 12.5q-15 10 -38.5 22
t-49.5 30q-5 4 -10.5 8.5t-11.5 9.5q-28 23 -42 49.5t-14 62.5v0.5v1.5v1.5v0.5q0 12 2.5 27t7.5 30q6 21 18.5 40.5t31.5 31.5q5 3 10.5 5.5t9.5 4.5q8 4 16.5 6.5t18.5 2.5l26 2l10 14q8 11 9.5 19t1.5 15v5t1 5q0 3 1.5 6t3.5 6q10 14 25 22t33 8h2.5h1.5h3.5h3.5h2.5
h2.5q10 0 23.5 -0.5t27.5 -2.5q25 -2 45.5 -9t20.5 -23q-1 -15 -2 -22t-4 -12q-1 -3 -2 -5t-3 -5l15 -9q4 -3 9.5 -4.5t11.5 -3.5v0v0q12 -3 21.5 -8t9.5 -20v-4.5t-1 -5.5q-4 -28 -11 -51t-15 -42q-5 -12 -12.5 -13.5t-15.5 -1.5h-1h-2h-2.5h-3.5h-1.5h-1.5q-8 0 -16.5 2
t-17.5 5q-9 2 -18.5 4t-19.5 2q-46 0 -60 -9t-16 -20q0 -2 -0.5 -4.5t-0.5 -4.5v-1.5v-0.5v0v0v-1v0q0 -10 8 -20t21 -20l18 -12t19 -12q16 -11 31 -21.5t24 -21.5q7 -8 12.5 -15.5t10.5 -15.5q10 -16 14.5 -33.5t4.5 -38.5v-4.5v-4.5q-1 -46 -24 -85.5t-67 -66.5
q-7 -5 -15.5 -9t-16.5 -8q-16 -7 -31 -11t-22 -4v0z" />
    <glyph glyph-name="percent" unicode="%" horiz-adv-x="705" 
d="M659 729l-112 -253l-228 -511q-1 -1 -1.5 -3t-1.5 -4q-3 -6 -6 -11.5t-8 -8.5q-7 -5 -14.5 -9.5t-16.5 -4.5h-3t-4 1q-7 1 -13 4.5t-10 9.5q-2 3 -3 6t-1 7q0 5 2 10.5t4 11.5q0 1 0.5 1.5t0.5 1.5q1 3 2.5 6t2.5 6l115 257l227 512q3 9 7.5 17.5t8.5 15.5q4 8 13.5 10.5
t19.5 2.5h6h6q17 -2 23 -7t7 -11q0 -3 -1 -6.5t-3 -6.5q0 -2 -0.5 -3.5t-1.5 -3.5q-2 -6 -4 -10.5t-4 -8.5q-1 -1 -1.5 -2t-0.5 -2q-2 -3 -3.5 -6.5t-3.5 -7.5v0zM646 401v-1q38 0 64 -36t31 -80q0 -4 0.5 -8.5t0.5 -8.5v-2.5v-2.5v-3v-3q-1 -18 -4 -36.5t-7 -37.5
q-15 -68 -52.5 -125t-107.5 -62h-2.5h-2.5q-9 0 -19.5 1.5t-22.5 4.5q-24 9 -44 34.5t-20 78.5v3.5v3.5v3v3q1 12 2 24.5t3 24.5q14 85 59 155.5t122 69.5v0zM547 105l1 1v-2.5v-2.5q0 -13 5.5 -16.5t13.5 -4.5h3.5h3.5q16 5 32 36t28 68q8 25 13.5 48.5t8.5 38.5v0.5v0.5
v0.5v0.5q0 3 -0.5 5.5t-0.5 5.5q-3 9 -8.5 16.5t-14.5 7.5q-2 0 -3.5 -0.5t-2.5 -0.5q-21 -8 -40.5 -50.5t-30.5 -92.5q-3 -15 -5 -30t-3 -29v0zM388 806h-1q38 0 64 -36t31 -80q0 -4 0.5 -8.5t0.5 -8.5v-2.5v-2.5v-3v-3q-2 -18 -4.5 -37t-7.5 -38q-15 -68 -52.5 -125
t-106.5 -63h-3.5h-4.5q-8 0 -18 1.5t-20 5.5q-23 8 -43 33.5t-20 77.5v7.5v7.5q1 12 2 24.5t3 24.5q13 85 58 155.5t122 69.5v0zM287 511v1v-1.5v-1.5q0 -14 6 -18.5t14 -5.5q5 -1 10 1.5t10 7.5q13 13 26 39.5t23 56.5q8 25 13.5 48.5t6.5 38.5q0 3 -0.5 6.5t-1.5 6.5
q-2 9 -7 16.5t-14 7.5q-2 0 -3.5 -0.5t-2.5 -0.5q-22 -8 -41 -50.5t-30 -92.5q-3 -15 -5.5 -30t-3.5 -29v0z" />
    <glyph glyph-name="ampersand" unicode="&#x26;" horiz-adv-x="638" 
d="M586 226l29 -18q1 -1 2 -1.5t2 -0.5v-1v0q6 -3 11 -8t5 -15v-0.5v-1.5v-1.5v-0.5q-2 -15 -11.5 -32t-23.5 -35q-38 -44 -106 -80.5t-145 -37.5q-102 0 -165.5 60t-68.5 149v4.5v4.5v5.5v5.5q3 62 34 118.5t68 86.5q8 7 16 12.5t16 8.5l52 23l-12 12q-3 3 -6 7.5t-6 10.5
q-5 10 -9 22t-7 24q-1 7 -2 13t-1 12v4.5v3.5q11 108 79 157t147 55q5 0 9.5 0.5t9.5 0.5h1.5h1.5h0.5h1.5q78 0 136 -41t58 -119q0 -34 -18.5 -52t-80.5 -21h-6h-6q-3 -1 -6.5 -1h-6.5q-14 -1 -25.5 5t-11.5 27v6t1 6v0.5v0.5v0.5v0.5q0 15 -13 26t-28 13h-2.5h-2.5
q-29 -1 -47.5 -19.5t-23.5 -40.5q-1 -4 -1.5 -8t-0.5 -8q0 -13 5.5 -24t16.5 -16q4 -1 8 -3t8 -3q11 -5 20 -11t9 -17v-0.5v-1.5v-1.5v-0.5q-1 -11 -6.5 -25.5t-11.5 -30.5q-1 -2 -1.5 -4t-1.5 -4q-1 -3 -2.5 -6.5t-2.5 -6.5q-9 -24 -22.5 -35.5t-28.5 -17.5q-6 -3 -12 -5
l-12 -4q-3 -1 -7 -2.5t-7 -2.5t-5.5 -2.5t-4.5 -2.5q-31 -17 -56.5 -47.5t-25.5 -76.5q0 -18 15 -34t32 -23q6 -2 11.5 -3.5t10.5 -1.5h0.5h0.5h0.5h0.5q40 1 73 23t40 48q0 2 0.5 3.5t0.5 2.5h-1.5h-2.5q-3 0 -6 0.5t-6 0.5q-4 0 -7.5 0.5t-7.5 0.5q-8 1 -11.5 4.5
t-3.5 10.5q0 10 5.5 24.5t13.5 29.5q1 3 2.5 5.5t2.5 4.5q4 8 8.5 16t7.5 15l2 4l2 4q14 26 37.5 30.5t92.5 5.5h10h10h2h1h17t18 -1q26 -1 47.5 -7.5t21.5 -24.5v-4.5t-1 -4.5q-8 -24 -13.5 -43.5t-10.5 -32.5q-7 -19 -15 -28.5t-22 -9.5h-4.5t-5.5 1q-6 1 -11.5 1.5
t-10.5 0.5h-4.5t-5.5 -1l-33 -8v0z" />
    <glyph glyph-name="quotesingle" unicode="'" horiz-adv-x="238" 
d="M388 704l-57 -130q-1 -3 -2.5 -6.5t-2.5 -6.5q-1 -1 -1 -1.5v-1.5q-3 -8 -6 -14.5t-6 -7.5q-7 -4 -16.5 -6.5t-20.5 -3.5h-4.5h-5.5q-18 0 -33.5 3.5t-17.5 10.5q0 2 -0.5 3t-0.5 3q-1 1 -1 2.5v2.5q0 6 1 12t3 11q1 3 1.5 6t1.5 5l32 116q1 4 2 8.5t2 8.5q0 1 0.5 2.5
t0.5 2.5q5 22 12 41t20 24q6 2 18.5 3t26.5 1h6h5q22 -1 40.5 -4.5t22.5 -11.5l2 -4t1 -4q1 -2 1 -4v-4q0 -6 -1.5 -11.5t-4.5 -10.5q-2 -4 -4.5 -8.5t-4.5 -8.5q-3 -4 -5 -8.5t-4 -8.5v0z" />
    <glyph glyph-name="parenleft" unicode="(" horiz-adv-x="340" 
d="M546 835h-2v0v0v-1v0q0 -25 -12.5 -32.5t-30.5 -10.5q-4 -1 -8.5 -2t-9.5 -3q-7 -2 -14 -5t-14 -8q-67 -53 -98.5 -111.5t-55.5 -128.5q-6 -19 -13 -39.5t-14 -41.5q-3 -8 -5.5 -16.5t-5.5 -16.5q-22 -70 -33.5 -136t-11.5 -111q0 -5 0.5 -10.5t0.5 -11.5q4 -28 15 -56
t24 -51q10 -19 20 -33t15 -22q3 -5 4.5 -10.5t1.5 -11.5q0 -8 -2 -15t-6 -12q-7 -8 -13 -12t-12 -4q-7 0 -13 3.5t-12 9.5q-3 2 -5.5 5t-5.5 5l-7.5 7.5t-7.5 6.5q-23 17 -39 43t-26 53q-14 37 -20.5 69.5t-7.5 45.5q-1 14 -1.5 26.5t-0.5 24.5q0 33 3.5 63t9.5 59
q7 32 17.5 66t23.5 72q39 114 92 213t131 139q5 2 9.5 4.5t10.5 4.5q9 5 19 9t21 7q13 4 26 7t24 3q17 0 28 -7.5t11 -26.5v0z" />
    <glyph glyph-name="parenright" unicode=")" horiz-adv-x="340" 
d="M5 -43h2v1v0v1v0q0 25 12 32.5t29 10.5l10 2t10 3q7 2 13.5 5t12.5 8q66 52 97 109.5t55 126.5q7 20 14 41t15 43q4 11 7.5 22t6.5 22q21 67 32 130t11 106q0 6 -0.5 12.5t-1.5 12.5q-4 27 -15 54t-23 49q-10 19 -20 33.5t-15 22.5q-3 5 -4.5 10.5t-1.5 11.5q0 8 2 15
t6 12q7 8 13 12t12 4q7 0 13 -3.5t12 -9.5q3 -2 5.5 -5t4.5 -5l7.5 -7.5t7.5 -6.5q23 -17 39 -43t27 -54q14 -36 20 -68.5t7 -45.5t1.5 -26t0.5 -25q0 -34 -3.5 -64.5t-10.5 -60.5q-7 -32 -17 -65t-23 -71q-39 -113 -92 -211.5t-130 -138.5l-9 -4.5t-11 -4.5q-9 -5 -19 -9
t-21 -7q-13 -4 -26 -7t-24 -3q-16 0 -27 7.5t-11 26.5v-1z" />
    <glyph glyph-name="asterisk" unicode="*" horiz-adv-x="287" 
d="M358 811v1q3 0 6.5 -0.5t6.5 -1.5q9 -3 16.5 -10t7.5 -18q0 -3 -1 -5.5t-1 -5.5q-1 -3 -2 -6.5t-1 -6.5q0 -2 0.5 -4.5t1.5 -4.5q3 -5 8.5 -7.5t11.5 -3.5q2 -1 4 -1.5t4 -0.5q12 -4 21.5 -10.5t10.5 -18.5v-1.5t1 -1.5v-1.5v-1.5q0 -11 -6.5 -18.5t-13.5 -10.5
q-2 -1 -4 -1.5t-4 -0.5h-4.5t-4.5 1h-4.5h-4.5q-5 0 -9.5 -1t-7.5 -5q-1 -1 -1.5 -2t-0.5 -2v-2v-2q0 -4 1 -8t2 -9l2 -6t1 -6v-1.5t1 -1.5v-1.5v-0.5q0 -7 -3.5 -11.5t-7.5 -7.5q-2 -1 -3.5 -2.5t-3.5 -2.5q-3 -2 -6.5 -3.5t-7.5 -1.5q-7 0 -13.5 3t-10.5 7q-3 3 -5 7l-4 8
t-3.5 7.5t-2.5 6.5q-2 5 -5.5 7t-8.5 2q-4 0 -8.5 -1.5t-7.5 -3.5q-1 -1 -3 -2t-5 -2q-2 -1 -4.5 -1.5t-4.5 -1.5q-2 0 -4 -0.5t-4 -0.5t-7 2t-11 5q-7 5 -13 11.5t-6 14.5q0 7 4 12t9 9q1 0 1 0.5t1 1.5l4 4l4 4l2.5 2.5l3.5 3.5q2 1 4 3.5t2 4.5q0 4 -1 6t-3 4t-5 4t-6 5
q-6 4 -10 11t-4 14q0 11 8 20t19 10h0.5h0.5h0.5h0.5q2 0 4.5 -0.5t4.5 -0.5q4 -1 7 -1.5t7 -1.5q5 -2 10.5 -3.5t9.5 -1.5q7 0 11 3t6 7q1 1 1.5 2t0.5 2t0.5 1.5t0.5 1.5q4 5 8.5 10.5t9.5 8.5q3 1 5.5 2t4.5 1v0z" />
    <glyph glyph-name="plus" unicode="+" horiz-adv-x="681" 
d="M439 431l71 265h71l-71 -266h263l-20 -74h-266l-70 -264h-69l71 264h-262l20 75h262v0z" />
    <glyph glyph-name="comma" unicode="," horiz-adv-x="245" 
d="M209 67l-90 -156q-7 -12 -14.5 -23t-18.5 -20q-5 -4 -10.5 -6t-11.5 -2q-12 0 -21.5 7.5t-10.5 18.5v6v5q0 5 0.5 10t0.5 10q0 3 0.5 5t0.5 5l52 193l2 8l2 8q1 2 1.5 4t1.5 4q2 8 4.5 14.5t3.5 7.5q9 9 20.5 13t24.5 4q8 0 16 -1t16 -3q5 -1 10 -1h11q1 -1 2.5 -1h2.5
q16 0 29.5 -4t13.5 -19v-6.5t-2 -7.5q-4 -13 -9 -23.5t-11 -20.5q-3 -7 -7.5 -14t-8.5 -15v0z" />
    <glyph glyph-name="hyphen" unicode="-" horiz-adv-x="449" 
d="M270 481l2 -1l198 -1h4.5h5.5q17 0 33 -3.5t25 -17.5q2 -2 2.5 -5.5t0.5 -8.5q0 -11 -4 -27t-11 -33q-5 -13 -12 -26t-14 -24t-13.5 -18t-11.5 -10q-7 -4 -14.5 -5.5t-15.5 -1.5q-5 0 -10 0.5t-10 0.5t-10 0.5t-10 0.5l-180 2h-2.5h-2.5h-12h-15q-10 1 -19.5 3.5
t-13.5 7.5q-6 8 -8.5 18.5t-2.5 21.5q0 7 1 13.5t2 13.5q4 16 10 32t13 28q8 13 14.5 21.5t9.5 10.5q6 3 14.5 4.5t17.5 2.5q6 1 12.5 1h11.5h9.5h5.5v0z" />
    <glyph glyph-name="period" unicode="." horiz-adv-x="287" 
d="M173 192l-1 1q53 -1 69 -30.5t16 -66.5v-2v-3q-1 -37 -27.5 -66t-61.5 -29h-2.5h-3.5q-36 3 -56 31t-20 68q0 30 20.5 56.5t44.5 36.5q6 2 11.5 3t10.5 1v0z" />
    <glyph glyph-name="slash" unicode="/" horiz-adv-x="335" 
d="M418 769h-2q7 10 17.5 15t22.5 5q6 0 12 -1.5t11 -3.5q11 -4 15 -10t4 -12q0 -5 -2 -10t-5 -9q-1 -2 -2 -3l-2 -2l-2 -2t-2 -1q-2 -3 -4 -5t-3 -4l-94 -185l-256 -512q-1 -4 -3 -7.5t-7 -6.5q-5 -4 -13 -7t-16 -3q-4 0 -7.5 1t-7.5 2q-8 3 -13.5 10.5t-6.5 15.5
q0 2 0.5 4.5t1.5 4.5l1.5 1.5l1.5 1.5l0.5 0.5l0.5 0.5l2.5 2.5t1.5 2.5l93 186l253 512q2 5 4.5 10t5.5 9v0z" />
    <glyph glyph-name="zero" unicode="0" horiz-adv-x="612" 
d="M511 793h1q86 -8 122.5 -52.5t48.5 -97.5q6 -28 7.5 -54.5t2.5 -47.5v-8.5v-8.5v-8.5v-9.5q0 -13 -0.5 -25.5t-1.5 -25.5q-13 -172 -107.5 -315.5t-220.5 -148.5h-7.5h-6.5q-116 -1 -159 67.5t-52 151.5q-1 9 -1.5 18t-1.5 18v9.5v9.5q0 44 8.5 102.5t27.5 119.5
q35 115 110.5 211t202.5 96h13.5t13.5 -1v0zM313 264h-1v-4.5v-4.5q0 -34 12 -59t41 -25q13 0 28 10.5t30 29.5q36 44 67.5 124.5t37.5 167.5q1 10 1.5 19.5t0.5 19.5q0 39 -13.5 65t-35.5 26q-11 0 -23 -7t-24 -20q-32 -34 -61.5 -100.5t-45.5 -139.5q-6 -26 -9.5 -52
t-4.5 -50v0z" />
    <glyph glyph-name="one" unicode="1" horiz-adv-x="427" 
d="M385 786l2 2l54 -6q12 -1 23.5 -4t21.5 -6q7 -3 13 -5t11 -4q14 -4 20 -13.5t6 -20.5q0 -8 -2 -17l-4 -18q-1 -4 -2 -7.5t-2 -6.5q-2 -6 -4 -11.5t-3 -10.5l-80 -284l-93 -312l-2 -8l-2 -8v-1.5v-1.5q-4 -19 -12 -33.5t-39 -14.5h-1.5h-2.5q-15 1 -37.5 3t-46.5 6
q-11 3 -22 6.5t-21 7.5q-7 3 -10 9.5t-3 16.5t2.5 21.5t5.5 23.5q1 2 1.5 4t1.5 4l4 14t3 13l99 348l20 55l-56 25q-1 1 -3 1.5t-3 1.5q-8 3 -14.5 9t-6.5 15q0 6 4 14.5t13 18.5q11 12 20 23t18 21l4.5 4.5l4.5 4.5q12 13 24.5 26t27.5 28q14 14 23 23.5t18 17.5l2 2l2 2
l10.5 10.5t12.5 11.5v0z" />
    <glyph glyph-name="two" unicode="2" horiz-adv-x="583" 
d="M466 804l-1 3q99 1 149.5 -53.5t50.5 -133.5q0 -39 -15.5 -87t-42.5 -98q-31 -57 -72 -111.5t-84 -94.5l-72 -68l143 4h7t8 1h2h3h5h5q15 0 26.5 -5t12.5 -23v-6t-1 -6q-1 -10 -3.5 -19.5t-5.5 -19.5q-4 -13 -9 -25.5t-10 -27.5q-7 -22 -23.5 -32t-61.5 -10l-120 -1
q-1 1 -4.5 1h-7.5h-34t-43 1q-29 1 -54.5 4.5t-33.5 11.5q-10 10 -18 26t-15 35q-3 8 -6.5 16.5t-6.5 17.5q-1 2 -2 4.5t-2 5.5q0 1 -0.5 2.5t-0.5 2.5q-1 1 -1 2.5v2.5q0 12 9 23t20 21q3 3 6.5 6t6.5 6l72 73q18 18 33.5 34.5t29.5 31.5q7 9 14.5 18t14.5 18q11 15 23 31
t25 34q3 4 6 8.5t6 8.5q27 39 49 76.5t33 70.5q1 2 1 3.5v2.5v1.5v1.5q-1 13 -10.5 23.5t-22.5 11.5h-0.5h-1.5h-1.5h-0.5q-5 0 -11 -1.5t-11 -5.5q-13 -6 -24.5 -18t-18.5 -25l-14 -25h-78h-6.5h-7.5t-7.5 -0.5t-6.5 -0.5q-22 0 -39.5 5.5t-17.5 26.5v1.5v1.5q7 93 67 143
t130 66q18 4 36 6t35 2v0z" />
    <glyph glyph-name="three" unicode="3" horiz-adv-x="591" 
d="M284 257l3 2l-2 -46v-1.5v-1.5q1 -19 16.5 -34.5t34.5 -15.5h1.5h1.5h0.5h1.5q2 0 4 0.5t5 1.5q28 6 51.5 31t26.5 70v0.5v1.5v1.5v0.5q0 31 -16 49t-36 25l-53 21l8 43q1 5 2 11t2 11q6 32 19.5 58.5t42.5 27.5q51 4 66 25.5t19 55.5v0.5v0.5v0.5v0.5v2.5v2.5
q-2 14 -15 25.5t-28 12.5h-1.5h-2.5q-15 0 -27 -9.5t-21 -21.5l-20 -26q-1 0 -2.5 -1t-3.5 -1q-7 -2 -17 -3.5t-21 -2.5q-6 0 -12 -0.5t-11 -0.5h-8.5t-7.5 1q-5 1 -11.5 2t-12.5 3q-16 4 -30 12.5t-14 25.5q-1 6 1 12.5t6 14.5q34 64 97 104.5t145 40.5q98 0 153.5 -48.5
t55.5 -125.5v-2v-2v-2v-2q-2 -56 -25.5 -94.5t-50.5 -59.5q-7 -6 -14 -10.5t-13 -7.5l-39 -22l20 -17q38 -31 49.5 -59.5t12.5 -56.5q1 -5 1 -10.5v-11.5v-6v-6q0 -6 -0.5 -12.5t-0.5 -13.5q-11 -85 -86 -155t-175 -70h-2h-1h-2h-2q-106 1 -161 53t-62 162v3.5v2.5
q-1 30 19 52.5t60 22.5h4.5h4.5q25 -2 37.5 -5.5t22.5 -13.5q3 -3 6 -6.5t7 -8.5v0z" />
    <glyph glyph-name="four" unicode="4" horiz-adv-x="637" 
d="M598 178l-37 -139q-7 -29 -17 -36.5t-23 -7.5h-5.5h-5.5q-2 1 -5 1h-6q-13 0 -25 1l-24 2q-10 1 -20.5 3.5t-21.5 6.5t-19 9.5t-8 20.5q0 7 1.5 15.5t4.5 18.5l36 117h-81h-24.5h-22.5h-22h-25q-7 0 -14.5 1.5t-16.5 4.5q-10 4 -19 9.5t-16 13.5q-10 11 -17 21.5
t-13 22.5q-4 8 -8.5 16t-9.5 17q-7 13 -10 23.5t-3 20.5q0 12 4 22t11 20q4 8 9.5 15t11.5 15l255 343q9 13 17.5 19.5t16.5 9.5q4 2 8.5 2.5t8.5 0.5q10 1 20 -1.5l22 -5.5q25 -7 47.5 -14.5t35.5 -16.5q12 -8 16.5 -15.5t4.5 -14.5t-4.5 -14.5t-9.5 -14.5l-43 -58h56
q17 0 30.5 -1t27.5 -5q6 -2 12 -4.5t12 -5.5q15 -9 20.5 -19.5t5.5 -21.5q1 -11 -2.5 -22t-7.5 -23q-1 -4 -3 -9t-3 -10l-46 -152l35 -7q6 -1 9.5 -8t4.5 -15q1 -2 1 -4v-4q-1 -17 -4.5 -31.5t-9.5 -28.5q-6 -18 -14.5 -36.5t-18.5 -41.5q-1 -4 -4.5 -5t-8.5 -1h-4.5t-4.5 1
h-4.5h-4.5h-28v0zM523 597l-175 -229h114l61 229v0z" />
    <glyph glyph-name="five" unicode="5" horiz-adv-x="616" 
d="M126 187l2 3v1.5v1.5v0.5v1.5q0 25 14.5 43.5t51.5 19.5h11h9h5.5h5.5h19.5t25.5 -1q27 0 34.5 -10.5t11.5 -24.5q0 -1 0.5 -2.5t1.5 -3.5q3 -14 14 -25.5t46 -14.5h0.5h1.5h1.5h0.5q37 -1 63.5 32t33.5 72q2 6 2.5 12t0.5 12q1 50 -22.5 73.5t-59.5 23.5
q-23 0 -48 -10.5t-51 -29.5l-96 131l86 297h80h302h8.5t9.5 -1q14 -2 25.5 -8t11.5 -21v-4.5t-1 -5.5q-2 -7 -3.5 -15t-3.5 -16q-1 -4 -1.5 -8t-1.5 -8q-4 -18 -7.5 -34t-8.5 -28q-4 -12 -13 -15.5t-20 -3.5h-6.5t-7.5 1h-6.5h-7.5h-216l-2 -5.5t-5 -13.5q-1 -3 -2 -6.5
t-2 -6.5l-2 -8t-1 -7v-2.5v-3.5q-1 -1 -1 -2.5v-3.5v-2v-3q0 -3 0.5 -7t0.5 -7q0 -4 0.5 -6.5l0.5 -2.5l9.5 3.5t23.5 7.5q3 0 6.5 1t6.5 2q11 3 20.5 5t16.5 2q74 1 117.5 -50.5t53.5 -113.5q1 -8 1.5 -16t0.5 -16v-10.5t-1 -10.5q-3 -28 -6.5 -52.5t-10.5 -48.5
q-9 -29 -24.5 -59.5t-43.5 -67.5q-24 -32 -62 -58.5t-79 -42.5q-23 -9 -45.5 -13.5t-42.5 -4.5h-6h-6q-13 1 -26 2.5t-27 4.5q-56 10 -104 50.5t-57 137.5v0z" />
    <glyph glyph-name="six" unicode="6" horiz-adv-x="597" 
d="M468 789l-2 2q15 -2 40.5 -5t53.5 -10q21 -7 40.5 -16.5t35.5 -25.5l-22 -20.5t-48 -46.5l-3.5 -3.5l-3.5 -3.5q-9 -9 -17.5 -18t-16.5 -17t-17 -18l-18 -20q-2 -3 -4.5 -5.5t-4.5 -5.5q-28 -32 -49 -58l-21 -26l57 10q8 1 14.5 1.5t13.5 0.5q73 0 112 -51.5t43 -114.5
v-6.5v-6.5v-6v-6q-1 -18 -4.5 -37t-9.5 -38q-29 -92 -107 -168.5t-188 -76.5h-7.5h-7.5q-102 5 -153.5 74t-51.5 157v9.5v9.5q0 4 0.5 9t1.5 9q14 116 57.5 210.5t122.5 182.5q9 10 22.5 27t30.5 35q12 14 25.5 27t26.5 23q14 10 28 16.5t26 6.5h1.5h1.5h0.5h1.5v0zM381 435
l-1 -2l-20 -35q-2 -5 -8 -18t-12 -30q-5 -12 -9 -24.5t-7 -25.5q-2 -8 -3 -16t-2 -15q0 -3 -0.5 -6.5t-0.5 -6.5v-6.5v-6.5q0 -32 10.5 -52.5t35.5 -20.5h0.5h0.5h0.5h0.5q24 1 46 22.5t37 46.5q3 5 5.5 10t4.5 10q5 11 7 20t2 16q1 15 -6 24t-16 13q-3 1 -6.5 2t-6.5 1
t-5 -0.5t-4 -1.5t-4.5 -2.5t-5.5 -2.5q-1 -1 -2.5 -1h-2.5q-7 -1 -12 7t-5 31q0 17 -2 28.5t-4 19.5q-2 10 -4 15t-1 7v0z" />
    <glyph glyph-name="seven" unicode="7" horiz-adv-x="570" 
d="M283 -12l2 2q-13 4 -24.5 7t-22.5 5q-15 3 -29 7t-26 9q-17 7 -24.5 15.5t-7.5 18.5q0 8 3.5 16.5t9.5 17.5q1 3 3.5 6t4.5 6q3 6 6.5 11t6.5 10q19 31 39 64t40 65q71 117 134 219.5t89 138.5l-242 -6h-2.5h-2.5h-6h-6q-13 0 -24 4t-11 17v2.5v1.5q2 19 5.5 35t9.5 31
q4 11 8 23t9 25q7 21 24.5 33t39.5 12l328 -1h6t6 -1q15 -2 28 -7.5t17 -11.5q5 -6 10 -13.5l11 -16.5q4 -7 8 -13.5t7 -13.5q8 -15 14.5 -29.5t9.5 -24.5q1 -2 1 -4.5v-4.5q0 -8 -3 -14.5t-8 -13.5q-5 -6 -10.5 -12t-11.5 -13l-1.5 -1.5l-1.5 -1.5q-28 -34 -62 -82.5
t-69 -102.5q-7 -12 -15 -24t-15 -23q-39 -61 -74 -118.5t-61 -99.5q-7 -11 -14 -23.5t-13 -25.5q-2 -2 -3 -4.5t-3 -5.5q-19 -35 -38 -62.5t-41 -27.5h-2h-2t-2 0.5t-2 0.5v-1z" />
    <glyph glyph-name="eight" unicode="8" horiz-adv-x="602" 
d="M302 399l-27 38l-14 22t-13 21q-13 25 -21 51t-9 59v3v2q-1 94 75.5 150.5t181.5 56.5h8.5h7.5q44 -2 74.5 -5t58.5 -10q15 -5 31 -11t34 -15q24 -12 36.5 -24.5t13.5 -27.5q0 -6 -2 -12t-6 -14q-3 -5 -12 -16.5t-21 -24.5q-2 -3 -4 -5l-4 -4q-10 -11 -19 -19.5
t-15 -12.5l-15 -10l23 -22q7 -7 12 -15.5t8 -17.5q4 -11 6 -21t2 -17v-1.5v-1.5q0 -17 -7 -32.5t-21 -23.5l-111 -60q30 -34 46 -72t16 -87q1 -122 -85.5 -177.5t-190.5 -56.5h-3.5h-2.5q-84 0 -150 42.5t-67 120.5q0 20 6 41.5t17 43.5q21 42 57 81.5t79 66.5l27 17v0z
M313 187l-1 2v-1.5v-0.5q0 -17 14 -29.5t31 -14.5h2.5h2.5h2.5h1.5q30 3 51 24t21 52q0 20 -9 33.5t-26 23.5q-1 0 -2.5 -1t-3.5 -1q-21 -9 -40.5 -24.5t-31.5 -32.5q-5 -8 -8.5 -15.5t-3.5 -14.5v0zM445 505l142 95l-12 12q-3 3 -8 6.5t-11 7.5q-14 8 -33.5 15t-40.5 10
q-3 0 -6.5 0.5t-7.5 0.5q-5 0 -11 -0.5t-11 -2.5q-19 -4 -35 -17t-16 -37q0 -18 6.5 -34.5t14.5 -28.5t14 -18.5t7 -6.5l8 -2v0z" />
    <glyph glyph-name="nine" unicode="9" horiz-adv-x="605" 
d="M337 128q11 13 20.5 23.5t18.5 20.5l10 12l10 12q7 10 14.5 20.5t15.5 24.5h-68q-83 0 -131 67.5t-48 148.5v1.5v1.5q0 5 0.5 10.5t0.5 11.5q9 118 93.5 216t212.5 98h8.5h7.5q104 -5 155.5 -83.5t51.5 -173.5v-8v-7q0 -4 -0.5 -8t-0.5 -8q-11 -125 -62 -226.5
t-121 -196.5q-12 -16 -33 -40.5t-45 -50.5q-4 -4 -7.5 -8t-7.5 -8q-16 -17 -32 -33l-29 -29l-142 96q19 22 45.5 48.5t54.5 58.5q2 2 4 4.5t4 4.5v0zM468 333l-1 -1q24 25 40.5 73t20.5 100q1 8 1.5 15.5t0.5 15.5v1.5v1.5q0 41 -19.5 63.5t-51.5 27.5h-0.5h-1.5h-1.5h-0.5
q-8 0 -17 -3t-18 -9q-23 -16 -43 -46.5t-26 -63.5q-1 -5 -1.5 -9.5t-0.5 -9.5q-1 -46 18 -68t48 -22h4.5h4.5h3.5t3.5 1h3h3q8 0 13.5 -3t6.5 -14q1 -16 2.5 -25.5t2.5 -14.5q2 -6 4 -7.5t2 -2.5v0v0v0z" />
    <glyph glyph-name="colon" unicode=":" horiz-adv-x="295" 
d="M262 108l-1 -1v-2.5t1 -2.5v-3v-3q0 -37 -25 -68t-63 -31q-36 0 -62 25t-26 62v1.5v1.5q1 40 26.5 74t65.5 34h3.5h2.5q33 -1 54 -27.5t24 -59.5v0zM334 364v-4.5v-4.5q1 -39 -24.5 -71t-63.5 -32q-36 0 -62 25.5t-26 62.5v1.5v1.5q1 40 26.5 74t65.5 34h3.5h2.5
q33 -1 54 -27.5t24 -59.5v0z" />
    <glyph glyph-name="semicolon" unicode=";" horiz-adv-x="282" 
d="M245 67l-90 -156q-7 -12 -14.5 -23t-18.5 -20q-5 -4 -10.5 -6t-11.5 -2q-12 0 -21.5 7.5t-10.5 18.5v6v5q0 5 0.5 10t0.5 10q0 3 0.5 5t0.5 5l52 193l2 8l2 8q1 2 1.5 4t1.5 4q2 8 4.5 14.5t3.5 7.5q9 9 20.5 13t24.5 4q8 0 16 -1t16 -3q5 -1 10 -1h11q1 -1 2.5 -1h2.5
q16 0 29.5 -4t13.5 -19v-6.5t-2 -7.5q-4 -13 -9 -23.5t-11 -20.5q-3 -7 -7.5 -14t-8.5 -15v0zM318 364l-1 -2v-2.5t1 -2.5v-3v-3q0 -37 -25 -68.5t-63 -31.5q-36 0 -62 25.5t-26 62.5v2.5v3.5q2 39 27.5 72.5t64.5 33.5h3.5h2.5q33 -1 54 -27.5t24 -59.5v0z" />
    <glyph glyph-name="less" unicode="&#x3c;" horiz-adv-x="658" 
d="M398 555l-1 2q-20 13 -38 23.5t-36 19.5q-5 2 -10 4.5t-10 5.5q-13 6 -26.5 12.5t-27.5 13.5q-10 5 -14 11t-4 13q0 5 1 9.5t3 9.5q2 4 3.5 7.5t3.5 6.5q0 2 0.5 3t1.5 2q8 16 21 23t29 11q4 1 7 1.5t6 0.5q9 0 16 -3t14 -7q3 -3 6.5 -5.5t7.5 -4.5q1 -1 2 -1.5t2 -1.5
l314 -204q5 -4 11.5 -9.5t12.5 -11.5q17 -19 32 -47t16 -59v-4v-4q0 -30 -14.5 -43.5t-51.5 -23.5q-43 -12 -124 -29.5t-212 -63.5q-29 -10 -54 -17.5t-48 -14.5q-21 -6 -42.5 -12.5t-46.5 -14.5q-6 -2 -11 -3t-9 -1q-14 0 -20 9t-11 20q0 1 -0.5 2l-0.5 1q0 1 -0.5 1.5
t-0.5 1.5q-1 2 -1.5 3.5t-0.5 3.5v3v3v2v1q1 16 10.5 29.5t21.5 17.5q10 3 20.5 6.5t21.5 6.5q175 54 320.5 91.5t141.5 40.5q5 2 -41.5 36t-189.5 127v0z" />
    <glyph glyph-name="equal" unicode="=" horiz-adv-x="635" 
d="M164 336l2 -2q49 11 104.5 14.5t117.5 4.5h16.5h16.5q8 -1 16.5 -1h17.5h23.5t21.5 -1q56 0 97.5 -1.5t79.5 -12.5q11 -3 15 -7.5t4 -10.5q0 -3 -1 -6.5t-2 -7.5q-1 -3 -2.5 -5.5t-2.5 -5.5q-2 -3 -3 -5l-2 -4q-6 -14 -16 -19t-26 -8q-3 -1 -7 -1.5t-8 -1.5
q-31 -5 -62.5 -7t-64.5 -2q-29 -1 -59.5 0.5t-63.5 2.5h-9.5h-10.5q-14 0 -29 -0.5t-30 -1.5q-7 0 -14.5 -0.5t-15.5 -0.5q-22 -2 -43 -3t-39 -1q-28 -1 -46 3.5t-23 15.5q-3 8 -4 13.5t-1 9.5q0 3 0.5 5t1.5 4q1 3 2 5.5t3 6.5q7 14 16 20.5t30 10.5v0zM210 514l3 -2
q47 11 100 14.5t113 3.5h18.5h19.5q9 -1 18.5 -1h19.5h24t22 -1q52 0 90 -1.5t73 -10.5q2 -1 3.5 -1.5t2.5 -0.5q12 -4 17 -9t5 -12q0 -4 -1 -8l-2 -8l-2 -4l-2 -4t-1.5 -4t-1.5 -4q-6 -15 -17 -19.5t-28 -7.5q-3 0 -6.5 -0.5t-6.5 -1.5q-30 -5 -60.5 -7.5t-62.5 -2.5
q-30 0 -61 1.5t-66 2.5h-6h-5h-6h-6q-13 0 -26.5 -0.5t-26.5 -0.5q-10 0 -19.5 -0.5t-19.5 -1.5q-17 0 -33 -1t-31 -1q-32 0 -54 4.5t-27 16.5q-3 8 -4 12.5t-1 8.5q0 2 0.5 4t0.5 3q1 3 2.5 5.5t3.5 6.5q7 15 16 21.5t31 10.5v0z" />
    <glyph glyph-name="greater" unicode="&#x3e;" horiz-adv-x="658" 
d="M487 230l1 -2q20 -13 37.5 -23t34.5 -18q5 -3 11 -6t11 -6q13 -6 26.5 -12.5t28.5 -13.5q11 -5 14.5 -11t3.5 -13q0 -4 -1 -9t-3 -10q-2 -4 -3.5 -7.5t-3.5 -6.5q0 -2 -0.5 -3t-1.5 -2q-7 -16 -20.5 -23t-29.5 -11q-4 -1 -7 -1.5t-6 -0.5q-9 0 -16 3t-14 7q-3 3 -6.5 5.5
t-7.5 4.5q-1 1 -2 1.5t-2 1.5l-314 204q-6 4 -12 9.5t-13 12.5q-17 18 -32 45.5t-16 58.5v2v2v1v2q0 32 14.5 45.5t52.5 23.5q44 12 124.5 29.5t211.5 63.5q29 10 53.5 17.5t48.5 14.5h1.5h0.5q21 6 41.5 12.5t44.5 14.5q6 2 11.5 3t9.5 1q15 0 21 -10t10 -22q0 -1 0.5 -1.5
t0.5 -1.5q2 -4 2.5 -7.5t0.5 -7.5v-2v-2q-1 -14 -11 -27t-21 -17q-10 -3 -20.5 -6.5t-21.5 -6.5q-175 -55 -320.5 -92.5t-141.5 -40.5q-4 -1 42 -35.5t188 -126.5v0z" />
    <glyph glyph-name="question" unicode="?" horiz-adv-x="522" 
d="M286 183v2q52 -1 68 -30.5t16 -66.5v-2v-3q-1 -37 -26.5 -65.5t-61.5 -28.5h-3.5h-3.5q-36 3 -56 30t-20 67q0 30 20.5 56.5t44.5 36.5q6 2 11.5 3t10.5 1v0zM421 287l2 -3q-4 -5 -5.5 -9.5t-2.5 -8.5q0 -1 -0.5 -2.5t-1.5 -3.5q-1 -4 -4 -8t-10 -9q-18 -13 -39 -15
t-45 -2h-4.5h-4.5h-2h-2q-34 0 -50.5 4.5t-17.5 30.5v2.5t1 2.5v3.5v3.5l2 12t3 13q6 21 16.5 42.5t21.5 39.5q12 18 22.5 31t16.5 19q55 51 83 69t43 30q6 4 11 9.5t10 13.5q2 4 4.5 8.5t4.5 10.5q3 8 4.5 15t1.5 13q0 16 -8.5 24.5t-19.5 11.5q-6 2 -12 2.5t-10 0.5h-2h-2
q-28 -1 -43 -22.5t-24 -48.5q-7 -23 -23.5 -28.5t-36.5 -5.5h-12h-12h-12.5t-13.5 1q-22 1 -40.5 8.5t-18.5 28.5v1.5v1.5v0.5v1.5q11 104 84 162t172 61h6h6q95 1 153 -51.5t58 -116.5v-4.5v-4.5q0 -3 -0.5 -5.5t-0.5 -4.5q-11 -76 -42.5 -118t-72.5 -77l-20 -16t-20 -17
q-11 -9 -21.5 -18.5t-20.5 -19.5q-16 -17 -29 -33t-20 -26v0z" />
    <glyph glyph-name="at" unicode="@" horiz-adv-x="821" 
d="M722 557l23 48h73l-208 -343q-1 -2 -2.5 -4.5t-2.5 -5.5q-2 -4 -3 -9t-2 -11v-1.5v-1.5q-1 -1 -1 -1.5v-1.5q0 -10 6 -14.5t16 -4.5q13 0 31 7t37 18q18 11 35.5 25.5t30.5 30.5q9 11 19 24t20 28q24 34 45 76.5t25 87.5q1 6 1 11.5v10.5q0 95 -64 149t-162 57h-2h-2h-2
h-2q-138 0 -257 -104.5t-154 -241.5q-6 -22 -9 -44.5t-3 -43.5q0 -104 64 -176t176 -71q89 1 167 34t148 107l64 -1q-83 -98 -181 -146t-212 -46q-133 1 -212 83.5t-79 204.5q0 26 4 52.5t11 53.5q41 153 175.5 268t287.5 123q5 1 9.5 1h9.5h6h6q119 -4 199 -67.5t80 -176.5
q0 -11 -1 -23.5t-3 -25.5q-11 -69 -37 -113t-59 -84q-5 -7 -10.5 -13.5t-11.5 -13.5q-3 -4 -6.5 -7.5t-6.5 -7.5q-23 -24 -54 -46.5t-64 -37.5q-22 -10 -42.5 -15.5t-39.5 -5.5q-18 0 -33 6t-26 19q-2 3 -4 5l-4 4q-3 5 -5 10t-4 11q-13 -10 -26 -18t-26 -14
q-20 -9 -39.5 -13.5t-38.5 -4.5q-17 0 -34 4t-33 11q-26 13 -37.5 35t-11.5 50q0 25 7 52.5t20 55.5q11 25 25.5 49.5t30.5 46.5q32 43 75.5 81t89.5 61q25 12 49.5 19.5t47.5 7.5q18 0 34.5 -4.5t30.5 -15.5q2 -2 4 -3.5t4 -2.5q9 -8 15.5 -16.5t11.5 -20.5q1 -1 1.5 -2.5
t1.5 -3.5v0zM420 433l1 -2q-11 -16 -21 -32.5t-18 -33.5q-10 -22 -16.5 -43.5t-6.5 -39.5q0 -19 8 -34.5t26 -23.5q7 -3 14.5 -4.5t14.5 -1.5q10 0 21 2.5t21 7.5q30 15 58.5 43.5t53.5 59.5q4 7 9 13t9 12q1 1 1.5 2t1.5 2q9 14 18.5 28t17.5 28q13 23 21.5 45.5t8.5 42.5
q0 14 -5.5 26t-16.5 22q-8 8 -18 11t-21 3q-16 0 -34 -6t-36 -18q-27 -17 -53.5 -42t-47.5 -52q-3 -4 -5.5 -7.5t-5.5 -7.5v0z" />
    <glyph glyph-name="A" unicode="A" horiz-adv-x="588" 
d="M614 177v1q0 -18 -1 -32t-3 -28q-1 -10 -2 -19t-2 -20q0 -6 -0.5 -13t-1.5 -15q-4 -37 -24.5 -46.5t-46.5 -9.5h-7.5h-6.5q-4 1 -7.5 1h-6.5q-5 0 -9.5 0.5t-9.5 1.5q-27 3 -49.5 15t-22.5 36v0.5v1.5v1.5v0.5q1 14 2 35t1 43q1 36 1.5 66.5l0.5 30.5q-2 -1 -4 -2.5
t-4 -3.5q-2 -1 -3.5 -2.5l-2.5 -2.5q-3 -3 -5.5 -5t-4.5 -4l-4 -4l-4 -4l-4.5 -4.5l-4.5 -4.5q-2 -1 -4 -1.5t-3 -1.5q-1 0 -1.5 -0.5t-1.5 -0.5q-4 -2 -7.5 -3t-8.5 -1h-7.5h-6.5h-9h-8t-7 0.5t-7 0.5l-12.5 -26t-27.5 -58q0 -1 -0.5 -2t-1.5 -2q-12 -25 -23 -46.5
t-16 -29.5q-9 -13 -21.5 -18t-26.5 -5h-4.5h-4.5q-9 1 -18 3l-18 4q-4 2 -7.5 3t-6.5 2q-2 1 -4.5 1.5t-5.5 1.5q-23 9 -42.5 23t-19.5 39q0 5 1 9.5t2 9.5q2 6 6.5 17.5t10.5 24.5q0 1 0.5 2l0.5 1q7 17 13 30l6 13q-1 1 -2.5 1.5t-2.5 0.5q-1 1 -2 1.5t-2 0.5q-2 2 -4 4.5
t-5 7.5q-1 3 -2 7.5t-1 8.5q0 7 1.5 15.5t3.5 17.5q1 6 2.5 12t3.5 12q3 10 6 18t4 12q1 2 1.5 4t1.5 3q9 25 20.5 46t38.5 28q4 1 8.5 1.5t8.5 0.5q5 0 9 -0.5t7 -0.5t5 -0.5l2 -0.5l29.5 54t64.5 119q33 60 61 111.5t32 58.5q5 9 10 16t9 14q13 16 27 24t34 8h2.5h1.5
q13 0 29.5 -2t32.5 -5q37 -8 68.5 -25t33.5 -47q1 -10 1 -32.5v-54.5q0 -44 -0.5 -100.5t-1.5 -115.5q-1 -63 -3.5 -123t-5.5 -104v0zM400 382l-1 1q3 -3 7.5 -5t9.5 -2q1 -1 3 -1h3q5 0 9.5 1.5t8.5 4.5l14 137l-9 -17t-19 -39q-1 -3 -2.5 -6.5t-3.5 -6.5q-8 -19 -15 -36
t-7 -26q0 -1 0.5 -2.5t1.5 -2.5v0z" />
    <glyph glyph-name="B" unicode="B" horiz-adv-x="628" 
d="M595 373l-2 1l17 -25q6 -10 12 -18t11 -15q8 -13 13.5 -28t5.5 -38v-4v-4q-1 -2 -1 -4v-4q-7 -121 -110 -180t-234 -60h-6h-7q-3 1 -6.5 1h-6.5q-41 1 -67.5 19.5t-50.5 48.5q-8 11 -17 23.5t-18 25.5q-5 8 -7.5 17t-2.5 19q0 5 0.5 10.5t1.5 10.5q1 10 3.5 20t5.5 20
q3 9 5.5 17t4.5 14l101 308l-13 5q-1 0 -1.5 0.5l-0.5 0.5h-1.5h-1.5q-6 0 -11.5 -2.5t-11.5 -6.5q-3 -1 -5.5 -2.5t-5.5 -2.5q-4 -1 -7.5 -2t-6.5 -1q-11 0 -15 8.5t-5 19.5v4v4v7v5l30 102q13 47 65 68t200 34h4t4 1h4.5h4.5q20 0 41.5 -3.5t43.5 -10.5q67 -21 123 -72.5
t55 -127.5q0 -53 -22.5 -93t-49.5 -66q-18 -18 -35 -29t-27 -15v0zM413 185h-1q15 10 27 24.5t12 32.5v4t-1 4q-2 14 -11 24t-20 16q-9 4 -11.5 14t-2.5 20v3.5v3.5v1.5v1.5q-1 12 -5.5 16t-9.5 7h-0.5h-0.5q-2 1 -3.5 2t-3.5 2l-57 -191q8 -2 15.5 -3.5t14.5 -1.5
q15 0 30 5t28 15v0zM434 535h-1q-1 -5 -3.5 -18.5t-6.5 -29.5t-9.5 -30.5t-12.5 -18.5l78 33q4 2 8.5 6t9.5 9q10 11 18 26t9 31v2v2v0.5v1.5q-1 24 -30 39t-63 17h-5.5h-5.5q-10 0 -19.5 -1.5t-18.5 -3.5q-6 -2 -11 -4t-10 -5q-4 -1 -7 -3.5t-7 -4.5q6 1 17.5 -2.5
t24.5 -9.5l16 -8t14 -9q7 -5 11.5 -10t3.5 -9v0z" />
    <glyph glyph-name="C" unicode="C" horiz-adv-x="585" 
d="M375 446l-1 -2q-3 -7 -8 -24.5t-10 -38.5q-2 -9 -4 -17.5t-4 -17.5q-6 -30 -10.5 -57t-4.5 -39v-1.5v-1.5q1 -20 9.5 -32t20.5 -13q8 0 17 5.5t18 17.5q1 2 2 3.5t2 2.5q6 9 10.5 17.5t8.5 17.5q11 22 28.5 38.5t69.5 19.5h5.5t4.5 1h4.5h5.5q34 0 54.5 -10.5t20.5 -40.5
q0 -8 -1.5 -18t-5.5 -22t-8 -23.5t-9 -23.5q-33 -76 -97 -138.5t-158 -62.5q-13 0 -27.5 1.5t-28.5 4.5q-6 1 -12.5 3t-12.5 4q-45 17 -82.5 73.5t-37.5 164.5v9.5v9.5q9 248 124.5 398.5t262.5 150.5h2h2h1h2q98 -2 134 -52t36 -119q0 -40 -11 -73t-46 -53q-10 -6 -30 -10
t-43 -4q-27 0 -49.5 8t-21.5 28q0 6 1.5 13.5t4.5 15.5v1v1q2 7 3.5 14.5t1.5 13.5q0 9 -4.5 14.5t-15.5 5.5h-8t-9 -2q-5 -1 -10.5 -5t-10.5 -10q-11 -12 -21.5 -30t-19.5 -37q-12 -26 -21 -48.5t-13 -30.5v0z" />
    <glyph glyph-name="D" unicode="D" horiz-adv-x="633" 
d="M191 410l57 166h-1.5h-0.5h-1.5h-1.5q-11 0 -19.5 -3t-16.5 -6q-1 0 -1.5 -0.5l-1.5 -1.5l-6 -2l-6 -2h-3.5h-3.5q-6 2 -11.5 6.5t-5.5 9.5v2v3q-1 1 -1 2v2q0 16 5 33l10 34q3 7 5.5 14.5t4.5 15.5q1 4 2 7.5t2 7.5q12 40 34.5 60t98.5 30l18 2l18 2q8 0 17 0.5t18 0.5
q134 0 241 -73.5t108 -244.5v-6v-6q-2 -154 -108.5 -278t-233.5 -168q-27 -9 -53 -13.5t-52 -5.5h-8h-8q-13 0 -23.5 1t-20.5 6q-17 8 -35.5 27.5t-46.5 57.5q-5 7 -9.5 13.5t-8.5 12.5q-5 8 -8 17t-3 22q0 11 2.5 24.5t6.5 32.5l51 198v0zM431 535q-1 -6 -15 -57t-30 -111
q-18 -61 -32 -112l-14 -51q3 0 6 0.5t6 0.5q69 11 127.5 78t64.5 153q1 5 1 10.5v10.5q0 45 -19.5 82.5t-72.5 58.5l-6 2l-6 2q-1 1 -1.5 1h-1.5q-10 4 -21.5 7t-28.5 4h-3h-3q-2 -1 -3.5 -1h-3.5l-30 -2q33 -18 52 -29.5t28 -21.5q3 -4 5 -8.5t2 -9.5v-1.5v-1.5
q-1 -1 -1 -2v-2v0z" />
    <glyph glyph-name="E" unicode="E" horiz-adv-x="581" 
d="M639 583l-259 11v-1.5v-0.5v-1.5v-1.5q0 -12 6.5 -18t15.5 -11q1 0 2.5 -1t2.5 -1q6 -3 10.5 -6.5t5.5 -8.5q0 -1 0.5 -3t0.5 -3v-3.5v-3.5v-2.5v-3.5q0 -5 -0.5 -10t-1.5 -9q0 -3 -0.5 -5.5t-0.5 -4.5q-1 -7 -1.5 -13.5t-0.5 -13.5l25.5 -0.5t57.5 -1.5h5h5
q30 -1 56 -1.5t34 -0.5q12 0 20.5 -11t8.5 -25v-1.5v-1.5q-1 -10 -7 -34t-16 -51q-4 -11 -8.5 -21t-9.5 -19q0 -1 -0.5 -1.5l-0.5 -0.5q-5 -9 -14.5 -15.5t-43.5 -7.5h-3.5h-4.5q-14 0 -35 0.5t-43 1.5q-7 1 -13.5 1t-13.5 1q-28 1 -48.5 2l-20.5 1l-22 -107h131h10h10h5h5
h1.5h1.5q25 1 45.5 -5t20.5 -29v-0.5v-1.5v-1.5v-0.5q-1 -17 -3 -32t-5 -29q-3 -11 -7 -22.5t-9 -23.5q-10 -25 -25 -31t-33 -6h-7h-8q-1 1 -2 1h-3h-4.5h-5.5q-20 1 -38.5 1h-35.5h-35.5t-31.5 -1h-26h-23q-42 0 -62 6.5t-36 31.5q-1 1 -1.5 2.5t-1.5 2.5q-6 10 -11.5 19.5
t-10.5 18.5q-6 12 -10.5 23.5t-5.5 25.5q0 7 0.5 12t1.5 10q1 3 1.5 5.5t0.5 5.5l32 119q-2 1 -4 1.5t-4 0.5q-9 3 -17.5 8.5t-10.5 19.5v2v2v2v2v2.5v3.5q1 12 2.5 23.5t4.5 20.5q1 4 1.5 7t1.5 5q1 6 3 11.5t4 11.5q3 11 7.5 21t8.5 19q5 10 9.5 16.5t8.5 7.5q6 2 11 3.5
t10 2.5h3.5h3.5q4 0 8 -0.5t8 -1.5l40 124l-40 -2q-13 0 -20.5 10t-7.5 22v0.5v1.5v1.5v0.5q4 16 11.5 39.5t14.5 49.5q2 4 3 7.5t2 7.5q1 3 1.5 5.5t1.5 4.5q9 27 24.5 40.5t66.5 13.5l329 1q46 0 64 -9.5t21 -21.5q1 -3 1.5 -5.5t0.5 -4.5q0 -3 -0.5 -6.5t-1.5 -6.5
q0 -1 -0.5 -2t-0.5 -2q-1 -2 -1.5 -4.5t-0.5 -4.5q-3 -12 -5.5 -25.5t-6.5 -27.5q-8 -34 -23 -63t-45 -28v0z" />
    <glyph glyph-name="F" unicode="F" horiz-adv-x="547" 
d="M130 81h1q3 10 6 18.5t5 16.5q1 1 1 2.5t1 2.5q2 7 4 14.5t5 15.5l39 130q-3 0 -8.5 1t-11.5 4q-8 4 -15 10t-8 15v0.5v0.5v0.5v0.5q0 9 5 29t12 43q3 7 5.5 14.5t4.5 14.5q7 19 13.5 33t10.5 15q7 3 13.5 4.5t12.5 2.5h4h4q4 0 8.5 -0.5t8.5 -1.5l39 129h-53
q-13 0 -19 6t-6 19v1.5v1.5q1 16 5.5 38.5t11.5 46.5q1 3 2.5 6.5t2.5 7.5l2 6t2 5q9 25 22.5 39t49.5 14h235q45 0 77 -3.5t52 -8.5q14 -3 22.5 -5.5t12.5 -4.5q5 -2 7 -9.5t2 -18.5q0 -12 -2.5 -28t-6.5 -33q-7 -24 -16.5 -46t-19.5 -33q-5 -5 -9 -7.5t-8 -2.5l-252 11
l21 -18q2 -2 5 -4l6 -4q2 -1 4.5 -2.5t5.5 -3.5q10 -6 18.5 -13t9.5 -18v-2.5v-2.5q-1 -7 -3.5 -13.5t-4.5 -12.5q-3 -6 -5 -11.5t-3 -8.5v-0.5v-0.5v-0.5v-0.5q0 -3 1 -5.5t2 -4.5l0.5 -1l0.5 -1q1 -1 1.5 -2t0.5 -2h15t35 1h5.5h5.5h33h23q5 0 12 -0.5t14 -1.5
q13 -3 23 -9.5t11 -19.5v0v0v-1v0q0 -11 -6.5 -36t-15.5 -53q-4 -11 -8 -21l-8 -20q-1 -2 -2 -4.5t-2 -5.5q-4 -6 -12.5 -11.5t-26.5 -5.5h-8t-9 1q-7 0 -28.5 0.5t-45.5 0.5h-52h-24l-11.5 -40.5t-24.5 -88.5q-9 -31 -17 -59.5t-13 -46.5q-7 -24 -21 -33t-31 -9q-7 0 -14 1
l-14 2q-6 2 -13 3.5t-13 3.5q-9 3 -17 5.5t-15 3.5q-28 5 -45 15.5t-17 27.5q0 4 1 8l2 8v0z" />
    <glyph glyph-name="G" unicode="G" horiz-adv-x="660" 
d="M519 801l3 1q5 1 10 1h10q16 0 33 -2t34 -7q57 -15 104.5 -58.5t47.5 -124.5q0 -10 -0.5 -19.5t-2.5 -20.5q-3 -22 -22 -35t-40 -19q-13 -3 -24.5 -4.5t-20.5 -1.5q-2 0 -7 -0.5t-12 -1.5q-6 -1 -14 -1.5t-17 -0.5h-2.5h-2.5q-21 1 -39 7.5t-17 26.5v6t1 7v6.5v6.5v1.5
v1.5q0 16 -6 30t-26 14q-4 0 -9.5 -1t-12.5 -3q-34 -10 -65 -59t-57 -113q-5 -12 -9 -25t-7 -25q-9 -36 -12 -70t-3 -58v-11.5t1 -10.5v-7.5v-6.5q2 -21 16.5 -32t32.5 -12q11 0 22 4t18 13q16 17 19.5 30.5t3.5 20.5q-1 -1 -3.5 -1h-5.5h-6t-6 1h-2h-2h-4h-4h-2h-2
q-7 1 -12.5 7t-5.5 20q0 4 0.5 9t1.5 10q3 15 5 28.5t4 24.5q6 41 21.5 59.5t73.5 23.5q6 1 12 1.5t11 0.5q41 4 78.5 7.5t67.5 3.5q38 0 61.5 -8t23.5 -29v-2.5v-3.5q-1 -8 -2.5 -17t-3.5 -18q-7 -33 -20.5 -61t-36.5 -29l-14 -1l-4 -13l-3 -10.5t-1 -6.5v-0.5v-0.5
q-1 -5 -4 -14t-15 -40q-6 -15 -14.5 -31.5t-19.5 -33.5q-34 -51 -93.5 -92.5t-147.5 -41.5q-11 0 -23 0.5t-24 2.5t-25.5 5t-27.5 9q-22 8 -42 22.5t-35 34.5q-14 18 -24 35.5t-18 34.5q-12 26 -17 54t-5 60q0 10 0.5 21t1.5 22q1 23 5 47t9 48q8 36 19 71.5t23 65.5
q9 23 17.5 42.5t15.5 32.5q50 92 116.5 142.5t179.5 60.5v0z" />
    <glyph glyph-name="H" unicode="H" horiz-adv-x="628" 
d="M196 474l70 241q1 4 2.5 8.5t3.5 9.5l2 4t2 5q3 7 6 13.5t5 8.5q8 14 19.5 19t25.5 5h4h4q2 -1 4 -1h4q8 -1 22.5 -4t31.5 -9q22 -8 40.5 -22.5t18.5 -36.5v-3.5t-1 -2.5q-1 -8 -5 -18t-10 -32l-56 -186h125l67 243q3 11 5.5 18.5l4.5 13.5q2 5 3.5 10t3.5 11
q2 8 14.5 11.5t28.5 3.5q6 0 12 -0.5t12 -0.5q9 -1 18 -3t17 -4q2 -1 4.5 -1.5t4.5 -0.5q24 -7 45 -17t25 -35v-3v-4q0 -7 -1 -14.5t-3 -15.5l-14 -47l-143 -512q-2 -7 -3.5 -14t-2.5 -13q-1 -8 -3 -16t-5 -16q-2 -5 -5 -10.5t-7 -10.5l-4 -6l-4 -6q-11 -15 -23.5 -26
t-32.5 -11q-16 0 -29 0.5t-25 2.5q-11 0 -23 3t-27 7q-11 3 -15.5 13.5t-4.5 23.5q0 7 1 13.5t2 12.5l64 213l13 59l-33 -39q-1 -1 -2.5 -3.5t-2.5 -4.5l-0.5 -0.5l-0.5 -0.5q-1 -2 -2.5 -4t-2.5 -3q0 -1 -0.5 -1.5l-1.5 -1.5q-6 -7 -18.5 -13.5t-40.5 -6.5q-10 0 -22.5 1
t-27.5 3l-53 -212q-1 -9 -4.5 -17.5t-8.5 -15.5q-2 -3 -4 -5.5t-3 -4.5q-3 -6 -10 -9t-32 -4h-0.5h-1.5h-1.5h-0.5q-8 0 -16.5 0.5t-16.5 1.5q-32 4 -60 12.5t-33 19.5q-2 5 -3 9.5t-1 8.5t0.5 7.5t1.5 7.5l51 198l-13 7q-1 0 -3 1t-3 1q-4 2 -8 5t-5 7q-2 4 -3 10t-1 13
q-1 11 1 24t5 26l2 8l2 8l4 14t3 13q8 27 18.5 45.5t36.5 20.5l27 3v0z" />
    <glyph glyph-name="I" unicode="I" horiz-adv-x="372" 
d="M308 765l-2 -2q2 10 23.5 16.5t47.5 6.5h1.5h1.5q9 0 18 -0.5t16 -2.5q3 -1 6.5 -1.5t6.5 -1.5q27 -6 49.5 -16.5t25.5 -36.5v-0.5v-1.5v-1.5v-0.5q0 -8 -2.5 -14.5t-4.5 -12.5l-1 -1v0q-1 -4 -2.5 -7t-2.5 -7q-15 -55 -35 -131t-41 -157q-1 -2 -1.5 -4.5t-1.5 -4.5
q-35 -134 -65.5 -245t-36.5 -123q-8 -15 -23 -20.5t-33 -5.5q-8 0 -16 1t-17 2q-5 1 -11 2.5t-11 2.5q-1 0 -2 0.5t-2 0.5q-26 5 -49 15t-30 38q-1 5 -1.5 10t-0.5 10q0 15 3.5 32.5t9.5 35.5q1 5 3 11l4 12q2 16 28.5 105t58.5 194l0.5 1t0.5 2q1 3 1.5 5.5t1.5 4.5
q31 103 57 189.5t28 100.5v0z" />
    <glyph glyph-name="J" unicode="J" horiz-adv-x="555" 
d="M75 213l2 -5q1 10 3.5 22t4.5 24q3 11 5.5 20.5t5.5 18.5q2 9 5 17t5 13q1 3 3 6t4 7q6 8 18.5 15t36.5 7h5h6h7t8 -1h16t17 -1q23 -2 42 -9.5t19 -28.5v-1.5v-0.5q0 -14 -3.5 -25.5t-7.5 -21.5q-3 -8 -6 -14.5t-4 -12.5q-1 -3 -1.5 -6.5t-1.5 -6.5q-2 -8 -3.5 -15.5
t-1.5 -14.5q0 -11 6 -20t22 -13q1 0 2 -0.5t2 -0.5h2h2q19 -1 29.5 17.5t16.5 41.5q2 6 3.5 12t2.5 12l117 441q1 4 2 8.5t2 9.5q1 2 1.5 4t1.5 5q3 11 5.5 21l3.5 14q7 16 24.5 23t36.5 7h0.5h1.5h1.5h0.5q8 -1 25.5 -2.5t37.5 -5.5q25 -6 46 -18t21 -34q0 -7 -1.5 -13
t-3.5 -12q0 -1 -0.5 -1.5t-0.5 -1.5q-1 -4 -1.5 -7t-1.5 -7l-91 -344q-10 -39 -18 -71t-15 -58q-15 -52 -33.5 -87.5t-55.5 -67.5q-3 -3 -6 -5.5t-7 -5.5q-36 -29 -74 -37.5t-85 -9.5h-2.5h-2.5q-15 0 -31 2t-33 6q-37 10 -71.5 33t-52.5 62q-5 12 -8.5 23t-4.5 22
q-1 7 -1.5 14.5t-0.5 14.5q0 10 0.5 21t1.5 22v0z" />
    <glyph glyph-name="K" unicode="K" horiz-adv-x="626" 
d="M316 242l-39 -186q-1 -3 -1.5 -6.5t-1.5 -6.5q-3 -11 -7.5 -21t-14.5 -14q-1 -1 -4 -1h-6q-7 0 -17.5 1t-20.5 3q-4 1 -7 1.5t-7 1.5q-9 2 -17 3.5t-13 2.5q-6 1 -12.5 2.5t-12.5 3.5q-21 5 -38.5 14t-17.5 22v2.5v1.5q1 7 2.5 12.5t2.5 10.5l0.5 0.5t0.5 1.5q1 3 1.5 6
t1.5 6l31 112l139 512q5 15 10 29.5t12 24.5q3 4 12.5 6.5t19.5 2.5h7t6 -1h0.5h1.5q7 -1 25.5 -2t39.5 -5q26 -5 47.5 -15.5t21.5 -30.5q0 -7 -1 -14t-3 -14q-1 -4 -2 -7t-2 -7l-64 -202l17 1q7 1 16.5 6t19.5 12q4 2 7.5 5t7.5 6q8 6 14.5 11.5t11.5 9.5q54 46 81 96.5
t47 107.5q5 14 18 24.5t28 10.5h3t3 -1q1 0 2.5 -0.5t2.5 -0.5q10 -3 21.5 -6t24.5 -7q27 -9 50 -21.5t24 -32.5q0 -3 -0.5 -6.5t-2.5 -7.5q-5 -12 -9.5 -23t-9.5 -22q-3 -9 -6.5 -17t-6.5 -16l-16.5 -33t-19.5 -35q-28 -46 -61 -86.5t-67 -68.5q-17 -15 -34 -26t-33 -18
l-59 -26q35 -48 51 -71t26 -41q1 -2 2 -3.5t2 -3.5q6 -11 12.5 -23t16.5 -30q4 -8 8.5 -16t9.5 -16q0 -2 1 -3.5t2 -3.5q17 -31 30.5 -58.5t14.5 -37.5v-0.5v-0.5v-0.5v-0.5q0 -12 -13 -21t-28 -17q-1 -1 -1.5 -1t-1.5 -1q-5 -2 -9.5 -4.5t-8.5 -5.5q-7 -4 -14.5 -8
t-14.5 -8q-15 -6 -28.5 -10.5t-21.5 -4.5h-2.5h-2.5q-10 1 -16.5 7.5t-10.5 14.5l-150 282v0z" />
    <glyph glyph-name="L" unicode="L" horiz-adv-x="488" 
d="M419 595l-115 -398l167 4h13h12h3.5h3.5h3h3v0h1v0v0q10 0 18 -7.5t11 -17.5q0 -1 0.5 -2.5t0.5 -3.5v-1.5v-0.5q-1 -1 -1 -1.5v-1.5q-10 -42 -21.5 -79t-25.5 -60q-7 -13 -19.5 -16.5t-29.5 -3.5h-10.5t-10.5 1h-11.5h-10.5h-141q-36 0 -48.5 3t-20.5 12q-4 3 -7.5 8
t-9.5 11q-5 5 -12 14t-14 20q-2 4 -4.5 8t-5.5 7q-6 11 -11.5 21t-8.5 18q-4 13 -6 22.5t-2 17.5v3.5v3.5q1 9 3 18t5 20l1 2l136 512q1 4 1.5 7.5t1.5 6.5q1 5 3 10.5t6 12.5q5 9 13.5 12t18.5 4h4h4q7 0 15 -1t15 -2q14 -2 27 -5t25 -5q18 -5 32 -9t18 -5q8 -2 11 -9.5
t3 -18.5q0 -13 -3.5 -29.5t-8.5 -33.5q-1 -5 -3 -10t-3 -10q-4 -14 -8 -26t-7 -22v0z" />
    <glyph glyph-name="M" unicode="M" horiz-adv-x="872" 
d="M947 654l-3 -18l-62 -512l-2 -16t-2 -15q-2 -8 -3 -16t-3 -16q-5 -24 -19.5 -36t-30.5 -16q-9 -2 -16.5 -2.5t-14.5 -0.5h-7h-6q-5 0 -19.5 1.5t-30.5 5.5q-20 5 -36 13.5t-16 21.5q0 14 5.5 49.5t11.5 76.5q1 4 1.5 8t0.5 8q2 12 3.5 23.5t3.5 22.5q1 10 3 22t3 24
q1 1 1 2v2q5 31 8.5 56.5l3.5 25.5l-158 -271q-1 -3 -2.5 -5t-2.5 -5q-4 -6 -7.5 -12.5t-8.5 -12.5q-2 -3 -4 -5.5t-4 -5.5q-5 -7 -9.5 -13t-8.5 -10q-10 -11 -21 -16.5t-33 -5.5h-6h-6h-4.5t-4.5 1q-17 1 -33.5 5.5t-29.5 9.5q-8 4 -14.5 7t-10.5 5q-7 5 -10 20.5t-3 37.5
q0 12 0.5 25t1.5 26v5.5v5.5q1 14 1 28v27l-4 155l-8 -24.5t-18 -54.5q-1 -2 -1.5 -3.5t-0.5 -2.5q-6 -18 -11.5 -35t-8.5 -29q-5 -17 -8.5 -31t-6.5 -28l-2 -6t-1 -5l-10 -34t-12 -37q-1 -3 -2 -6.5t-2 -6.5q-2 -8 -4.5 -15.5t-6.5 -12.5q-10 -19 -29.5 -22t-40.5 -3
q-7 0 -14.5 0.5t-15.5 1.5q-27 4 -49 16.5t-22 35.5q0 4 0.5 8t1.5 8t2 9t2 11q1 4 1.5 8t1.5 8q1 5 2 9l2 8q10 47 20.5 84t22.5 72q10 31 21.5 64.5t24.5 74.5l21 63t25 73q1 4 2.5 7t2.5 6q21 62 40 113.5t23 60.5q8 17 26.5 26.5t39.5 9.5h2.5h1.5q10 -1 30.5 -3
t42.5 -7q30 -6 55.5 -21.5t25.5 -44.5v-0.5v-1.5q0 -5 2 -57t4 -113v-2.5v-2.5q2 -62 4 -113.5l2 -51.5l27 49t60 107q1 1 1.5 2t0.5 2q6 11 12 21.5t12 20.5q7 12 13.5 23.5t12.5 23.5q2 3 3.5 6.5t3.5 6.5q13 23 27 46.5t32 49.5q1 1 1.5 2.5t1.5 3.5q4 8 9 15.5t13 13.5
q13 11 27 16t30 5h3.5h3.5t3.5 -0.5t3.5 -0.5q9 -1 26.5 -2.5t36.5 -6.5q21 -5 40.5 -15.5t26.5 -28.5q2 -7 3.5 -13t1.5 -12q0 -4 -0.5 -8t-0.5 -8q-1 -2 -1.5 -4.5t-0.5 -5.5q-1 -5 -2 -10.5t-1 -11.5v0z" />
    <glyph glyph-name="N" unicode="N" horiz-adv-x="684" 
d="M647 23l-1 -1q-2 -10 -17.5 -14.5t-38.5 -4.5q-12 0 -24.5 1t-25.5 3q-29 5 -55.5 14.5t-40.5 22.5q-6 5 -11 31t-10 57q-2 10 -3.5 20.5t-2.5 19.5l-41 252l-102 -373q-2 -8 -4 -15t-4 -12q-6 -15 -13.5 -18t-21.5 -3h-11t-14 -1h-2.5h-2.5q-2 -1 -3.5 -1h-3.5
q-9 0 -21.5 1t-25.5 4q-25 5 -45.5 16t-21.5 31q0 7 0.5 13t1.5 11q0 4 1 8l2 8l36 121l148 512v1.5t1 1.5q4 19 15.5 34.5t32.5 15.5h3.5h3.5q1 0 3 -0.5t3 -0.5q3 -1 6 -1.5t6 -0.5q7 -1 13 -2.5t13 -2.5q32 -6 62.5 -17.5t50.5 -36.5q14 -18 23.5 -45.5t17.5 -60.5
q2 -11 5 -22l6 -22q2 -7 3.5 -13t3.5 -12q3 -12 6 -22.5t6 -20.5v-0.5t1 -1.5q3 -10 6 -21t6 -24l15 72q3 16 10.5 47.5t15.5 66.5q1 4 2 7t1 7q7 28 14 54t11 41q1 2 2 4.5t3 5.5q4 8 12 15t18 7q1 1 1.5 0.5t1.5 -0.5h1.5h0.5q4 0 26 -3t48 -10q27 -8 50.5 -21.5
t23.5 -34.5q0 -7 -1 -14t-3 -13q-1 -3 -1.5 -5.5t-1.5 -5.5l-2 -8t-2 -9q-7 -33 -19 -82t-26 -101q-3 -11 -6.5 -22.5t-6.5 -23.5q-4 -13 -7.5 -26t-7.5 -25q-5 -18 -18.5 -60.5t-28.5 -89.5q-18 -59 -33.5 -108t-15.5 -53v-1.5v-1.5q0 -5 0.5 -9.5t1.5 -7.5q0 -2 0.5 -4
t0.5 -4q1 -2 1 -3.5v-3.5v-2.5v-3.5v0z" />
    <glyph glyph-name="O" unicode="O" horiz-adv-x="647" 
d="M551 762h-1v-52l43 36q5 4 10.5 8.5t11.5 9.5q9 8 19 14.5t20 10.5q4 1 7.5 1.5t6.5 0.5q7 0 13.5 -2.5t12.5 -9.5q41 -43 50 -94.5t12 -113.5v-4.5v-4.5v-6t1 -6v-5.5v-5.5q0 -32 -3.5 -65.5t-10.5 -67.5q-33 -160 -131.5 -293t-231.5 -133q-22 0 -44.5 4.5t-45.5 13.5
q-94 38 -125.5 108t-31.5 169q0 193 114.5 354t253.5 174h2.5t2.5 1h2.5h2.5q24 0 32 -12.5t8 -29.5v0zM497 311l2 -1q8 22 15 40t12 35q5 19 8.5 39t5.5 44q2 23 2.5 39.5t0.5 28.5q0 13 -1 22.5t-2 17.5q-2 10 -4.5 21.5t-5.5 27.5l-31 -25q-7 -6 -12.5 -9.5t-10.5 -6.5
l-1.5 -1.5l-1.5 -1.5q-7 -4 -14 -10.5t-17 -19.5q-9 -11 -20.5 -27t-23.5 -36q-22 -38 -40.5 -90t-20.5 -113v-0.5v-1.5v-1.5v-0.5q0 -7 0.5 -14t1.5 -14q3 -24 14.5 -44t33.5 -21v0h1v0v0q22 0 43 21t37 46q10 16 17.5 31t11.5 25v0z" />
    <glyph glyph-name="P" unicode="P" horiz-adv-x="593" 
d="M263 538l2 1q-4 2 -6 3.5t-4 2.5q-2 2 -5 2.5t-12 -1.5q-5 0 -11 -2.5t-13 -5.5q-3 -2 -5.5 -3t-5.5 -2q-5 -2 -9.5 -3t-9.5 -1q-11 0 -17.5 9.5t-9.5 21.5q0 3 -0.5 5.5t-0.5 5.5v1.5v1.5v0.5v1.5q2 12 5 24.5t6 25.5q11 47 33.5 87.5t71.5 51.5q22 5 40.5 9t36.5 6
q21 4 42.5 6t47.5 4q7 1 13.5 1h13.5q104 0 184.5 -59t87.5 -159v-4t1 -4v-5v-4q0 -24 -4.5 -49t-13.5 -51q-19 -54 -57 -105t-93 -86q-5 -3 -11.5 -6.5t-13.5 -7.5q-11 -6 -24.5 -11t-26.5 -10q-16 -5 -31 -8t-27 -3q-10 0 -17 2.5t-11 6.5q-6 6 -7.5 14.5t-2.5 17.5v1.5
v1.5q0 5 -0.5 9.5t-1.5 8.5q0 5 -3 9t-6 7q-2 2 -3.5 4t-2.5 4l-7 -22t-16 -50q-1 -2 -1.5 -4.5t-1.5 -4.5l-6 -22t-6 -21q-3 -12 -6.5 -25t-6.5 -26q-9 -37 -15.5 -70.5t-8.5 -43.5q-1 -9 -9 -12.5t-19 -3.5q-5 0 -10.5 0.5t-11.5 1.5q-5 1 -10 1.5t-10 0.5q-5 1 -11 1.5
t-12 1.5q-32 4 -58 13t-27 33q0 2 0.5 5t1.5 6q5 19 18 75t30 119q5 20 10 38.5t10 36.5q5 16 10 34t11 36q1 3 2 5.5t1 5.5q15 48 27.5 86l12.5 38v0zM398 560l1 1q20 -4 36 -15.5t17 -30.5q0 -12 -5.5 -26t-11.5 -33q-2 -5 -3.5 -9.5t-2.5 -9.5q0 -1 -0.5 -3t-0.5 -3
t-0.5 -2l-0.5 -1q0 -3 -0.5 -5.5t-0.5 -4.5q11 0 21.5 1.5t20.5 6.5q25 12 42.5 32.5t24.5 43.5q2 5 3 10.5t1 10.5v1.5v1.5q0 35 -30 51t-75 17q-18 0 -34 -0.5t-31 -5.5q-5 -1 -10.5 -3t-10.5 -5q3 0 5 -1l4 -2l12.5 -7.5t28.5 -9.5v0z" />
    <glyph glyph-name="Q" unicode="Q" horiz-adv-x="642" 
d="M473 -82l1 1q-2 3 -8 9.5t-13 13.5q-5 5 -10 10.5t-8 8.5q-2 3 -5 8t-7 10q0 1 -0.5 1.5l-0.5 0.5q-5 9 -9 15.5l-4 6.5q-7 -1 -13.5 -1.5t-14.5 -0.5h-3h-3h-3.5h-3.5q-88 -1 -156.5 72t-73.5 200v1.5v1.5q0 30 14 103.5t51 156.5q35 78 94.5 149t150.5 104
q10 3 22.5 6.5t25.5 5.5l14 2t14 1q20 0 34.5 -7t15.5 -24v-0.5v-0.5v-0.5v-0.5q0 -5 -1 -12t-2 -15q0 -2 -0.5 -4.5t-0.5 -4.5q-1 -10 -2.5 -17l-1.5 -7l9 6.5t19 14.5q1 1 2 1.5t2 1.5l10 8t8 7q2 2 4 3.5t4 3.5q6 5 12.5 10t12.5 10q11 7 21 11.5t19 4.5q34 -1 52.5 -46
t23.5 -100q1 -11 1.5 -23t0.5 -23v-10.5v-10.5q-7 -133 -42.5 -246t-109.5 -190l-37 -39l7 -9t15 -20q1 0 1 -0.5t1 -0.5q7 -9 13.5 -17t8.5 -10q5 -4 7.5 -9.5t2.5 -10.5q0 -3 -0.5 -6t-1.5 -6q-5 -11 -15 -21.5t-21 -20.5q-9 -7 -17.5 -13.5t-13.5 -10.5q-3 -3 -7 -5.5
t-8 -5.5l-12 -8t-12 -7q-10 -5 -19.5 -8.5t-17.5 -3.5q-5 0 -9 1.5t-7 5.5v-1zM552 601l3 1q0 7 -2.5 11t-4.5 7v0.5v0.5q-2 1 -3 3l-2 4q-2 -2 -5.5 -6.5t-7.5 -8.5q-3 -5 -7.5 -9t-9.5 -6q-9 -4 -22.5 -13.5t-27.5 -22.5t-26.5 -28t-21.5 -31q-1 -1 -1.5 -2.5t-1.5 -2.5
q-25 -45 -45.5 -101t-20.5 -123q0 -20 4 -29.5t10 -17.5q2 -3 5 -6.5t5 -7.5q1 -1 1.5 -2t1.5 -2q0 3 5.5 10.5t12.5 15.5q1 2 2 3.5t3 2.5q2 3 4.5 6t4.5 5q4 4 9 7.5t10 5.5q3 1 6.5 2t6.5 1h0.5h1.5q11 -1 19 -2.5t15 -6.5q11 20 19.5 37.5t15.5 33.5q12 27 20 56t14 70
q5 32 8.5 60t3.5 53q0 8 -0.5 16.5t-1.5 15.5v0z" />
    <glyph glyph-name="R" unicode="R" horiz-adv-x="642" 
d="M544 280h2l117 -189q18 -30 25.5 -49.5t7.5 -31.5q0 -13 -6 -20t-14 -11q-9 -6 -18.5 -10.5t-20.5 -8.5q-14 -6 -30 -12.5t-32 -16.5q-20 -11 -45 27t-51 84q-5 8 -9 15.5t-9 15.5q-5 10 -11 19l-12 18q-12 18 -21.5 34.5t-19.5 31.5q-2 3 -4 6.5t-4 6.5q-6 11 -13.5 22
t-15.5 23q-6 -11 -11 -30t-9 -41q-2 -7 -3.5 -15t-3.5 -15q-1 -4 -1.5 -7.5t-1.5 -7.5q-7 -28 -12 -54t-10 -45q-1 -10 -11.5 -15t-24.5 -5h-3.5h-3.5t-3.5 0.5t-3.5 0.5q-7 0 -15 1l-16 2q-4 0 -8 0.5t-8 0.5q-34 4 -62.5 12.5t-29.5 33.5q0 3 0.5 6t1.5 6q5 19 19.5 80
t31.5 130q5 17 9.5 35t9.5 34q1 4 2 7.5t2 6.5q5 17 10.5 36.5t11.5 38.5q1 4 2 7l2 6q16 51 29 91l13 40q-3 -1 -6 -1.5t-6 -1.5q-2 0 -3.5 -0.5t-3.5 -0.5q-4 -1 -8.5 -1.5t-8.5 -2.5q-10 -4 -18 -6t-16 -2q-16 0 -25 8t-9 18v2v2l0.5 1t0.5 2q4 13 7.5 31t8.5 36
q9 32 22.5 59.5t36.5 32.5q14 3 29.5 7t31.5 8q38 9 80.5 16.5t88.5 7.5q130 -1 211 -60.5t82 -167.5q0 -7 -0.5 -14.5t-1.5 -15.5q-1 -6 -1.5 -11.5t-1.5 -10.5q-15 -79 -71.5 -147t-137.5 -82v0zM421 565l-1 -3q14 -4 20 -15t6 -26v-2.5v-3.5q-1 -1 -1 -2.5v-3.5
q0 -3 -0.5 -5.5t-1.5 -5.5q-2 -12 -7.5 -25t-11.5 -35q-1 -2 -1.5 -4.5t-1.5 -4.5q-1 -4 -2.5 -9t-3.5 -12q16 1 29.5 4.5t23.5 8.5q29 14 53 35.5t32 45.5q2 4 3 8t1 8v3v3v2.5v2.5q1 35 -21 56t-81 29q-4 1 -9.5 1h-10.5h-6.5h-6.5q-21 -1 -41 -5t-32 -9q-4 -1 -7 -2.5
l-5 -2.5v0h1q6 0 19 -4.5t27 -10.5q1 -1 2.5 -1.5t2.5 -0.5q9 -4 17.5 -7.5t14.5 -6.5v0z" />
    <glyph glyph-name="S" unicode="S" horiz-adv-x="544" 
d="M235 -1q-80 2 -116 16t-36 54v8t1 8q1 9 2.5 18.5t3.5 18.5q8 53 23.5 97.5t48.5 45.5h11.5h11.5h15.5h14.5h17.5t17.5 -1q19 -2 25 -9.5t6 -17.5v-4t-1 -4q0 -3 -0.5 -5t-0.5 -4l-7 -34h22q4 0 11.5 0.5t16.5 3.5q12 3 21.5 12.5t9.5 28.5q0 8 -1.5 16t-3.5 17
q-8 29 -26 58t-38 59q-24 37 -45 75.5t-23 80.5v2v2v2v2q-1 93 99.5 170t254.5 78q9 0 19.5 -0.5t20.5 -1.5q33 -2 59.5 -13t27.5 -38v-2v-2q-1 -1 -1 -2v-2q-2 -12 -3 -23.5t-3 -22.5q-6 -56 -22.5 -91.5t-81.5 -35.5h-7.5h-7.5q-11 1 -20 1t-16 1q-15 0 -21.5 1.5
t-11.5 8.5q-2 3 -3.5 6l-3.5 7l-6 14l-12 -1q-2 0 -9 -1t-15 -5q-9 -4 -17 -12.5t-8 -22.5q0 -7 2.5 -15t7.5 -19q28 -51 48.5 -81.5t34.5 -56.5q12 -21 19.5 -45t10.5 -60q1 -7 1.5 -15t0.5 -16q0 -94 -67 -171t-231 -77h-9.5h-10.5v-1z" />
    <glyph glyph-name="T" unicode="T" horiz-adv-x="541" 
d="M381 572v-2q3 7 4.5 11t2.5 8q0 2 0.5 4t1.5 4h-130q-38 0 -53 9.5t-17 20.5v1.5v1.5v1.5v1.5q3 25 8.5 47t11.5 43q2 6 3.5 11.5t3.5 11.5q5 20 21 30.5t36 10.5l374 -2q47 0 73 -8.5t27 -34.5v-5t-1 -6q0 -3 -1 -6t-1 -7q-3 -16 -8 -32.5t-10 -30.5q-5 -15 -10 -26.5
t-8 -18.5q-4 -13 -16.5 -16.5t-26.5 -3.5h-8t-7 1h-8h-8l-165 4l10 -4.5t21 -11.5q5 -2 9.5 -5l7.5 -5q1 -1 2 -1.5t2 -1.5q2 -1 3.5 -2t2.5 -2q2 -2 4.5 -3t4.5 -3q9 -5 16 -11t9 -17q0 -1 0.5 -2t0.5 -2v-2v-2q0 -6 -2 -12t-4 -11v-0.5v-0.5l-2 -6l-2 -6l-128 -447
q-1 -3 -1.5 -5.5t-0.5 -4.5q-3 -14 -10.5 -24t-35.5 -11h-2h-1h-2h-2q-38 0 -72.5 6t-57.5 16q-11 5 -15 12t-4 14q0 6 1.5 12.5t3.5 12.5q1 3 1.5 5.5t1.5 4.5q-1 6 21.5 82.5t50.5 166.5l2 8t2 7q26 84 48.5 153.5t27.5 79.5v0z" />
    <glyph glyph-name="U" unicode="U" horiz-adv-x="630" 
d="M645 790l-1 -2q5 1 10 1h10q6 0 12.5 -0.5t13.5 -0.5q26 -3 49 -9t32 -12q0 -1 1 -1.5t1 -1.5q5 -7 7 -14t2 -14q0 -6 -1.5 -13t-3.5 -14q-1 -4 -2 -7.5t-2 -7.5l-54 -214l-80 -271q-24 -82 -87 -148t-165 -67q-12 0 -25 1.5t-27 3.5q-100 16 -146 83t-46 148q0 9 0.5 18
t1.5 19q1 9 2.5 18t3.5 18l94 403q1 6 2.5 11.5t2.5 9.5q9 38 25.5 55.5t70.5 16.5q20 0 30 -1.5t18 -3.5q5 -1 10.5 -2.5t13.5 -3.5q25 -6 34 -16.5t9 -23.5q0 -9 -2.5 -19.5t-6.5 -20.5q0 -1 -0.5 -2t-0.5 -2q-3 -7 -5.5 -13.5t-3.5 -13.5l-91 -374q0 -2 -0.5 -4.5
t-1.5 -4.5q-1 -7 -2.5 -14t-1.5 -14q-1 -3 -1 -6.5v-6.5q0 -20 9 -35.5t36 -16.5h0.5h0.5h0.5h0.5q34 0 50.5 24.5t25.5 53.5q3 10 5.5 19.5t4.5 18.5l93 353q5 19 8.5 34t6.5 28q9 29 20 42t40 16v0z" />
    <glyph glyph-name="V" unicode="V" horiz-adv-x="575" 
d="M396 426l1 -71q8 13 12.5 19.5t7.5 10.5q0 1 0.5 1.5l0.5 0.5q2 4 4.5 8.5t6.5 11.5t7.5 14.5t7.5 15.5q7 13 13.5 27.5t12.5 29.5q25 57 43.5 105.5t19.5 51.5q2 6 4.5 12t4.5 13q2 4 3.5 9t3.5 9q11 33 26 59.5t39 27.5h2h2q0 -1 1 -1h2q7 -1 13 -1.5t12 -0.5
q5 -1 11 -1.5t13 -1.5q14 -2 26.5 -5.5t23.5 -6.5q4 -2 7.5 -3t7.5 -2q14 -5 19.5 -12.5t5.5 -16.5q0 -7 -2.5 -15.5t-5.5 -17.5l-72 -185l-60 -125l-177 -301q-11 -20 -19.5 -35t-16.5 -25q-8 -11 -17.5 -16.5t-22.5 -5.5q-7 -1 -17 1t-21 5q-3 1 -5 1.5t-5 0.5
q-12 3 -23 5.5t-21 6.5q-8 3 -16 6.5t-17 7.5q-18 10 -23 34t-5 53v12.5v13.5v3t1 3v17v15l-1 10l-5 512v3.5v3.5v5v5q0 16 2.5 30.5t13.5 21.5q6 4 13.5 5t14.5 1q8 0 16 -0.5t15 -1.5l10 -2t8 -1q10 -1 27.5 -4t37.5 -8q3 -1 6.5 -2t6.5 -2q11 -4 19.5 -17t8.5 -32
l-12 -289v0z" />
    <glyph glyph-name="W" unicode="W" horiz-adv-x="909" 
d="M971 796l-1 1q4 0 8 -0.5t7 -1.5q14 -2 24.5 -4t21.5 -4q12 -4 24.5 -8.5t28.5 -11.5q11 -4 14.5 -10.5t3.5 -13.5q0 -2 -0.5 -4.5t-0.5 -4.5q-1 -5 -2.5 -9.5t-3.5 -8.5q-1 -2 -1.5 -4t-1.5 -4l-51 -130l-114 -244l-132 -260q-1 -1 -1.5 -2.5t-1.5 -2.5q-1 -3 -2 -5
t-2 -5q-12 -24 -27 -42t-46 -18h-6.5t-7.5 1q-8 0 -15.5 0.5t-14.5 1.5q-15 1 -28.5 3t-26.5 6t-22 14.5t-12 22.5q-1 3 -1.5 6t-0.5 6l4 363l-157 -325q-1 -3 -2.5 -6t-3.5 -6q-1 -3 -2 -5.5t-2 -5.5q-13 -28 -30 -51.5t-47 -23.5h-2h-3h-4h-5q-23 1 -42 3.5t-38 10.5
q-25 10 -31 34.5t-6 52.5v4v4l2 119l8 512q0 37 13.5 47.5t31.5 10.5q8 0 15.5 -0.5t14.5 -1.5q3 0 5.5 -0.5t5.5 -0.5q25 -3 48.5 -7.5t37.5 -9.5q14 -4 18 -16t4 -26v-6v-6q-1 -3 -1 -6v-6l-14 -316l148 340q10 23 27 42.5t43 19.5q32 0 58 -3t47 -8q17 -4 21.5 -19
t5.5 -32v-6v-6l-9 -345l154 353q0 1 0.5 1.5t0.5 1.5q10 23 24.5 42.5t41.5 19.5h5t6 -1v0z" />
    <glyph glyph-name="X" unicode="X" horiz-adv-x="651" 
d="M140 79l-2 -3l204 325l-89 253q-3 10 -6 18t-7 16q0 1 -0.5 2t-0.5 2q-5 11 -9 22.5t-8 25.5v0.5v1.5q-1 1 -1 1.5v1.5q0 3 0.5 6t2.5 6q5 13 21.5 23t45.5 9q13 0 25 -1.5t23 -4.5q4 0 7.5 -1t7.5 -2q8 -2 16 -3.5t17 -2.5q25 -4 32 -19t11 -33q1 -2 1 -3v-3
q1 -1 1.5 -2.5t0.5 -3.5l35 -133l93 168q1 2 2 3.5t2 3.5q5 7 11.5 13.5t13.5 11.5q5 4 10.5 6.5t9.5 2.5v0h1v0v0q20 -2 37.5 -4.5t34.5 -5.5q12 -3 23.5 -6t23.5 -7q14 -4 19.5 -10.5t6.5 -14.5q0 -4 -1.5 -8.5t-3.5 -8.5q-1 -3 -2.5 -5t-2.5 -4q-1 -3 -2.5 -5t-2.5 -4
l-196 -329l122 -304q1 -1 1.5 -2.5t0.5 -2.5v-3v-3q1 -10 -4.5 -20t-12.5 -19q-9 -10 -19.5 -14.5t-23.5 -4.5q-12 0 -24.5 2.5t-26.5 5.5q-29 7 -53.5 19.5t-32.5 40.5l-47 147l-73 -155q-10 -23 -31 -37.5t-47 -14.5h-12.5t-12.5 1q-22 1 -44.5 6t-47.5 16
q-11 5 -16.5 12.5t-5.5 16.5q0 5 1.5 9.5t3.5 8.5v0z" />
    <glyph glyph-name="Y" unicode="Y" horiz-adv-x="530" 
d="M692 659l-66 -128l-261 -512q-7 -15 -22 -22.5t-33 -8.5h-4t-4 1q-3 0 -5 0.5t-4 0.5q-7 1 -13.5 2.5t-12.5 2.5q-9 2 -17.5 3.5t-16.5 3.5q-10 3 -20.5 7t-21.5 9q-8 5 -11.5 11t-3.5 13q-1 9 2 18t7 16l96 191l-84 445q-1 3 -1.5 6.5t-0.5 7.5q-1 4 -1 7.5v6.5
q0 17 9.5 28.5t37.5 12.5h3.5h2.5q2 -1 3.5 -1h3.5q19 -1 35.5 -3t33.5 -5q9 -2 18.5 -4.5t19.5 -6.5q11 -4 17 -16.5t7 -26.5q1 -2 1 -3.5v-3.5l22 -209l103 212q11 24 27 44t45 20h3.5h3.5t3.5 -0.5t3.5 -0.5q5 -1 9.5 -1.5t8.5 -0.5q19 -2 35.5 -5.5t32.5 -11.5l8 -4
t8 -5q9 -6 12.5 -13.5t3.5 -15.5q0 -9 -3 -18t-8 -18q-1 -4 -2.5 -7l-3.5 -7q-2 -2 -3.5 -5t-2.5 -6v0z" />
    <glyph glyph-name="Z" unicode="Z" horiz-adv-x="528" 
d="M619 540l-302 -385h168h6t6 1h6h6q12 0 21 -4.5t9 -21.5v-2v-3q0 -11 -3 -23.5t-7 -25.5q-4 -12 -8.5 -23.5t-9.5 -21.5q-10 -20 -29.5 -25.5t-42.5 -5.5h-241h-4.5t-5.5 1q-19 1 -35.5 9.5t-21.5 21.5q-4 11 -8 20t-7 18q-4 11 -7.5 23t-6.5 27q0 2 -0.5 3t-0.5 3v2.5
v2.5q-1 14 6 26t15 22q1 2 2 3.5t2 2.5l325 419h-191h-4.5h-5.5q-1 -1 -2 -1h-2h-3.5h-3.5q-13 0 -23 4t-11 17v4t1 4q4 24 11.5 46t15.5 40q4 11 8 20t8 17q8 16 24 20.5t34 4.5h5.5h5.5h1.5h1.5h251q21 0 36.5 -15t20.5 -36q5 -16 8.5 -29.5t7.5 -25.5l6 -26t6 -30
q1 -3 1 -6v-5q0 -16 -6.5 -27t-15.5 -21q-2 -1 -3.5 -3t-3.5 -4q-3 -3 -5.5 -6t-4.5 -6v0z" />
    <glyph glyph-name="bracketleft" unicode="[" horiz-adv-x="331" 
d="M287 861l219 -1l-16 -57h-136l-83 -310l-136 -511h141l-15 -57h-225l114 424l137 512v0z" />
    <glyph glyph-name="backslash" unicode="\" horiz-adv-x="528" 
d="M416 36h3l-43 186l-116 512q0 1 -1 2t-2 3l-0.5 0.5l-0.5 0.5l-1.5 1.5t-0.5 1.5v1.5v1.5v2v2q1 9 9.5 17t17.5 11q4 2 7.5 2.5t7.5 0.5h2h2q7 -1 14 -3.5t10 -6.5q3 -3 4 -6.5t2 -7.5l44 -180l124 -512v-2t1 -2v-2v-2q1 -3 1.5 -5t1.5 -4q1 -1 1.5 -2t0.5 -2l2.5 -5
t1.5 -7q0 -2 -0.5 -5t-1.5 -5q-3 -6 -8.5 -11t-16.5 -9q-6 -2 -12 -3t-12 -1q-12 0 -21.5 4.5t-14.5 14.5q-1 4 -2.5 9t-2.5 10v0z" />
    <glyph glyph-name="bracketright" unicode="]" horiz-adv-x="335" 
d="M268 -72h-218l15 57h136l83 307l136 512h-141l15 57h226l-115 -422l-137 -511v0z" />
    <glyph glyph-name="asciicircum" unicode="^" horiz-adv-x="385" 
d="M422 798l-2 -1q11 5 20.5 -7t17.5 -27q1 -4 3 -7t3 -6q2 -2 3.5 -4.5t2.5 -4.5l53 -77q1 -2 2 -5l2 -6t1.5 -5t0.5 -4v-0.5v-1.5t-0.5 -1.5l-0.5 -0.5q-1 -3 -3.5 -6t-5.5 -5q-5 -5 -12 -10t-14 -9q-11 -6 -20.5 -9t-13.5 0q-6 2 -9 6.5t-5 10.5q0 1 -0.5 2.5t-1.5 2.5
l-52 75l-95 -78l-3.5 -3.5t-2.5 -3.5q-5 -5 -10.5 -9t-12.5 -6q-1 -1 -2 -1h-3q-3 0 -6.5 1t-7.5 3q-7 4 -14 11t-10 14q-1 3 -2 5.5t-1 5.5q0 2 2 5.5t5 8.5q2 2 4.5 4t4.5 4q0 1 0.5 1.5t1.5 0.5l111 86q2 2 4.5 4t4.5 4q6 4 11 8.5t10 8.5q11 8 22 15t20 11v0z" />
    <glyph glyph-name="underscore" unicode="_" horiz-adv-x="729" 
d="M5 -175v16h240h512v-16h-240h-512v0z" />
    <glyph glyph-name="grave" unicode="`" horiz-adv-x="289" 
d="M342 762l68 -74q2 -2 3.5 -4t3.5 -4v0v0q4 -5 7.5 -9t5.5 -5q4 -3 5.5 -7.5t1.5 -10.5q0 -4 -1 -9l-2 -10q-5 -14 -15 -26t-22 -13h-2h-1q-1 0 -2 0.5t-2 0.5q-2 1 -3.5 1t-2.5 1l-10.5 3.5t-9.5 4.5q-2 1 -4 2.5t-4 2.5l-72 49l-6 4t-5 4q-13 8 -23 17t-10 19v1.5v1.5
q1 6 6 17.5t13 24.5q3 6 7 12l8 12q6 9 12.5 15.5t11.5 7.5q1 0 2 0.5t2 0.5h2h2q9 0 14.5 -5t10.5 -12l1.5 -1.5l1.5 -1.5q2 -3 4 -5.5t4 -4.5v0z" />
    <glyph glyph-name="a" unicode="a" horiz-adv-x="588" 
d="M614 177v1q0 -18 -1 -32t-3 -28q-1 -10 -2 -19t-2 -20q0 -6 -0.5 -13t-1.5 -15q-4 -37 -24.5 -46.5t-46.5 -9.5h-7.5h-6.5q-4 1 -7.5 1h-6.5q-5 0 -9.5 0.5t-9.5 1.5q-27 3 -49.5 15t-22.5 36v0.5v1.5v1.5v0.5q1 14 2 35t1 43q1 36 1.5 66.5l0.5 30.5q-2 -1 -4 -2.5
t-4 -3.5q-2 -1 -3.5 -2.5l-2.5 -2.5q-3 -3 -5.5 -5t-4.5 -4l-4 -4l-4 -4l-4.5 -4.5l-4.5 -4.5q-2 -1 -4 -1.5t-3 -1.5q-1 0 -1.5 -0.5t-1.5 -0.5q-4 -2 -7.5 -3t-8.5 -1h-7.5h-6.5h-9h-8t-7 0.5t-7 0.5l-12.5 -26t-27.5 -58q0 -1 -0.5 -2t-1.5 -2q-12 -25 -23 -46.5
t-16 -29.5q-9 -13 -21.5 -18t-26.5 -5h-4.5h-4.5q-9 1 -18 3l-18 4q-4 2 -7.5 3t-6.5 2q-2 1 -4.5 1.5t-5.5 1.5q-23 9 -42.5 23t-19.5 39q0 5 1 9.5t2 9.5q2 6 6.5 17.5t10.5 24.5q0 1 0.5 2l0.5 1q7 17 13 30l6 13q-1 1 -2.5 1.5t-2.5 0.5q-1 1 -2 1.5t-2 0.5q-2 2 -4 4.5
t-5 7.5q-1 3 -2 7.5t-1 8.5q0 7 1.5 15.5t3.5 17.5q1 6 2.5 12t3.5 12q3 10 6 18t4 12q1 2 1.5 4t1.5 3q9 25 20.5 46t38.5 28q4 1 8.5 1.5t8.5 0.5q5 0 9 -0.5t7 -0.5t5 -0.5l2 -0.5l29.5 54t64.5 119q33 60 61 111.5t32 58.5q5 9 10 16t9 14q13 16 27 24t34 8h2.5h1.5
q13 0 29.5 -2t32.5 -5q37 -8 68.5 -25t33.5 -47q1 -10 1 -32.5v-54.5q0 -44 -0.5 -100.5t-1.5 -115.5q-1 -63 -3.5 -123t-5.5 -104v0zM400 382l-1 1q3 -3 7.5 -5t9.5 -2q1 -1 3 -1h3q5 0 9.5 1.5t8.5 4.5l14 137l-9 -17t-19 -39q-1 -3 -2.5 -6.5t-3.5 -6.5q-8 -19 -15 -36
t-7 -26q0 -1 0.5 -2.5t1.5 -2.5v0z" />
    <glyph glyph-name="b" unicode="b" horiz-adv-x="628" 
d="M595 373l-2 1l17 -25q6 -10 12 -18t11 -15q8 -13 13.5 -28t5.5 -38v-4v-4q-1 -2 -1 -4v-4q-7 -121 -110 -180t-234 -60h-6h-7q-3 1 -6.5 1h-6.5q-41 1 -67.5 19.5t-50.5 48.5q-8 11 -17 23.5t-18 25.5q-5 8 -7.5 17t-2.5 19q0 5 0.5 10.5t1.5 10.5q1 10 3.5 20t5.5 20
q3 9 5.5 17t4.5 14l101 308l-13 5q-1 0 -1.5 0.5l-0.5 0.5h-1.5h-1.5q-6 0 -11.5 -2.5t-11.5 -6.5q-3 -1 -5.5 -2.5t-5.5 -2.5q-4 -1 -7.5 -2t-6.5 -1q-11 0 -15 8.5t-5 19.5v4v4v7v5l30 102q13 47 65 68t200 34h4t4 1h4.5h4.5q20 0 41.5 -3.5t43.5 -10.5q67 -21 123 -72.5
t55 -127.5q0 -53 -22.5 -93t-49.5 -66q-18 -18 -35 -29t-27 -15v0zM413 185h-1q15 10 27 24.5t12 32.5v4t-1 4q-2 14 -11 24t-20 16q-9 4 -11.5 14t-2.5 20v3.5v3.5v1.5v1.5q-1 12 -5.5 16t-9.5 7h-0.5h-0.5q-2 1 -3.5 2t-3.5 2l-57 -191q8 -2 15.5 -3.5t14.5 -1.5
q15 0 30 5t28 15v0zM434 535h-1q-1 -5 -3.5 -18.5t-6.5 -29.5t-9.5 -30.5t-12.5 -18.5l78 33q4 2 8.5 6t9.5 9q10 11 18 26t9 31v2v2v0.5v1.5q-1 24 -30 39t-63 17h-5.5h-5.5q-10 0 -19.5 -1.5t-18.5 -3.5q-6 -2 -11 -4t-10 -5q-4 -1 -7 -3.5t-7 -4.5q6 1 17.5 -2.5
t24.5 -9.5l16 -8t14 -9q7 -5 11.5 -10t3.5 -9v0z" />
    <glyph glyph-name="c" unicode="c" horiz-adv-x="585" 
d="M375 446l-1 -2q-3 -7 -8 -24.5t-10 -38.5q-2 -9 -4 -17.5t-4 -17.5q-6 -30 -10.5 -57t-4.5 -39v-1.5v-1.5q1 -20 9.5 -32t20.5 -13q8 0 17 5.5t18 17.5q1 2 2 3.5t2 2.5q6 9 10.5 17.5t8.5 17.5q11 22 28.5 38.5t69.5 19.5h5.5t4.5 1h4.5h5.5q34 0 54.5 -10.5t20.5 -40.5
q0 -8 -1.5 -18t-5.5 -22t-8 -23.5t-9 -23.5q-33 -76 -97 -138.5t-158 -62.5q-13 0 -27.5 1.5t-28.5 4.5q-6 1 -12.5 3t-12.5 4q-45 17 -82.5 73.5t-37.5 164.5v9.5v9.5q9 248 124.5 398.5t262.5 150.5h2h2h1h2q98 -2 134 -52t36 -119q0 -40 -11 -73t-46 -53q-10 -6 -30 -10
t-43 -4q-27 0 -49.5 8t-21.5 28q0 6 1.5 13.5t4.5 15.5v1v1q2 7 3.5 14.5t1.5 13.5q0 9 -4.5 14.5t-15.5 5.5h-8t-9 -2q-5 -1 -10.5 -5t-10.5 -10q-11 -12 -21.5 -30t-19.5 -37q-12 -26 -21 -48.5t-13 -30.5v0z" />
    <glyph glyph-name="d" unicode="d" horiz-adv-x="633" 
d="M191 410l57 166h-1.5h-0.5h-1.5h-1.5q-11 0 -19.5 -3t-16.5 -6q-1 0 -1.5 -0.5l-1.5 -1.5l-6 -2l-6 -2h-3.5h-3.5q-6 2 -11.5 6.5t-5.5 9.5v2v3q-1 1 -1 2v2q0 16 5 33l10 34q3 7 5.5 14.5t4.5 15.5q1 4 2 7.5t2 7.5q12 40 34.5 60t98.5 30l18 2l18 2q8 0 17 0.5t18 0.5
q134 0 241 -73.5t108 -244.5v-6v-6q-2 -154 -108.5 -278t-233.5 -168q-27 -9 -53 -13.5t-52 -5.5h-8h-8q-13 0 -23.5 1t-20.5 6q-17 8 -35.5 27.5t-46.5 57.5q-5 7 -9.5 13.5t-8.5 12.5q-5 8 -8 17t-3 22q0 11 2.5 24.5t6.5 32.5l51 198v0zM431 535q-1 -6 -15 -57t-30 -111
q-18 -61 -32 -112l-14 -51q3 0 6 0.5t6 0.5q69 11 127.5 78t64.5 153q1 5 1 10.5v10.5q0 45 -19.5 82.5t-72.5 58.5l-6 2l-6 2q-1 1 -1.5 1h-1.5q-10 4 -21.5 7t-28.5 4h-3h-3q-2 -1 -3.5 -1h-3.5l-30 -2q33 -18 52 -29.5t28 -21.5q3 -4 5 -8.5t2 -9.5v-1.5v-1.5
q-1 -1 -1 -2v-2v0z" />
    <glyph glyph-name="e" unicode="e" horiz-adv-x="581" 
d="M639 583l-259 11v-1.5v-0.5v-1.5v-1.5q0 -12 6.5 -18t15.5 -11q1 0 2.5 -1t2.5 -1q6 -3 10.5 -6.5t5.5 -8.5q0 -1 0.5 -3t0.5 -3v-3.5v-3.5v-2.5v-3.5q0 -5 -0.5 -10t-1.5 -9q0 -3 -0.5 -5.5t-0.5 -4.5q-1 -7 -1.5 -13.5t-0.5 -13.5l25.5 -0.5t57.5 -1.5h5h5
q30 -1 56 -1.5t34 -0.5q12 0 20.5 -11t8.5 -25v-1.5v-1.5q-1 -10 -7 -34t-16 -51q-4 -11 -8.5 -21t-9.5 -19q0 -1 -0.5 -1.5l-0.5 -0.5q-5 -9 -14.5 -15.5t-43.5 -7.5h-3.5h-4.5q-14 0 -35 0.5t-43 1.5q-7 1 -13.5 1t-13.5 1q-28 1 -48.5 2l-20.5 1l-22 -107h131h10h10h5h5
h1.5h1.5q25 1 45.5 -5t20.5 -29v-0.5v-1.5v-1.5v-0.5q-1 -17 -3 -32t-5 -29q-3 -11 -7 -22.5t-9 -23.5q-10 -25 -25 -31t-33 -6h-7h-8q-1 1 -2 1h-3h-4.5h-5.5q-20 1 -38.5 1h-35.5h-35.5t-31.5 -1h-26h-23q-42 0 -62 6.5t-36 31.5q-1 1 -1.5 2.5t-1.5 2.5q-6 10 -11.5 19.5
t-10.5 18.5q-6 12 -10.5 23.5t-5.5 25.5q0 7 0.5 12t1.5 10q1 3 1.5 5.5t0.5 5.5l32 119q-2 1 -4 1.5t-4 0.5q-9 3 -17.5 8.5t-10.5 19.5v2v2v2v2v2.5v3.5q1 12 2.5 23.5t4.5 20.5q1 4 1.5 7t1.5 5q1 6 3 11.5t4 11.5q3 11 7.5 21t8.5 19q5 10 9.5 16.5t8.5 7.5q6 2 11 3.5
t10 2.5h3.5h3.5q4 0 8 -0.5t8 -1.5l40 124l-40 -2q-13 0 -20.5 10t-7.5 22v0.5v1.5v1.5v0.5q4 16 11.5 39.5t14.5 49.5q2 4 3 7.5t2 7.5q1 3 1.5 5.5t1.5 4.5q9 27 24.5 40.5t66.5 13.5l329 1q46 0 64 -9.5t21 -21.5q1 -3 1.5 -5.5t0.5 -4.5q0 -3 -0.5 -6.5t-1.5 -6.5
q0 -1 -0.5 -2t-0.5 -2q-1 -2 -1.5 -4.5t-0.5 -4.5q-3 -12 -5.5 -25.5t-6.5 -27.5q-8 -34 -23 -63t-45 -28v0z" />
    <glyph glyph-name="f" unicode="f" horiz-adv-x="547" 
d="M130 81h1q3 10 6 18.5t5 16.5q1 1 1 2.5t1 2.5q2 7 4 14.5t5 15.5l39 130q-3 0 -8.5 1t-11.5 4q-8 4 -15 10t-8 15v0.5v0.5v0.5v0.5q0 9 5 29t12 43q3 7 5.5 14.5t4.5 14.5q7 19 13.5 33t10.5 15q7 3 13.5 4.5t12.5 2.5h4h4q4 0 8.5 -0.5t8.5 -1.5l39 129h-53
q-13 0 -19 6t-6 19v1.5v1.5q1 16 5.5 38.5t11.5 46.5q1 3 2.5 6.5t2.5 7.5l2 6t2 5q9 25 22.5 39t49.5 14h235q45 0 77 -3.5t52 -8.5q14 -3 22.5 -5.5t12.5 -4.5q5 -2 7 -9.5t2 -18.5q0 -12 -2.5 -28t-6.5 -33q-7 -24 -16.5 -46t-19.5 -33q-5 -5 -9 -7.5t-8 -2.5l-252 11
l21 -18q2 -2 5 -4l6 -4q2 -1 4.5 -2.5t5.5 -3.5q10 -6 18.5 -13t9.5 -18v-2.5v-2.5q-1 -7 -3.5 -13.5t-4.5 -12.5q-3 -6 -5 -11.5t-3 -8.5v-0.5v-0.5v-0.5v-0.5q0 -3 1 -5.5t2 -4.5l0.5 -1l0.5 -1q1 -1 1.5 -2t0.5 -2h15t35 1h5.5h5.5h33h23q5 0 12 -0.5t14 -1.5
q13 -3 23 -9.5t11 -19.5v0v0v-1v0q0 -11 -6.5 -36t-15.5 -53q-4 -11 -8 -21l-8 -20q-1 -2 -2 -4.5t-2 -5.5q-4 -6 -12.5 -11.5t-26.5 -5.5h-8t-9 1q-7 0 -28.5 0.5t-45.5 0.5h-52h-24l-11.5 -40.5t-24.5 -88.5q-9 -31 -17 -59.5t-13 -46.5q-7 -24 -21 -33t-31 -9q-7 0 -14 1
l-14 2q-6 2 -13 3.5t-13 3.5q-9 3 -17 5.5t-15 3.5q-28 5 -45 15.5t-17 27.5q0 4 1 8l2 8v0z" />
    <glyph glyph-name="g" unicode="g" horiz-adv-x="660" 
d="M519 801l3 1q5 1 10 1h10q16 0 33 -2t34 -7q57 -15 104.5 -58.5t47.5 -124.5q0 -10 -0.5 -19.5t-2.5 -20.5q-3 -22 -22 -35t-40 -19q-13 -3 -24.5 -4.5t-20.5 -1.5q-2 0 -7 -0.5t-12 -1.5q-6 -1 -14 -1.5t-17 -0.5h-2.5h-2.5q-21 1 -39 7.5t-17 26.5v6t1 7v6.5v6.5v1.5
v1.5q0 16 -6 30t-26 14q-4 0 -9.5 -1t-12.5 -3q-34 -10 -65 -59t-57 -113q-5 -12 -9 -25t-7 -25q-9 -36 -12 -70t-3 -58v-11.5t1 -10.5v-7.5v-6.5q2 -21 16.5 -32t32.5 -12q11 0 22 4t18 13q16 17 19.5 30.5t3.5 20.5q-1 -1 -3.5 -1h-5.5h-6t-6 1h-2h-2h-4h-4h-2h-2
q-7 1 -12.5 7t-5.5 20q0 4 0.5 9t1.5 10q3 15 5 28.5t4 24.5q6 41 21.5 59.5t73.5 23.5q6 1 12 1.5t11 0.5q41 4 78.5 7.5t67.5 3.5q38 0 61.5 -8t23.5 -29v-2.5v-3.5q-1 -8 -2.5 -17t-3.5 -18q-7 -33 -20.5 -61t-36.5 -29l-14 -1l-4 -13l-3 -10.5t-1 -6.5v-0.5v-0.5
q-1 -5 -4 -14t-15 -40q-6 -15 -14.5 -31.5t-19.5 -33.5q-34 -51 -93.5 -92.5t-147.5 -41.5q-11 0 -23 0.5t-24 2.5t-25.5 5t-27.5 9q-22 8 -42 22.5t-35 34.5q-14 18 -24 35.5t-18 34.5q-12 26 -17 54t-5 60q0 10 0.5 21t1.5 22q1 23 5 47t9 48q8 36 19 71.5t23 65.5
q9 23 17.5 42.5t15.5 32.5q50 92 116.5 142.5t179.5 60.5v0z" />
    <glyph glyph-name="h" unicode="h" horiz-adv-x="628" 
d="M196 474l70 241q1 4 2.5 8.5t3.5 9.5l2 4t2 5q3 7 6 13.5t5 8.5q8 14 19.5 19t25.5 5h4h4q2 -1 4 -1h4q8 -1 22.5 -4t31.5 -9q22 -8 40.5 -22.5t18.5 -36.5v-3.5t-1 -2.5q-1 -8 -5 -18t-10 -32l-56 -186h125l67 243q3 11 5.5 18.5l4.5 13.5q2 5 3.5 10t3.5 11
q2 8 14.5 11.5t28.5 3.5q6 0 12 -0.5t12 -0.5q9 -1 18 -3t17 -4q2 -1 4.5 -1.5t4.5 -0.5q24 -7 45 -17t25 -35v-3v-4q0 -7 -1 -14.5t-3 -15.5l-14 -47l-143 -512q-2 -7 -3.5 -14t-2.5 -13q-1 -8 -3 -16t-5 -16q-2 -5 -5 -10.5t-7 -10.5l-4 -6l-4 -6q-11 -15 -23.5 -26
t-32.5 -11q-16 0 -29 0.5t-25 2.5q-11 0 -23 3t-27 7q-11 3 -15.5 13.5t-4.5 23.5q0 7 1 13.5t2 12.5l64 213l13 59l-33 -39q-1 -1 -2.5 -3.5t-2.5 -4.5l-0.5 -0.5l-0.5 -0.5q-1 -2 -2.5 -4t-2.5 -3q0 -1 -0.5 -1.5l-1.5 -1.5q-6 -7 -18.5 -13.5t-40.5 -6.5q-10 0 -22.5 1
t-27.5 3l-53 -212q-1 -9 -4.5 -17.5t-8.5 -15.5q-2 -3 -4 -5.5t-3 -4.5q-3 -6 -10 -9t-32 -4h-0.5h-1.5h-1.5h-0.5q-8 0 -16.5 0.5t-16.5 1.5q-32 4 -60 12.5t-33 19.5q-2 5 -3 9.5t-1 8.5t0.5 7.5t1.5 7.5l51 198l-13 7q-1 0 -3 1t-3 1q-4 2 -8 5t-5 7q-2 4 -3 10t-1 13
q-1 11 1 24t5 26l2 8l2 8l4 14t3 13q8 27 18.5 45.5t36.5 20.5l27 3v0z" />
    <glyph glyph-name="i" unicode="i" horiz-adv-x="372" 
d="M308 765l-2 -2q2 10 23.5 16.5t47.5 6.5h1.5h1.5q9 0 18 -0.5t16 -2.5q3 -1 6.5 -1.5t6.5 -1.5q27 -6 49.5 -16.5t25.5 -36.5v-0.5v-1.5v-1.5v-0.5q0 -8 -2.5 -14.5t-4.5 -12.5l-1 -1v0q-1 -4 -2.5 -7t-2.5 -7q-15 -55 -35 -131t-41 -157q-1 -2 -1.5 -4.5t-1.5 -4.5
q-35 -134 -65.5 -245t-36.5 -123q-8 -15 -23 -20.5t-33 -5.5q-8 0 -16 1t-17 2q-5 1 -11 2.5t-11 2.5q-1 0 -2 0.5t-2 0.5q-26 5 -49 15t-30 38q-1 5 -1.5 10t-0.5 10q0 15 3.5 32.5t9.5 35.5q1 5 3 11l4 12q2 16 28.5 105t58.5 194l0.5 1t0.5 2q1 3 1.5 5.5t1.5 4.5
q31 103 57 189.5t28 100.5v0z" />
    <glyph glyph-name="j" unicode="j" horiz-adv-x="555" 
d="M75 213l2 -5q1 10 3.5 22t4.5 24q3 11 5.5 20.5t5.5 18.5q2 9 5 17t5 13q1 3 3 6t4 7q6 8 18.5 15t36.5 7h5h6h7t8 -1h16t17 -1q23 -2 42 -9.5t19 -28.5v-1.5v-0.5q0 -14 -3.5 -25.5t-7.5 -21.5q-3 -8 -6 -14.5t-4 -12.5q-1 -3 -1.5 -6.5t-1.5 -6.5q-2 -8 -3.5 -15.5
t-1.5 -14.5q0 -11 6 -20t22 -13q1 0 2 -0.5t2 -0.5h2h2q19 -1 29.5 17.5t16.5 41.5q2 6 3.5 12t2.5 12l117 441q1 4 2 8.5t2 9.5q1 2 1.5 4t1.5 5q3 11 5.5 21l3.5 14q7 16 24.5 23t36.5 7h0.5h1.5h1.5h0.5q8 -1 25.5 -2.5t37.5 -5.5q25 -6 46 -18t21 -34q0 -7 -1.5 -13
t-3.5 -12q0 -1 -0.5 -1.5t-0.5 -1.5q-1 -4 -1.5 -7t-1.5 -7l-91 -344q-10 -39 -18 -71t-15 -58q-15 -52 -33.5 -87.5t-55.5 -67.5q-3 -3 -6 -5.5t-7 -5.5q-36 -29 -74 -37.5t-85 -9.5h-2.5h-2.5q-15 0 -31 2t-33 6q-37 10 -71.5 33t-52.5 62q-5 12 -8.5 23t-4.5 22
q-1 7 -1.5 14.5t-0.5 14.5q0 10 0.5 21t1.5 22v0z" />
    <glyph glyph-name="k" unicode="k" horiz-adv-x="626" 
d="M316 242l-39 -186q-1 -3 -1.5 -6.5t-1.5 -6.5q-3 -11 -7.5 -21t-14.5 -14q-1 -1 -4 -1h-6q-7 0 -17.5 1t-20.5 3q-4 1 -7 1.5t-7 1.5q-9 2 -17 3.5t-13 2.5q-6 1 -12.5 2.5t-12.5 3.5q-21 5 -38.5 14t-17.5 22v2.5v1.5q1 7 2.5 12.5t2.5 10.5l0.5 0.5t0.5 1.5q1 3 1.5 6
t1.5 6l31 112l139 512q5 15 10 29.5t12 24.5q3 4 12.5 6.5t19.5 2.5h7t6 -1h0.5h1.5q7 -1 25.5 -2t39.5 -5q26 -5 47.5 -15.5t21.5 -30.5q0 -7 -1 -14t-3 -14q-1 -4 -2 -7t-2 -7l-64 -202l17 1q7 1 16.5 6t19.5 12q4 2 7.5 5t7.5 6q8 6 14.5 11.5t11.5 9.5q54 46 81 96.5
t47 107.5q5 14 18 24.5t28 10.5h3t3 -1q1 0 2.5 -0.5t2.5 -0.5q10 -3 21.5 -6t24.5 -7q27 -9 50 -21.5t24 -32.5q0 -3 -0.5 -6.5t-2.5 -7.5q-5 -12 -9.5 -23t-9.5 -22q-3 -9 -6.5 -17t-6.5 -16l-16.5 -33t-19.5 -35q-28 -46 -61 -86.5t-67 -68.5q-17 -15 -34 -26t-33 -18
l-59 -26q35 -48 51 -71t26 -41q1 -2 2 -3.5t2 -3.5q6 -11 12.5 -23t16.5 -30q4 -8 8.5 -16t9.5 -16q0 -2 1 -3.5t2 -3.5q17 -31 30.5 -58.5t14.5 -37.5v-0.5v-0.5v-0.5v-0.5q0 -12 -13 -21t-28 -17q-1 -1 -1.5 -1t-1.5 -1q-5 -2 -9.5 -4.5t-8.5 -5.5q-7 -4 -14.5 -8
t-14.5 -8q-15 -6 -28.5 -10.5t-21.5 -4.5h-2.5h-2.5q-10 1 -16.5 7.5t-10.5 14.5l-150 282v0z" />
    <glyph glyph-name="l" unicode="l" horiz-adv-x="488" 
d="M419 595l-115 -398l167 4h13h12h3.5h3.5h3h3v0h1v0v0q10 0 18 -7.5t11 -17.5q0 -1 0.5 -2.5t0.5 -3.5v-1.5v-0.5q-1 -1 -1 -1.5v-1.5q-10 -42 -21.5 -79t-25.5 -60q-7 -13 -19.5 -16.5t-29.5 -3.5h-10.5t-10.5 1h-11.5h-10.5h-141q-36 0 -48.5 3t-20.5 12q-4 3 -7.5 8
t-9.5 11q-5 5 -12 14t-14 20q-2 4 -4.5 8t-5.5 7q-6 11 -11.5 21t-8.5 18q-4 13 -6 22.5t-2 17.5v3.5v3.5q1 9 3 18t5 20l1 2l136 512q1 4 1.5 7.5t1.5 6.5q1 5 3 10.5t6 12.5q5 9 13.5 12t18.5 4h4h4q7 0 15 -1t15 -2q14 -2 27 -5t25 -5q18 -5 32 -9t18 -5q8 -2 11 -9.5
t3 -18.5q0 -13 -3.5 -29.5t-8.5 -33.5q-1 -5 -3 -10t-3 -10q-4 -14 -8 -26t-7 -22v0z" />
    <glyph glyph-name="m" unicode="m" horiz-adv-x="872" 
d="M947 654l-3 -18l-62 -512l-2 -16t-2 -15q-2 -8 -3 -16t-3 -16q-5 -24 -19.5 -36t-30.5 -16q-9 -2 -16.5 -2.5t-14.5 -0.5h-7h-6q-5 0 -19.5 1.5t-30.5 5.5q-20 5 -36 13.5t-16 21.5q0 14 5.5 49.5t11.5 76.5q1 4 1.5 8t0.5 8q2 12 3.5 23.5t3.5 22.5q1 10 3 22t3 24
q1 1 1 2v2q5 31 8.5 56.5l3.5 25.5l-158 -271q-1 -3 -2.5 -5t-2.5 -5q-4 -6 -7.5 -12.5t-8.5 -12.5q-2 -3 -4 -5.5t-4 -5.5q-5 -7 -9.5 -13t-8.5 -10q-10 -11 -21 -16.5t-33 -5.5h-6h-6h-4.5t-4.5 1q-17 1 -33.5 5.5t-29.5 9.5q-8 4 -14.5 7t-10.5 5q-7 5 -10 20.5t-3 37.5
q0 12 0.5 25t1.5 26v5.5v5.5q1 14 1 28v27l-4 155l-8 -24.5t-18 -54.5q-1 -2 -1.5 -3.5t-0.5 -2.5q-6 -18 -11.5 -35t-8.5 -29q-5 -17 -8.5 -31t-6.5 -28l-2 -6t-1 -5l-10 -34t-12 -37q-1 -3 -2 -6.5t-2 -6.5q-2 -8 -4.5 -15.5t-6.5 -12.5q-10 -19 -29.5 -22t-40.5 -3
q-7 0 -14.5 0.5t-15.5 1.5q-27 4 -49 16.5t-22 35.5q0 4 0.5 8t1.5 8t2 9t2 11q1 4 1.5 8t1.5 8q1 5 2 9l2 8q10 47 20.5 84t22.5 72q10 31 21.5 64.5t24.5 74.5l21 63t25 73q1 4 2.5 7t2.5 6q21 62 40 113.5t23 60.5q8 17 26.5 26.5t39.5 9.5h2.5h1.5q10 -1 30.5 -3
t42.5 -7q30 -6 55.5 -21.5t25.5 -44.5v-0.5v-1.5q0 -5 2 -57t4 -113v-2.5v-2.5q2 -62 4 -113.5l2 -51.5l27 49t60 107q1 1 1.5 2t0.5 2q6 11 12 21.5t12 20.5q7 12 13.5 23.5t12.5 23.5q2 3 3.5 6.5t3.5 6.5q13 23 27 46.5t32 49.5q1 1 1.5 2.5t1.5 3.5q4 8 9 15.5t13 13.5
q13 11 27 16t30 5h3.5h3.5t3.5 -0.5t3.5 -0.5q9 -1 26.5 -2.5t36.5 -6.5q21 -5 40.5 -15.5t26.5 -28.5q2 -7 3.5 -13t1.5 -12q0 -4 -0.5 -8t-0.5 -8q-1 -2 -1.5 -4.5t-0.5 -5.5q-1 -5 -2 -10.5t-1 -11.5v0z" />
    <glyph glyph-name="n" unicode="n" horiz-adv-x="684" 
d="M647 23l-1 -1q-2 -10 -17.5 -14.5t-38.5 -4.5q-12 0 -24.5 1t-25.5 3q-29 5 -55.5 14.5t-40.5 22.5q-6 5 -11 31t-10 57q-2 10 -3.5 20.5t-2.5 19.5l-41 252l-102 -373q-2 -8 -4 -15t-4 -12q-6 -15 -13.5 -18t-21.5 -3h-11t-14 -1h-2.5h-2.5q-2 -1 -3.5 -1h-3.5
q-9 0 -21.5 1t-25.5 4q-25 5 -45.5 16t-21.5 31q0 7 0.5 13t1.5 11q0 4 1 8l2 8l36 121l148 512v1.5t1 1.5q4 19 15.5 34.5t32.5 15.5h3.5h3.5q1 0 3 -0.5t3 -0.5q3 -1 6 -1.5t6 -0.5q7 -1 13 -2.5t13 -2.5q32 -6 62.5 -17.5t50.5 -36.5q14 -18 23.5 -45.5t17.5 -60.5
q2 -11 5 -22l6 -22q2 -7 3.5 -13t3.5 -12q3 -12 6 -22.5t6 -20.5v-0.5t1 -1.5q3 -10 6 -21t6 -24l15 72q3 16 10.5 47.5t15.5 66.5q1 4 2 7t1 7q7 28 14 54t11 41q1 2 2 4.5t3 5.5q4 8 12 15t18 7q1 1 1.5 0.5t1.5 -0.5h1.5h0.5q4 0 26 -3t48 -10q27 -8 50.5 -21.5
t23.5 -34.5q0 -7 -1 -14t-3 -13q-1 -3 -1.5 -5.5t-1.5 -5.5l-2 -8t-2 -9q-7 -33 -19 -82t-26 -101q-3 -11 -6.5 -22.5t-6.5 -23.5q-4 -13 -7.5 -26t-7.5 -25q-5 -18 -18.5 -60.5t-28.5 -89.5q-18 -59 -33.5 -108t-15.5 -53v-1.5v-1.5q0 -5 0.5 -9.5t1.5 -7.5q0 -2 0.5 -4
t0.5 -4q1 -2 1 -3.5v-3.5v-2.5v-3.5v0z" />
    <glyph glyph-name="o" unicode="o" horiz-adv-x="647" 
d="M551 762h-1v-52l43 36q5 4 10.5 8.5t11.5 9.5q9 8 19 14.5t20 10.5q4 1 7.5 1.5t6.5 0.5q7 0 13.5 -2.5t12.5 -9.5q41 -43 50 -94.5t12 -113.5v-4.5v-4.5v-6t1 -6v-5.5v-5.5q0 -32 -3.5 -65.5t-10.5 -67.5q-33 -160 -131.5 -293t-231.5 -133q-22 0 -44.5 4.5t-45.5 13.5
q-94 38 -125.5 108t-31.5 169q0 193 114.5 354t253.5 174h2.5t2.5 1h2.5h2.5q24 0 32 -12.5t8 -29.5v0zM497 311l2 -1q8 22 15 40t12 35q5 19 8.5 39t5.5 44q2 23 2.5 39.5t0.5 28.5q0 13 -1 22.5t-2 17.5q-2 10 -4.5 21.5t-5.5 27.5l-31 -25q-7 -6 -12.5 -9.5t-10.5 -6.5
l-1.5 -1.5l-1.5 -1.5q-7 -4 -14 -10.5t-17 -19.5q-9 -11 -20.5 -27t-23.5 -36q-22 -38 -40.5 -90t-20.5 -113v-0.5v-1.5v-1.5v-0.5q0 -7 0.5 -14t1.5 -14q3 -24 14.5 -44t33.5 -21v0h1v0v0q22 0 43 21t37 46q10 16 17.5 31t11.5 25v0z" />
    <glyph glyph-name="p" unicode="p" horiz-adv-x="593" 
d="M263 538l2 1q-4 2 -6 3.5t-4 2.5q-2 2 -5 2.5t-12 -1.5q-5 0 -11 -2.5t-13 -5.5q-3 -2 -5.5 -3t-5.5 -2q-5 -2 -9.5 -3t-9.5 -1q-11 0 -17.5 9.5t-9.5 21.5q0 3 -0.5 5.5t-0.5 5.5v1.5v1.5v0.5v1.5q2 12 5 24.5t6 25.5q11 47 33.5 87.5t71.5 51.5q22 5 40.5 9t36.5 6
q21 4 42.5 6t47.5 4q7 1 13.5 1h13.5q104 0 184.5 -59t87.5 -159v-4t1 -4v-5v-4q0 -24 -4.5 -49t-13.5 -51q-19 -54 -57 -105t-93 -86q-5 -3 -11.5 -6.5t-13.5 -7.5q-11 -6 -24.5 -11t-26.5 -10q-16 -5 -31 -8t-27 -3q-10 0 -17 2.5t-11 6.5q-6 6 -7.5 14.5t-2.5 17.5v1.5
v1.5q0 5 -0.5 9.5t-1.5 8.5q0 5 -3 9t-6 7q-2 2 -3.5 4t-2.5 4l-7 -22t-16 -50q-1 -2 -1.5 -4.5t-1.5 -4.5l-6 -22t-6 -21q-3 -12 -6.5 -25t-6.5 -26q-9 -37 -15.5 -70.5t-8.5 -43.5q-1 -9 -9 -12.5t-19 -3.5q-5 0 -10.5 0.5t-11.5 1.5q-5 1 -10 1.5t-10 0.5q-5 1 -11 1.5
t-12 1.5q-32 4 -58 13t-27 33q0 2 0.5 5t1.5 6q5 19 18 75t30 119q5 20 10 38.5t10 36.5q5 16 10 34t11 36q1 3 2 5.5t1 5.5q15 48 27.5 86l12.5 38v0zM398 560l1 1q20 -4 36 -15.5t17 -30.5q0 -12 -5.5 -26t-11.5 -33q-2 -5 -3.5 -9.5t-2.5 -9.5q0 -1 -0.5 -3t-0.5 -3
t-0.5 -2l-0.5 -1q0 -3 -0.5 -5.5t-0.5 -4.5q11 0 21.5 1.5t20.5 6.5q25 12 42.5 32.5t24.5 43.5q2 5 3 10.5t1 10.5v1.5v1.5q0 35 -30 51t-75 17q-18 0 -34 -0.5t-31 -5.5q-5 -1 -10.5 -3t-10.5 -5q3 0 5 -1l4 -2l12.5 -7.5t28.5 -9.5v0z" />
    <glyph glyph-name="q" unicode="q" horiz-adv-x="642" 
d="M473 -82l1 1q-2 3 -8 9.5t-13 13.5q-5 5 -10 10.5t-8 8.5q-2 3 -5 8t-7 10q0 1 -0.5 1.5l-0.5 0.5q-5 9 -9 15.5l-4 6.5q-7 -1 -13.5 -1.5t-14.5 -0.5h-3h-3h-3.5h-3.5q-88 -1 -156.5 72t-73.5 200v1.5v1.5q0 30 14 103.5t51 156.5q35 78 94.5 149t150.5 104
q10 3 22.5 6.5t25.5 5.5l14 2t14 1q20 0 34.5 -7t15.5 -24v-0.5v-0.5v-0.5v-0.5q0 -5 -1 -12t-2 -15q0 -2 -0.5 -4.5t-0.5 -4.5q-1 -10 -2.5 -17l-1.5 -7l9 6.5t19 14.5q1 1 2 1.5t2 1.5l10 8t8 7q2 2 4 3.5t4 3.5q6 5 12.5 10t12.5 10q11 7 21 11.5t19 4.5q34 -1 52.5 -46
t23.5 -100q1 -11 1.5 -23t0.5 -23v-10.5v-10.5q-7 -133 -42.5 -246t-109.5 -190l-37 -39l7 -9t15 -20q1 0 1 -0.5t1 -0.5q7 -9 13.5 -17t8.5 -10q5 -4 7.5 -9.5t2.5 -10.5q0 -3 -0.5 -6t-1.5 -6q-5 -11 -15 -21.5t-21 -20.5q-9 -7 -17.5 -13.5t-13.5 -10.5q-3 -3 -7 -5.5
t-8 -5.5l-12 -8t-12 -7q-10 -5 -19.5 -8.5t-17.5 -3.5q-5 0 -9 1.5t-7 5.5v-1zM552 601l3 1q0 7 -2.5 11t-4.5 7v0.5v0.5q-2 1 -3 3l-2 4q-2 -2 -5.5 -6.5t-7.5 -8.5q-3 -5 -7.5 -9t-9.5 -6q-9 -4 -22.5 -13.5t-27.5 -22.5t-26.5 -28t-21.5 -31q-1 -1 -1.5 -2.5t-1.5 -2.5
q-25 -45 -45.5 -101t-20.5 -123q0 -20 4 -29.5t10 -17.5q2 -3 5 -6.5t5 -7.5q1 -1 1.5 -2t1.5 -2q0 3 5.5 10.5t12.5 15.5q1 2 2 3.5t3 2.5q2 3 4.5 6t4.5 5q4 4 9 7.5t10 5.5q3 1 6.5 2t6.5 1h0.5h1.5q11 -1 19 -2.5t15 -6.5q11 20 19.5 37.5t15.5 33.5q12 27 20 56t14 70
q5 32 8.5 60t3.5 53q0 8 -0.5 16.5t-1.5 15.5v0z" />
    <glyph glyph-name="r" unicode="r" horiz-adv-x="642" 
d="M544 280h2l117 -189q18 -30 25.5 -49.5t7.5 -31.5q0 -13 -6 -20t-14 -11q-9 -6 -18.5 -10.5t-20.5 -8.5q-14 -6 -30 -12.5t-32 -16.5q-20 -11 -45 27t-51 84q-5 8 -9 15.5t-9 15.5q-5 10 -11 19l-12 18q-12 18 -21.5 34.5t-19.5 31.5q-2 3 -4 6.5t-4 6.5q-6 11 -13.5 22
t-15.5 23q-6 -11 -11 -30t-9 -41q-2 -7 -3.5 -15t-3.5 -15q-1 -4 -1.5 -7.5t-1.5 -7.5q-7 -28 -12 -54t-10 -45q-1 -10 -11.5 -15t-24.5 -5h-3.5h-3.5t-3.5 0.5t-3.5 0.5q-7 0 -15 1l-16 2q-4 0 -8 0.5t-8 0.5q-34 4 -62.5 12.5t-29.5 33.5q0 3 0.5 6t1.5 6q5 19 19.5 80
t31.5 130q5 17 9.5 35t9.5 34q1 4 2 7.5t2 6.5q5 17 10.5 36.5t11.5 38.5q1 4 2 7l2 6q16 51 29 91l13 40q-3 -1 -6 -1.5t-6 -1.5q-2 0 -3.5 -0.5t-3.5 -0.5q-4 -1 -8.5 -1.5t-8.5 -2.5q-10 -4 -18 -6t-16 -2q-16 0 -25 8t-9 18v2v2l0.5 1t0.5 2q4 13 7.5 31t8.5 36
q9 32 22.5 59.5t36.5 32.5q14 3 29.5 7t31.5 8q38 9 80.5 16.5t88.5 7.5q130 -1 211 -60.5t82 -167.5q0 -7 -0.5 -14.5t-1.5 -15.5q-1 -6 -1.5 -11.5t-1.5 -10.5q-15 -79 -71.5 -147t-137.5 -82v0zM421 565l-1 -3q14 -4 20 -15t6 -26v-2.5v-3.5q-1 -1 -1 -2.5v-3.5
q0 -3 -0.5 -5.5t-1.5 -5.5q-2 -12 -7.5 -25t-11.5 -35q-1 -2 -1.5 -4.5t-1.5 -4.5q-1 -4 -2.5 -9t-3.5 -12q16 1 29.5 4.5t23.5 8.5q29 14 53 35.5t32 45.5q2 4 3 8t1 8v3v3v2.5v2.5q1 35 -21 56t-81 29q-4 1 -9.5 1h-10.5h-6.5h-6.5q-21 -1 -41 -5t-32 -9q-4 -1 -7 -2.5
l-5 -2.5v0h1q6 0 19 -4.5t27 -10.5q1 -1 2.5 -1.5t2.5 -0.5q9 -4 17.5 -7.5t14.5 -6.5v0z" />
    <glyph glyph-name="s" unicode="s" horiz-adv-x="544" 
d="M235 -1q-80 2 -116 16t-36 54v8t1 8q1 9 2.5 18.5t3.5 18.5q8 53 23.5 97.5t48.5 45.5h11.5h11.5h15.5h14.5h17.5t17.5 -1q19 -2 25 -9.5t6 -17.5v-4t-1 -4q0 -3 -0.5 -5t-0.5 -4l-7 -34h22q4 0 11.5 0.5t16.5 3.5q12 3 21.5 12.5t9.5 28.5q0 8 -1.5 16t-3.5 17
q-8 29 -26 58t-38 59q-24 37 -45 75.5t-23 80.5v2v2v2v2q-1 93 99.5 170t254.5 78q9 0 19.5 -0.5t20.5 -1.5q33 -2 59.5 -13t27.5 -38v-2v-2q-1 -1 -1 -2v-2q-2 -12 -3 -23.5t-3 -22.5q-6 -56 -22.5 -91.5t-81.5 -35.5h-7.5h-7.5q-11 1 -20 1t-16 1q-15 0 -21.5 1.5
t-11.5 8.5q-2 3 -3.5 6l-3.5 7l-6 14l-12 -1q-2 0 -9 -1t-15 -5q-9 -4 -17 -12.5t-8 -22.5q0 -7 2.5 -15t7.5 -19q28 -51 48.5 -81.5t34.5 -56.5q12 -21 19.5 -45t10.5 -60q1 -7 1.5 -15t0.5 -16q0 -94 -67 -171t-231 -77h-9.5h-10.5v-1z" />
    <glyph glyph-name="t" unicode="t" horiz-adv-x="541" 
d="M381 572v-2q3 7 4.5 11t2.5 8q0 2 0.5 4t1.5 4h-130q-38 0 -53 9.5t-17 20.5v1.5v1.5v1.5v1.5q3 25 8.5 47t11.5 43q2 6 3.5 11.5t3.5 11.5q5 20 21 30.5t36 10.5l374 -2q47 0 73 -8.5t27 -34.5v-5t-1 -6q0 -3 -1 -6t-1 -7q-3 -16 -8 -32.5t-10 -30.5q-5 -15 -10 -26.5
t-8 -18.5q-4 -13 -16.5 -16.5t-26.5 -3.5h-8t-7 1h-8h-8l-165 4l10 -4.5t21 -11.5q5 -2 9.5 -5l7.5 -5q1 -1 2 -1.5t2 -1.5q2 -1 3.5 -2t2.5 -2q2 -2 4.5 -3t4.5 -3q9 -5 16 -11t9 -17q0 -1 0.5 -2t0.5 -2v-2v-2q0 -6 -2 -12t-4 -11v-0.5v-0.5l-2 -6l-2 -6l-128 -447
q-1 -3 -1.5 -5.5t-0.5 -4.5q-3 -14 -10.5 -24t-35.5 -11h-2h-1h-2h-2q-38 0 -72.5 6t-57.5 16q-11 5 -15 12t-4 14q0 6 1.5 12.5t3.5 12.5q1 3 1.5 5.5t1.5 4.5q-1 6 21.5 82.5t50.5 166.5l2 8t2 7q26 84 48.5 153.5t27.5 79.5v0z" />
    <glyph glyph-name="u" unicode="u" horiz-adv-x="630" 
d="M645 790l-1 -2q5 1 10 1h10q6 0 12.5 -0.5t13.5 -0.5q26 -3 49 -9t32 -12q0 -1 1 -1.5t1 -1.5q5 -7 7 -14t2 -14q0 -6 -1.5 -13t-3.5 -14q-1 -4 -2 -7.5t-2 -7.5l-54 -214l-80 -271q-24 -82 -87 -148t-165 -67q-12 0 -25 1.5t-27 3.5q-100 16 -146 83t-46 148q0 9 0.5 18
t1.5 19q1 9 2.5 18t3.5 18l94 403q1 6 2.5 11.5t2.5 9.5q9 38 25.5 55.5t70.5 16.5q20 0 30 -1.5t18 -3.5q5 -1 10.5 -2.5t13.5 -3.5q25 -6 34 -16.5t9 -23.5q0 -9 -2.5 -19.5t-6.5 -20.5q0 -1 -0.5 -2t-0.5 -2q-3 -7 -5.5 -13.5t-3.5 -13.5l-91 -374q0 -2 -0.5 -4.5
t-1.5 -4.5q-1 -7 -2.5 -14t-1.5 -14q-1 -3 -1 -6.5v-6.5q0 -20 9 -35.5t36 -16.5h0.5h0.5h0.5h0.5q34 0 50.5 24.5t25.5 53.5q3 10 5.5 19.5t4.5 18.5l93 353q5 19 8.5 34t6.5 28q9 29 20 42t40 16v0z" />
    <glyph glyph-name="v" unicode="v" horiz-adv-x="575" 
d="M396 426l1 -71q8 13 12.5 19.5t7.5 10.5q0 1 0.5 1.5l0.5 0.5q2 4 4.5 8.5t6.5 11.5t7.5 14.5t7.5 15.5q7 13 13.5 27.5t12.5 29.5q25 57 43.5 105.5t19.5 51.5q2 6 4.5 12t4.5 13q2 4 3.5 9t3.5 9q11 33 26 59.5t39 27.5h2h2q0 -1 1 -1h2q7 -1 13 -1.5t12 -0.5
q5 -1 11 -1.5t13 -1.5q14 -2 26.5 -5.5t23.5 -6.5q4 -2 7.5 -3t7.5 -2q14 -5 19.5 -12.5t5.5 -16.5q0 -7 -2.5 -15.5t-5.5 -17.5l-72 -185l-60 -125l-177 -301q-11 -20 -19.5 -35t-16.5 -25q-8 -11 -17.5 -16.5t-22.5 -5.5q-7 -1 -17 1t-21 5q-3 1 -5 1.5t-5 0.5
q-12 3 -23 5.5t-21 6.5q-8 3 -16 6.5t-17 7.5q-18 10 -23 34t-5 53v12.5v13.5v3t1 3v17v15l-1 10l-5 512v3.5v3.5v5v5q0 16 2.5 30.5t13.5 21.5q6 4 13.5 5t14.5 1q8 0 16 -0.5t15 -1.5l10 -2t8 -1q10 -1 27.5 -4t37.5 -8q3 -1 6.5 -2t6.5 -2q11 -4 19.5 -17t8.5 -32
l-12 -289v0z" />
    <glyph glyph-name="w" unicode="w" horiz-adv-x="909" 
d="M971 796l-1 1q4 0 8 -0.5t7 -1.5q14 -2 24.5 -4t21.5 -4q12 -4 24.5 -8.5t28.5 -11.5q11 -4 14.5 -10.5t3.5 -13.5q0 -2 -0.5 -4.5t-0.5 -4.5q-1 -5 -2.5 -9.5t-3.5 -8.5q-1 -2 -1.5 -4t-1.5 -4l-51 -130l-114 -244l-132 -260q-1 -1 -1.5 -2.5t-1.5 -2.5q-1 -3 -2 -5
t-2 -5q-12 -24 -27 -42t-46 -18h-6.5t-7.5 1q-8 0 -15.5 0.5t-14.5 1.5q-15 1 -28.5 3t-26.5 6t-22 14.5t-12 22.5q-1 3 -1.5 6t-0.5 6l4 363l-157 -325q-1 -3 -2.5 -6t-3.5 -6q-1 -3 -2 -5.5t-2 -5.5q-13 -28 -30 -51.5t-47 -23.5h-2h-3h-4h-5q-23 1 -42 3.5t-38 10.5
q-25 10 -31 34.5t-6 52.5v4v4l2 119l8 512q0 37 13.5 47.5t31.5 10.5q8 0 15.5 -0.5t14.5 -1.5q3 0 5.5 -0.5t5.5 -0.5q25 -3 48.5 -7.5t37.5 -9.5q14 -4 18 -16t4 -26v-6v-6q-1 -3 -1 -6v-6l-14 -316l148 340q10 23 27 42.5t43 19.5q32 0 58 -3t47 -8q17 -4 21.5 -19
t5.5 -32v-6v-6l-9 -345l154 353q0 1 0.5 1.5t0.5 1.5q10 23 24.5 42.5t41.5 19.5h5t6 -1v0z" />
    <glyph glyph-name="x" unicode="x" horiz-adv-x="651" 
d="M140 79l-2 -3l204 325l-89 253q-3 10 -6 18t-7 16q0 1 -0.5 2t-0.5 2q-5 11 -9 22.5t-8 25.5v0.5v1.5q-1 1 -1 1.5v1.5q0 3 0.5 6t2.5 6q5 13 21.5 23t45.5 9q13 0 25 -1.5t23 -4.5q4 0 7.5 -1t7.5 -2q8 -2 16 -3.5t17 -2.5q25 -4 32 -19t11 -33q1 -2 1 -3v-3
q1 -1 1.5 -2.5t0.5 -3.5l35 -133l93 168q1 2 2 3.5t2 3.5q5 7 11.5 13.5t13.5 11.5q5 4 10.5 6.5t9.5 2.5v0h1v0v0q20 -2 37.5 -4.5t34.5 -5.5q12 -3 23.5 -6t23.5 -7q14 -4 19.5 -10.5t6.5 -14.5q0 -4 -1.5 -8.5t-3.5 -8.5q-1 -3 -2.5 -5t-2.5 -4q-1 -3 -2.5 -5t-2.5 -4
l-196 -329l122 -304q1 -1 1.5 -2.5t0.5 -2.5v-3v-3q1 -10 -4.5 -20t-12.5 -19q-9 -10 -19.5 -14.5t-23.5 -4.5q-12 0 -24.5 2.5t-26.5 5.5q-29 7 -53.5 19.5t-32.5 40.5l-47 147l-73 -155q-10 -23 -31 -37.5t-47 -14.5h-12.5t-12.5 1q-22 1 -44.5 6t-47.5 16
q-11 5 -16.5 12.5t-5.5 16.5q0 5 1.5 9.5t3.5 8.5v0z" />
    <glyph glyph-name="y" unicode="y" horiz-adv-x="530" 
d="M692 659l-66 -128l-261 -512q-7 -15 -22 -22.5t-33 -8.5h-4t-4 1q-3 0 -5 0.5t-4 0.5q-7 1 -13.5 2.5t-12.5 2.5q-9 2 -17.5 3.5t-16.5 3.5q-10 3 -20.5 7t-21.5 9q-8 5 -11.5 11t-3.5 13q-1 9 2 18t7 16l96 191l-84 445q-1 3 -1.5 6.5t-0.5 7.5q-1 4 -1 7.5v6.5
q0 17 9.5 28.5t37.5 12.5h3.5h2.5q2 -1 3.5 -1h3.5q19 -1 35.5 -3t33.5 -5q9 -2 18.5 -4.5t19.5 -6.5q11 -4 17 -16.5t7 -26.5q1 -2 1 -3.5v-3.5l22 -209l103 212q11 24 27 44t45 20h3.5h3.5t3.5 -0.5t3.5 -0.5q5 -1 9.5 -1.5t8.5 -0.5q19 -2 35.5 -5.5t32.5 -11.5l8 -4
t8 -5q9 -6 12.5 -13.5t3.5 -15.5q0 -9 -3 -18t-8 -18q-1 -4 -2.5 -7l-3.5 -7q-2 -2 -3.5 -5t-2.5 -6v0z" />
    <glyph glyph-name="z" unicode="z" horiz-adv-x="528" 
d="M619 540l-302 -385h168h6t6 1h6h6q12 0 21 -4.5t9 -21.5v-2v-3q0 -11 -3 -23.5t-7 -25.5q-4 -12 -8.5 -23.5t-9.5 -21.5q-10 -20 -29.5 -25.5t-42.5 -5.5h-241h-4.5t-5.5 1q-19 1 -35.5 9.5t-21.5 21.5q-4 11 -8 20t-7 18q-4 11 -7.5 23t-6.5 27q0 2 -0.5 3t-0.5 3v2.5
v2.5q-1 14 6 26t15 22q1 2 2 3.5t2 2.5l325 419h-191h-4.5h-5.5q-1 -1 -2 -1h-2h-3.5h-3.5q-13 0 -23 4t-11 17v4t1 4q4 24 11.5 46t15.5 40q4 11 8 20t8 17q8 16 24 20.5t34 4.5h5.5h5.5h1.5h1.5h251q21 0 36.5 -15t20.5 -36q5 -16 8.5 -29.5t7.5 -25.5l6 -26t6 -30
q1 -3 1 -6v-5q0 -16 -6.5 -27t-15.5 -21q-2 -1 -3.5 -3t-3.5 -4q-3 -3 -5.5 -6t-4.5 -6v0z" />
    <glyph glyph-name="braceleft" unicode="{" horiz-adv-x="245" 
d="M377 766l-3 5q-5 -6 -9.5 -11.5t-7.5 -10.5q-7 -12 -11.5 -23.5t-8.5 -25.5q0 -1 -0.5 -2.5t-0.5 -2.5l-49 -185q-5 -22 -14.5 -42.5t-30.5 -39.5q-4 -4 -8.5 -7.5t-8.5 -6.5q-10 -7 -20.5 -11.5t-23.5 -7.5q17 -3 28 -9.5t18 -20.5q5 -8 7 -16.5t2 -17.5q0 -13 -3 -26
t-8 -29l-52 -197q-3 -9 -4.5 -17t-1.5 -16q0 -7 1.5 -13.5t4.5 -14.5q8 -18 20.5 -27t32.5 -13l-26 -2q0 1 -0.5 1h-1.5h-1.5h-0.5q-33 0 -58.5 18t-25.5 40v0v1v0v0q0 12 1.5 25t5.5 29l55 204q3 11 4.5 21t1.5 19q0 10 -1.5 18t-6.5 15q-7 11 -19 17.5t-29 7.5q21 3 39 13
t32 23q4 4 7.5 8.5t6.5 8.5q8 11 12 22.5t7 24.5q1 4 2 7.5t2 7.5l48 178q8 30 19.5 54t38.5 44q9 7 17 11t17 7q12 4 24.5 5.5t26.5 1.5h25q-18 -4 -32 -11.5t-27 -19.5q-3 -2 -6 -5l-6 -6v0z" />
    <glyph glyph-name="bar" unicode="|" horiz-adv-x="239" 
d="M79 -15l93 305l155 512h59l-95 -306l-158 -511h-54v0z" />
    <glyph glyph-name="braceright" unicode="}" horiz-adv-x="245" 
d="M90 17l2 -3q4 5 8 9t7 9q8 12 12.5 24.5t9.5 27.5q0 1 0.5 2.5t0.5 2.5l49 185q5 21 14.5 41.5t30.5 39.5q4 4 8 7l8 6q10 7 21 12t25 8q-16 3 -27 9.5t-18 20.5q-4 8 -6.5 16.5t-2.5 17.5q0 13 3.5 26.5t7.5 29.5l52 197q3 9 4.5 17.5t1.5 15.5t-1.5 14t-4.5 14
q-8 18 -20 27.5t-32 13.5l26 1h0.5h1.5h1.5h0.5q34 0 59 -18.5t25 -41.5v-3.5v-3.5q-1 -10 -2 -21.5t-5 -25.5l-55 -205q-3 -10 -4.5 -20.5t-1.5 -19.5q0 -10 2 -18t6 -15q8 -10 19.5 -17t27.5 -8q-21 -3 -38.5 -13t-31.5 -23q-5 -5 -8.5 -9.5t-6.5 -8.5q-8 -12 -12 -23.5
t-8 -24.5q-1 -3 -1.5 -6t-1.5 -6l-48 -178q-7 -30 -19 -54t-39 -44q-8 -5 -15.5 -9t-15.5 -7q-13 -5 -26.5 -6.5t-28.5 -1.5l-25 -2q18 5 32 12.5t27 18.5q3 2 6 5l6 6v0z" />
    <glyph glyph-name="asciitilde" unicode="~" horiz-adv-x="314" 
d="M389 757l3 -1q5 -3 8.5 -5.5t7.5 -3.5q2 0 4 -0.5t4 -0.5q8 0 15.5 5t17.5 16l2.5 2.5l2.5 2.5l6 4t6 3q3 2 5.5 2.5t4.5 0.5h4.5t3.5 -2q5 -4 7.5 -9t2.5 -11q0 -5 -1.5 -10.5t-3.5 -11.5q-3 -6 -6.5 -12t-7.5 -12l-4 -6l-4 -6q-6 -9 -19.5 -17t-30.5 -13h-1.5h-1.5
q-8 -1 -16 4t-15 11q-2 1 -3.5 2.5t-3.5 2.5q-3 2 -6 5t-6 5q-7 6 -13.5 10.5t-13.5 4.5h-2h-2h-0.5h-1.5h-1.5h-0.5h-2.5h-2.5q-4 -1 -9.5 -5.5t-17.5 -18.5q-3 -3 -5.5 -7t-4.5 -8q-1 -2 -2.5 -4t-2.5 -4l-8 -12t-10 -11q-10 -7 -14 3.5t-4 26.5v5.5v5.5q1 9 3 18.5
t5 15.5q8 15 16 27t18 20q3 2 6.5 5t6.5 6q5 3 11.5 6.5t14.5 5.5q1 0 2 0.5t2 0.5h1h2q11 0 20.5 -7t18.5 -15q0 -1 0.5 -1h0.5q4 -4 7.5 -7t7.5 -6v0z" />
    <glyph glyph-name="Adieresis" unicode="&#xc4;" horiz-adv-x="588" 
d="M614 177v1q0 -18 -1 -32t-3 -28q-1 -10 -2 -19t-2 -20q0 -6 -0.5 -13t-1.5 -15q-4 -37 -24.5 -46.5t-46.5 -9.5h-7.5h-6.5q-4 1 -7.5 1h-6.5q-5 0 -9.5 0.5t-9.5 1.5q-27 3 -49.5 15t-22.5 36v0.5v1.5v1.5v0.5q1 14 2 35t1 43q1 36 1.5 66.5l0.5 30.5q-2 -1 -4 -2.5
t-4 -3.5q-2 -1 -3.5 -2.5l-2.5 -2.5q-3 -3 -5.5 -5t-4.5 -4l-4 -4l-4 -4l-4.5 -4.5l-4.5 -4.5q-2 -1 -4 -1.5t-3 -1.5q-1 0 -1.5 -0.5t-1.5 -0.5q-4 -2 -7.5 -3t-8.5 -1h-7.5h-6.5h-9h-8t-7 0.5t-7 0.5l-12.5 -26t-27.5 -58q0 -1 -0.5 -2t-1.5 -2q-12 -25 -23 -46.5
t-16 -29.5q-9 -13 -21.5 -18t-26.5 -5h-4.5h-4.5q-9 1 -18 3l-18 4q-4 2 -7.5 3t-6.5 2q-2 1 -4.5 1.5t-5.5 1.5q-23 9 -42.5 23t-19.5 39q0 5 1 9.5t2 9.5q2 6 6.5 17.5t10.5 24.5q0 1 0.5 2l0.5 1q7 17 13 30l6 13q-1 1 -2.5 1.5t-2.5 0.5q-1 1 -2 1.5t-2 0.5q-2 2 -4 4.5
t-5 7.5q-1 3 -2 7.5t-1 8.5q0 7 1.5 15.5t3.5 17.5q1 6 2.5 12t3.5 12q3 10 6 18t4 12q1 2 1.5 4t1.5 3q9 25 20.5 46t38.5 28q4 1 8.5 1.5t8.5 0.5q5 0 9 -0.5t7 -0.5t5 -0.5l2 -0.5l29.5 54t64.5 119q33 60 61 111.5t32 58.5q5 9 10 16t9 14q13 16 27 24t34 8h2.5h1.5
q13 0 29.5 -2t32.5 -5q37 -8 68.5 -25t33.5 -47q1 -10 1 -32.5v-54.5q0 -44 -0.5 -100.5t-1.5 -115.5q-1 -63 -3.5 -123t-5.5 -104v0zM400 382l-1 1q3 -3 7.5 -5t9.5 -2q1 -1 3 -1h3q5 0 9.5 1.5t8.5 4.5l14 137l-9 -17t-19 -39q-1 -3 -2.5 -6.5t-3.5 -6.5q-8 -19 -15 -36
t-7 -26q0 -1 0.5 -2.5t1.5 -2.5v0zM485 1005h-1q37 -1 48.5 -20.5t11.5 -44.5v-2.5v-3.5q-1 -26 -19.5 -47t-44.5 -21h-1.5h-1.5q-25 2 -39 22t-14 48v1.5v1.5q1 20 14.5 37.5t30.5 24.5q3 2 7 3t8 1v0h1v0v0v0zM655 1005h-1q36 -1 47.5 -20.5t11.5 -44.5v-2.5v-3.5
q-1 -26 -19 -47t-44 -21h-1.5h-1.5q-25 2 -39 22t-14 48v1.5v1.5q1 20 14.5 37.5t30.5 24.5q3 2 7 3t8 1v0h1v0v0v0z" />
    <glyph glyph-name="Aring" unicode="&#xc5;" horiz-adv-x="588" 
d="M614 177v1q0 -18 -1 -32t-3 -28q-1 -10 -2 -19t-2 -20q0 -6 -0.5 -13t-1.5 -15q-4 -37 -24.5 -46.5t-46.5 -9.5h-7.5h-6.5q-4 1 -7.5 1h-6.5q-5 0 -9.5 0.5t-9.5 1.5q-27 3 -49.5 15t-22.5 36v0.5v1.5v1.5v0.5q1 14 2 35t1 43q1 36 1.5 66.5l0.5 30.5q-2 -1 -4 -2.5
t-4 -3.5q-2 -1 -3.5 -2.5l-2.5 -2.5q-3 -3 -5.5 -5t-4.5 -4l-4 -4l-4 -4l-4.5 -4.5l-4.5 -4.5q-2 -1 -4 -1.5t-3 -1.5q-1 0 -1.5 -0.5t-1.5 -0.5q-4 -2 -7.5 -3t-8.5 -1h-7.5h-6.5h-9h-8t-7 0.5t-7 0.5l-12.5 -26t-27.5 -58q0 -1 -0.5 -2t-1.5 -2q-12 -25 -23 -46.5
t-16 -29.5q-9 -13 -21.5 -18t-26.5 -5h-4.5h-4.5q-9 1 -18 3l-18 4q-4 2 -7.5 3t-6.5 2q-2 1 -4.5 1.5t-5.5 1.5q-23 9 -42.5 23t-19.5 39q0 5 1 9.5t2 9.5q2 6 6.5 17.5t10.5 24.5q0 1 0.5 2l0.5 1q7 17 13 30l6 13q-1 1 -2.5 1.5t-2.5 0.5q-1 1 -2 1.5t-2 0.5q-2 2 -4 4.5
t-5 7.5q-1 3 -2 7.5t-1 8.5q0 7 1.5 15.5t3.5 17.5q1 6 2.5 12t3.5 12q3 10 6 18t4 12q1 2 1.5 4t1.5 3q9 25 20.5 46t38.5 28q4 1 8.5 1.5t8.5 0.5q5 0 9 -0.5t7 -0.5t5 -0.5l2 -0.5l29.5 54t64.5 119q33 60 61 111.5t32 58.5q5 9 10 16t9 14q13 16 27 24t34 8h2.5h1.5
q13 0 29.5 -2t32.5 -5q37 -8 68.5 -25t33.5 -47q1 -10 1 -32.5v-54.5q0 -44 -0.5 -100.5t-1.5 -115.5q-1 -63 -3.5 -123t-5.5 -104v0zM400 382l-1 1q3 -3 7.5 -5t9.5 -2q1 -1 3 -1h3q5 0 9.5 1.5t8.5 4.5l14 137l-9 -17t-19 -39q-1 -3 -2.5 -6.5t-3.5 -6.5q-8 -19 -15 -36
t-7 -26q0 -1 0.5 -2.5t1.5 -2.5v0zM559 862q-37 0 -56 24.5t-19 53.5v1.5v1.5q1 28 19.5 52t55.5 24t55.5 -24.5t18.5 -53.5v-1.5v-1.5q0 -28 -18.5 -52t-55.5 -24v0zM559 995q-25 -1 -37.5 -17t-12.5 -36t13.5 -37t38.5 -18h0.5h1.5q25 1 37 17.5t12 35.5q0 20 -12.5 37
t-38.5 18h-0.5h-1.5v0z" />
    <glyph glyph-name="Ccedilla" unicode="&#xc7;" horiz-adv-x="584" 
d="M304 -12l-2 -3l-3 -7.5t-1 -5.5q-1 -1 -1 -3v-4v-2v-2v-5v-2l3 1t7 2q1 0 2 0.5t2 0.5q4 1 7 1.5t5 0.5v0h1v0v0q22 0 35 -15.5t16 -34.5v-3v-4v-3.5v-2.5q-1 -8 -2 -15.5t-3 -14.5q-2 -9 -7 -18.5t-13 -20.5q-7 -10 -18.5 -18t-23.5 -13q-7 -3 -14 -4.5t-13 -1.5h-0.5
h-0.5h-0.5h-0.5q-4 0 -7.5 0.5t-7.5 1.5q-17 3 -32 15t-18 42v0.5v0.5v0.5v0.5q0 7 4.5 12t14.5 6h3h2q2 1 3 1h2h5t7 -1q8 0 10 -3t3 -7q1 -1 1 -1.5v-0.5q1 -4 4.5 -7.5t13.5 -4.5v0h1v0v0q12 0 20.5 11.5t10.5 24.5v1.5v1.5v0.5v0.5v0.5v0.5q0 14 -6.5 20.5t-17.5 6.5
q-7 0 -14 -3t-15 -8l-28 38l16 59q-10 3 -21 9.5t-22 16.5q-28 24 -51.5 74t-23.5 137v10v10q9 248 124.5 398.5t262.5 150.5h2h2h1h2q98 -2 134 -52t36 -119q0 -40 -11 -73t-46 -53q-10 -6 -30 -10t-43 -4q-27 0 -49.5 8t-21.5 28q0 6 1.5 13.5t4.5 15.5v1v1q2 7 3.5 14.5
t1.5 13.5q0 9 -4.5 14.5t-15.5 5.5h-8t-9 -2q-5 -1 -10.5 -5t-10.5 -10q-11 -12 -21.5 -30t-19.5 -37q-12 -26 -21 -48.5t-13 -30.5q-3 -7 -8 -24.5t-10 -38.5q-2 -9 -4 -17.5t-4 -17.5q-6 -30 -10.5 -57t-4.5 -39v-1.5v-1.5q1 -20 9.5 -32t20.5 -13q8 0 17 5.5t18 17.5
q1 2 2 3.5t2 2.5q6 9 10.5 17.5t8.5 17.5q11 22 28.5 38.5t69.5 19.5h5.5t4.5 1h4.5h5.5q34 0 54.5 -10.5t20.5 -40.5q0 -8 -1.5 -18t-5.5 -22q-2 -5 -3.5 -10.5t-3.5 -10.5q-31 -86 -100.5 -157t-171.5 -71h-13.5t-13.5 1v-1z" />
    <glyph glyph-name="Eacute" unicode="&#xc9;" horiz-adv-x="581" 
d="M639 583l-259 11v-1.5v-0.5v-1.5v-1.5q0 -12 6.5 -18t15.5 -11q1 0 2.5 -1t2.5 -1q6 -3 10.5 -6.5t5.5 -8.5q0 -1 0.5 -3t0.5 -3v-3.5v-3.5v-2.5v-3.5q0 -5 -0.5 -10t-1.5 -9q0 -3 -0.5 -5.5t-0.5 -4.5q-1 -7 -1.5 -13.5t-0.5 -13.5l25.5 -0.5t57.5 -1.5h5h5
q30 -1 56 -1.5t34 -0.5q12 0 20.5 -11t8.5 -25v-1.5v-1.5q-1 -10 -7 -34t-16 -51q-4 -11 -8.5 -21t-9.5 -19q0 -1 -0.5 -1.5l-0.5 -0.5q-5 -9 -14.5 -15.5t-43.5 -7.5h-3.5h-4.5q-14 0 -35 0.5t-43 1.5q-7 1 -13.5 1t-13.5 1q-28 1 -48.5 2l-20.5 1l-22 -107h131h10h10h5h5
h1.5h1.5q25 1 45.5 -5t20.5 -29v-0.5v-1.5v-1.5v-0.5q-1 -17 -3 -32t-5 -29q-3 -11 -7 -22.5t-9 -23.5q-10 -25 -25 -31t-33 -6h-7h-8q-1 1 -2 1h-3h-4.5h-5.5q-20 1 -38.5 1h-35.5h-35.5t-31.5 -1h-26h-23q-42 0 -62 6.5t-36 31.5q-1 1 -1.5 2.5t-1.5 2.5q-6 10 -11.5 19.5
t-10.5 18.5q-6 12 -10.5 23.5t-5.5 25.5q0 7 0.5 12t1.5 10q1 3 1.5 5.5t0.5 5.5l32 119q-2 1 -4 1.5t-4 0.5q-9 3 -17.5 8.5t-10.5 19.5v2v2v2v2v2.5v3.5q1 12 2.5 23.5t4.5 20.5q1 4 1.5 7t1.5 5q1 6 3 11.5t4 11.5q3 11 7.5 21t8.5 19q5 10 9.5 16.5t8.5 7.5q6 2 11 3.5
t10 2.5h3.5h3.5q4 0 8 -0.5t8 -1.5l40 124l-40 -2q-13 0 -20.5 10t-7.5 22v0.5v1.5v1.5v0.5q4 16 11.5 39.5t14.5 49.5q2 4 3 7.5t2 7.5q1 3 1.5 5.5t1.5 4.5q9 27 24.5 40.5t66.5 13.5l329 1q46 0 64 -9.5t21 -21.5q1 -3 1.5 -5.5t0.5 -4.5q0 -3 -0.5 -6.5t-1.5 -6.5
q0 -1 -0.5 -2t-0.5 -2q-1 -2 -1.5 -4.5t-0.5 -4.5q-3 -12 -5.5 -25.5t-6.5 -27.5q-8 -34 -23 -63t-45 -28v0zM463 959l89 74q3 2 5.5 4.5l5.5 5.5l2 2l2 2q7 7 13.5 11.5t15.5 4.5h4t4 -1q2 0 3.5 -1.5l3.5 -3.5q5 -6 10.5 -17.5t9.5 -24.5q4 -11 6 -21.5t2 -17.5v-1.5v-1.5
q-1 -11 -14 -20.5t-28 -18.5q-4 -2 -7.5 -4t-7.5 -4l-86 -49q-3 -2 -6.5 -3.5t-6.5 -3.5q-5 -2 -9.5 -3.5t-9.5 -2.5q-2 -1 -3.5 -1t-3.5 -1q-1 0 -2 -0.5l-1 -0.5h-2h-2q-13 0 -19.5 12t-7.5 26v1.5v1.5q0 11 3.5 21t10.5 14q2 1 7 5t10 9v0h1l4 4l4 4v0z" />
    <glyph glyph-name="Ntilde" unicode="&#xd1;" horiz-adv-x="684" 
d="M647 23l-1 -1q-2 -10 -17.5 -14.5t-38.5 -4.5q-12 0 -24.5 1t-25.5 3q-29 5 -55.5 14.5t-40.5 22.5q-6 5 -11 31t-10 57q-2 10 -3.5 20.5t-2.5 19.5l-41 252l-102 -373q-2 -8 -4 -15t-4 -12q-6 -15 -13.5 -18t-21.5 -3h-11t-14 -1h-2.5h-2.5q-2 -1 -3.5 -1h-3.5
q-9 0 -21.5 1t-25.5 4q-25 5 -45.5 16t-21.5 31q0 7 0.5 13t1.5 11q0 4 1 8l2 8l36 121l148 512v1.5t1 1.5q4 19 15.5 34.5t32.5 15.5h3.5h3.5q1 0 3 -0.5t3 -0.5q3 -1 6 -1.5t6 -0.5q7 -1 13 -2.5t13 -2.5q32 -6 62.5 -17.5t50.5 -36.5q14 -18 23.5 -45.5t17.5 -60.5
q2 -11 5 -22l6 -22q2 -7 3.5 -13t3.5 -12q3 -12 6 -22.5t6 -20.5v-0.5t1 -1.5q3 -10 6 -21t6 -24l15 72q3 16 10.5 47.5t15.5 66.5q1 4 2 7t1 7q7 28 14 54t11 41q1 2 2 4.5t3 5.5q4 8 12 15t18 7q1 1 1.5 0.5t1.5 -0.5h1.5h0.5q4 0 26 -3t48 -10q27 -8 50.5 -21.5
t23.5 -34.5q0 -7 -1 -14t-3 -13q-1 -3 -1.5 -5.5t-1.5 -5.5l-2 -8t-2 -9q-7 -33 -19 -82t-26 -101q-3 -11 -6.5 -22.5t-6.5 -23.5q-4 -13 -7.5 -26t-7.5 -25q-5 -18 -18.5 -60.5t-28.5 -89.5q-18 -59 -33.5 -108t-15.5 -53v-1.5v-1.5q0 -5 0.5 -9.5t1.5 -7.5q0 -2 0.5 -4
t0.5 -4q1 -2 1 -3.5v-3.5v-2.5v-3.5v0zM603 976l3 -1q5 -3 8.5 -5.5t7.5 -3.5q2 0 4 -0.5t4 -0.5q8 0 15.5 5t17.5 16l2.5 2.5l2.5 2.5l6 4t6 3q3 2 5.5 2.5t4.5 0.5h4.5t3.5 -2q5 -4 7 -9t2 -11q0 -5 -1.5 -10.5t-3.5 -11.5q-3 -6 -6.5 -12.5t-7.5 -12.5q-2 -3 -3.5 -5.5
t-3.5 -5.5q-6 -9 -19.5 -17t-30.5 -13h-1.5h-1.5q-8 -1 -16 4t-15 11q-2 1 -3.5 2.5t-3.5 2.5q-3 2 -6 5t-6 5q-7 6 -13.5 10.5t-13.5 4.5h-2h-2h-0.5h-1.5h-1.5h-0.5h-2.5h-2.5q-4 -1 -9.5 -5.5t-17.5 -18.5q-3 -4 -6 -8.5t-6 -8.5q-1 -2 -2 -3.5t-2 -2.5l-8 -12t-10 -11
q-10 -7 -14 3.5t-4 26.5v5.5v5.5q1 9 3 18.5t5 15.5q8 15 16 27t19 20q3 2 6.5 5t6.5 6q5 3 11.5 6.5t14.5 5.5q1 0 2 0.5t2 0.5h1h2q11 0 20.5 -7t18.5 -15q0 -1 0.5 -1h0.5q4 -4 7.5 -7t7.5 -6v0z" />
    <glyph glyph-name="Odieresis" unicode="&#xd6;" horiz-adv-x="647" 
d="M551 762h-1v-52l43 36q5 4 10.5 8.5t11.5 9.5q9 8 19 14.5t20 10.5q4 1 7.5 1.5t6.5 0.5q7 0 13.5 -2.5t12.5 -9.5q41 -43 50 -94.5t12 -113.5v-4.5v-4.5v-6t1 -6v-5.5v-5.5q0 -32 -3.5 -65.5t-10.5 -67.5q-33 -160 -131.5 -293t-231.5 -133q-22 0 -44.5 4.5t-45.5 13.5
q-94 38 -125.5 108t-31.5 169q0 193 114.5 354t253.5 174h2.5t2.5 1h2.5h2.5q24 0 32 -12.5t8 -29.5v0zM497 311l2 -1q8 22 15 40t12 35q5 19 8.5 39t5.5 44q2 23 2.5 39.5t0.5 28.5q0 13 -1 22.5t-2 17.5q-2 10 -4.5 21.5t-5.5 27.5l-31 -25q-7 -6 -12.5 -9.5t-10.5 -6.5
l-1.5 -1.5l-1.5 -1.5q-7 -4 -14 -10.5t-17 -19.5q-9 -11 -20.5 -27t-23.5 -36q-22 -38 -40.5 -90t-20.5 -113v-0.5v-1.5v-1.5v-0.5q0 -7 0.5 -14t1.5 -14q3 -24 14.5 -44t33.5 -21v0h1v0v0q22 0 43 21t37 46q10 16 17.5 31t11.5 25v0zM527 1002h-1q36 -1 47.5 -20.5
t11.5 -44.5v-2.5v-3.5q-1 -26 -19 -47t-44 -21h-1.5h-1.5q-25 2 -39.5 22t-14.5 48v1.5v1.5q1 19 14.5 37t29.5 25q5 2 9 3t8 1v0h1v0v0v0zM696 1002h-1q36 -1 47.5 -20.5t11.5 -44.5v-2.5v-3.5q-1 -26 -19 -47t-44 -21h-1.5h-1.5q-25 2 -39 22t-14 48v1.5v1.5
q1 20 14.5 37.5t30.5 24.5q3 2 7 3t8 1v0h1v0v0v0z" />
    <glyph glyph-name="Udieresis" unicode="&#xdc;" horiz-adv-x="630" 
d="M645 790l-1 -2q5 1 10 1h10q6 0 12.5 -0.5t13.5 -0.5q26 -3 49 -9t32 -12q0 -1 1 -1.5t1 -1.5q5 -7 7 -14t2 -14q0 -6 -1.5 -13t-3.5 -14q-1 -4 -2 -7.5t-2 -7.5l-54 -214l-80 -271q-24 -82 -87 -148t-165 -67q-12 0 -25 1.5t-27 3.5q-100 16 -146 83t-46 148q0 9 0.5 18
t1.5 19q1 9 2.5 18t3.5 18l94 403q1 6 2.5 11.5t2.5 9.5q9 38 25.5 55.5t70.5 16.5q20 0 30 -1.5t18 -3.5q5 -1 10.5 -2.5t13.5 -3.5q25 -6 34 -16.5t9 -23.5q0 -9 -2.5 -19.5t-6.5 -20.5q0 -1 -0.5 -2t-0.5 -2q-3 -7 -5.5 -13.5t-3.5 -13.5l-91 -374q0 -2 -0.5 -4.5
t-1.5 -4.5q-1 -7 -2.5 -14t-1.5 -14q-1 -3 -1 -6.5v-6.5q0 -20 9 -35.5t36 -16.5h0.5h0.5h0.5h0.5q34 0 50.5 24.5t25.5 53.5q3 10 5.5 19.5t4.5 18.5l93 353q5 19 8.5 34t6.5 28q9 29 20 42t40 16v0zM475 1000h-1q37 -1 48.5 -20.5t11.5 -44.5v-2.5v-3.5q-1 -26 -19.5 -47
t-44.5 -21h-1.5h-1.5q-25 2 -39 22t-14 48v1.5v1.5q1 20 14.5 37.5t30.5 24.5q3 2 7 3t8 1v0h1v0v0v0zM645 1000h-1q36 -1 47.5 -20.5t11.5 -44.5v-2.5v-3.5q-1 -26 -19 -47t-44 -21h-1.5h-1.5q-25 2 -39 22t-14 48v1.5v1.5q1 20 14.5 37.5t30.5 24.5q3 2 7 3t8 1v0h1v0v0v0
z" />
    <glyph glyph-name="aacute" unicode="&#xe1;" horiz-adv-x="588" 
d="M614 177v1q0 -18 -1 -32t-3 -28q-1 -10 -2 -19t-2 -20q0 -6 -0.5 -13t-1.5 -15q-4 -37 -24.5 -46.5t-46.5 -9.5h-7.5h-6.5q-4 1 -7.5 1h-6.5q-5 0 -9.5 0.5t-9.5 1.5q-27 3 -49.5 15t-22.5 36v0.5v1.5v1.5v0.5q1 14 2 35t1 43q1 36 1.5 66.5l0.5 30.5q-2 -1 -4 -2.5
t-4 -3.5q-2 -1 -3.5 -2.5l-2.5 -2.5q-3 -3 -5.5 -5t-4.5 -4l-4 -4l-4 -4l-4.5 -4.5l-4.5 -4.5q-2 -1 -4 -1.5t-3 -1.5q-1 0 -1.5 -0.5t-1.5 -0.5q-4 -2 -7.5 -3t-8.5 -1h-7.5h-6.5h-9h-8t-7 0.5t-7 0.5l-12.5 -26t-27.5 -58q0 -1 -0.5 -2t-1.5 -2q-12 -25 -23 -46.5
t-16 -29.5q-9 -13 -21.5 -18t-26.5 -5h-4.5h-4.5q-9 1 -18 3l-18 4q-4 2 -7.5 3t-6.5 2q-2 1 -4.5 1.5t-5.5 1.5q-23 9 -42.5 23t-19.5 39q0 5 1 9.5t2 9.5q2 6 6.5 17.5t10.5 24.5q0 1 0.5 2l0.5 1q7 17 13 30l6 13q-1 1 -2.5 1.5t-2.5 0.5q-1 1 -2 1.5t-2 0.5q-2 2 -4 4.5
t-5 7.5q-1 3 -2 7.5t-1 8.5q0 7 1.5 15.5t3.5 17.5q1 6 2.5 12t3.5 12q3 10 6 18t4 12q1 2 1.5 4t1.5 3q9 25 20.5 46t38.5 28q4 1 8.5 1.5t8.5 0.5q5 0 9 -0.5t7 -0.5t5 -0.5l2 -0.5l29.5 54t64.5 119q33 60 61 111.5t32 58.5q5 9 10 16t9 14q13 16 27 24t34 8h2.5h1.5
q13 0 29.5 -2t32.5 -5q37 -8 68.5 -25t33.5 -47q1 -10 1 -32.5v-54.5q0 -44 -0.5 -100.5t-1.5 -115.5q-1 -63 -3.5 -123t-5.5 -104v0zM400 382l-1 1q3 -3 7.5 -5t9.5 -2q1 -1 3 -1h3q5 0 9.5 1.5t8.5 4.5l14 137l-9 -17t-19 -39q-1 -3 -2.5 -6.5t-3.5 -6.5q-8 -19 -15 -36
t-7 -26q0 -1 0.5 -2.5t1.5 -2.5v0zM482 966l89 74q3 2 5.5 4.5l5.5 5.5l2 2l2 2q7 7 13.5 11.5t15.5 4.5h4t4 -1q2 0 3.5 -1.5l3.5 -3.5q5 -6 10.5 -17.5t9.5 -24.5q4 -11 6 -21.5t2 -17.5v-1.5v-1.5q-1 -11 -14 -20.5t-28 -18.5q-4 -2 -7.5 -4t-7.5 -4l-85 -49
q-8 -5 -16.5 -8t-16.5 -5q-2 -1 -3.5 -1t-3.5 -1q-1 0 -2 -0.5l-1 -0.5h-2h-2q-13 0 -19.5 12t-7.5 26v1.5v1.5q0 11 3.5 21t10.5 14q2 1 7 5t10 9v0h1l4 4l4 4v0z" />
    <glyph glyph-name="agrave" unicode="&#xe0;" horiz-adv-x="588" 
d="M614 177v1q0 -18 -1 -32t-3 -28q-1 -10 -2 -19t-2 -20q0 -6 -0.5 -13t-1.5 -15q-4 -37 -24.5 -46.5t-46.5 -9.5h-7.5h-6.5q-4 1 -7.5 1h-6.5q-5 0 -9.5 0.5t-9.5 1.5q-27 3 -49.5 15t-22.5 36v0.5v1.5v1.5v0.5q1 14 2 35t1 43q1 36 1.5 66.5l0.5 30.5q-2 -1 -4 -2.5
t-4 -3.5q-2 -1 -3.5 -2.5l-2.5 -2.5q-3 -3 -5.5 -5t-4.5 -4l-4 -4l-4 -4l-4.5 -4.5l-4.5 -4.5q-2 -1 -4 -1.5t-3 -1.5q-1 0 -1.5 -0.5t-1.5 -0.5q-4 -2 -7.5 -3t-8.5 -1h-7.5h-6.5h-9h-8t-7 0.5t-7 0.5l-12.5 -26t-27.5 -58q0 -1 -0.5 -2t-1.5 -2q-12 -25 -23 -46.5
t-16 -29.5q-9 -13 -21.5 -18t-26.5 -5h-4.5h-4.5q-9 1 -18 3l-18 4q-4 2 -7.5 3t-6.5 2q-2 1 -4.5 1.5t-5.5 1.5q-23 9 -42.5 23t-19.5 39q0 5 1 9.5t2 9.5q2 6 6.5 17.5t10.5 24.5q0 1 0.5 2l0.5 1q7 17 13 30l6 13q-1 1 -2.5 1.5t-2.5 0.5q-1 1 -2 1.5t-2 0.5q-2 2 -4 4.5
t-5 7.5q-1 3 -2 7.5t-1 8.5q0 7 1.5 15.5t3.5 17.5q1 6 2.5 12t3.5 12q3 10 6 18t4 12q1 2 1.5 4t1.5 3q9 25 20.5 46t38.5 28q4 1 8.5 1.5t8.5 0.5q5 0 9 -0.5t7 -0.5t5 -0.5l2 -0.5l29.5 54t64.5 119q33 60 61 111.5t32 58.5q5 9 10 16t9 14q13 16 27 24t34 8h2.5h1.5
q13 0 29.5 -2t32.5 -5q37 -8 68.5 -25t33.5 -47q1 -10 1 -32.5v-54.5q0 -44 -0.5 -100.5t-1.5 -115.5q-1 -63 -3.5 -123t-5.5 -104v0zM400 382l-1 1q3 -3 7.5 -5t9.5 -2q1 -1 3 -1h3q5 0 9.5 1.5t8.5 4.5l14 137l-9 -17t-19 -39q-1 -3 -2.5 -6.5t-3.5 -6.5q-8 -19 -15 -36
t-7 -26q0 -1 0.5 -2.5t1.5 -2.5v0zM562 1041l68 -74q2 -2 3.5 -4t3.5 -4v0v0q4 -5 7.5 -9t5.5 -5q4 -3 5.5 -7.5t1.5 -10.5q0 -4 -1 -9l-2 -10q-5 -14 -15 -26t-22 -13h-2h-1q-1 0 -2 0.5t-2 0.5q-2 1 -3.5 1t-2.5 1l-10.5 3.5t-9.5 4.5q-2 1 -4 2.5t-4 2.5l-72 49
q-2 2 -5 3.5t-5 3.5q-13 8 -24 17t-11 20v1.5v1.5q1 6 6 17.5t13 24.5q3 7 7.5 13t8.5 12q6 9 12.5 15t11.5 7q1 0 2 0.5t2 0.5h2h2q9 0 14.5 -5t10.5 -12l1.5 -1.5l1.5 -1.5q2 -3 4 -5.5t4 -4.5v0z" />
    <glyph glyph-name="acircumflex" unicode="&#xe2;" horiz-adv-x="588" 
d="M613 177v1q0 -18 -1 -32t-3 -28q-1 -10 -2 -19t-2 -20q0 -6 -0.5 -13t-1.5 -15q-4 -37 -24.5 -46.5t-46.5 -9.5h-7.5h-6.5q-4 1 -7.5 1h-6.5q-5 0 -9.5 0.5t-9.5 1.5q-27 3 -49.5 15t-22.5 36v0.5v1.5v1.5v0.5q1 14 2 35t1 43q1 36 1.5 66.5l0.5 30.5q-2 -1 -4 -2.5
t-4 -3.5q-2 -1 -3.5 -2.5l-2.5 -2.5q-3 -3 -5.5 -5t-4.5 -4l-4 -4l-4 -4l-4.5 -4.5l-4.5 -4.5q-2 -1 -4 -1.5t-3 -1.5q-1 0 -1.5 -0.5t-1.5 -0.5q-4 -2 -7.5 -3t-8.5 -1h-7.5h-6.5h-9h-8t-7 0.5t-7 0.5l-12.5 -26t-27.5 -58q0 -1 -0.5 -2t-1.5 -2q-12 -25 -23 -46.5
t-16 -29.5q-9 -13 -21.5 -18t-26.5 -5h-4.5h-4.5q-9 1 -18 3l-18 4q-4 2 -7.5 3t-6.5 2q-2 1 -4.5 1.5t-5.5 1.5q-23 9 -42.5 23t-19.5 39q0 5 1 9.5t2 9.5q2 6 6.5 17.5t10.5 24.5q0 1 0.5 2l0.5 1q7 17 13 30l6 13q-1 1 -2.5 1.5t-2.5 0.5q-1 1 -2 1.5t-2 0.5q-2 2 -4 4.5
t-5 7.5q-1 3 -2 7.5t-1 8.5q0 7 1.5 15.5t3.5 17.5q1 6 2.5 12t3.5 12q3 10 6 18t4 12q1 2 1.5 4t1.5 3q9 25 20.5 46t38.5 28q4 1 8.5 1.5t8.5 0.5q5 0 9 -0.5t7 -0.5t5 -0.5l2 -0.5l29.5 54t64.5 119q33 60 61 111.5t32 58.5q5 9 10 16t9 14q13 16 27 24t34 8h2.5h1.5
q13 0 29.5 -2t32.5 -5q37 -8 68.5 -25t33.5 -47q1 -10 1 -32.5v-54.5q0 -44 -0.5 -100.5t-1.5 -115.5q-1 -63 -3.5 -123t-5.5 -104v0zM399 382l-1 1q3 -3 7.5 -5t9.5 -2q1 -1 3 -1h3q5 0 9.5 1.5t8.5 4.5l14 137l-9 -17t-19 -39q-1 -3 -2.5 -6.5t-3.5 -6.5q-8 -19 -15 -36
t-7 -26q0 -1 0.5 -2.5t1.5 -2.5v0zM601 1068l-2 -1q11 5 20.5 -7t17.5 -27q1 -4 3 -7t3 -6q2 -2 3.5 -4.5t2.5 -4.5l52 -77q1 -2 2 -5l2 -6t1.5 -5t0.5 -4v-0.5v-1.5t-0.5 -1.5l-0.5 -0.5q-1 -3 -3.5 -6t-5.5 -5q-5 -5 -12 -10t-13 -9q-11 -6 -20.5 -9t-13.5 0q-6 2 -9 6.5
t-5 10.5q0 1 -0.5 2.5t-1.5 2.5l-52 75l-96 -78l-3.5 -3.5t-2.5 -3.5q-5 -5 -10.5 -9t-12.5 -6q-1 -1 -2 -1h-3q-3 0 -6.5 1t-7.5 3q-7 4 -14 11t-10 14q-1 3 -2 5.5t-1 5.5q0 2 2 5.5t5 8.5q2 2 4.5 4t4.5 4q0 1 0.5 1.5t1.5 0.5l112 86q2 2 4.5 4t4.5 4q6 4 11 8.5t10 8.5
q11 8 22 15t20 11v0z" />
    <glyph glyph-name="adieresis" unicode="&#xe4;" horiz-adv-x="588" 
d="M613 177v1q0 -18 -1 -32t-3 -28q-1 -10 -2 -19t-2 -20q0 -6 -0.5 -13t-1.5 -15q-4 -37 -24.5 -46.5t-46.5 -9.5h-7.5h-6.5q-4 1 -7.5 1h-6.5q-5 0 -9.5 0.5t-9.5 1.5q-27 3 -49.5 15t-22.5 36v0.5v1.5v1.5v0.5q1 14 2 35t1 43q1 36 1.5 66.5l0.5 30.5q-2 -1 -4 -2.5
t-4 -3.5q-2 -1 -3.5 -2.5l-2.5 -2.5q-3 -3 -5.5 -5t-4.5 -4l-4 -4l-4 -4l-4.5 -4.5l-4.5 -4.5q-2 -1 -4 -1.5t-3 -1.5q-1 0 -1.5 -0.5t-1.5 -0.5q-4 -2 -7.5 -3t-8.5 -1h-7.5h-6.5h-9h-8t-7 0.5t-7 0.5l-12.5 -26t-27.5 -58q0 -1 -0.5 -2t-1.5 -2q-12 -25 -23 -46.5
t-16 -29.5q-9 -13 -21.5 -18t-26.5 -5h-4.5h-4.5q-9 1 -18 3l-18 4q-4 2 -7.5 3t-6.5 2q-2 1 -4.5 1.5t-5.5 1.5q-23 9 -42.5 23t-19.5 39q0 5 1 9.5t2 9.5q2 6 6.5 17.5t10.5 24.5q0 1 0.5 2l0.5 1q7 17 13 30l6 13q-1 1 -2.5 1.5t-2.5 0.5q-1 1 -2 1.5t-2 0.5q-2 2 -4 4.5
t-5 7.5q-1 3 -2 7.5t-1 8.5q0 7 1.5 15.5t3.5 17.5q1 6 2.5 12t3.5 12q3 10 6 18t4 12q1 2 1.5 4t1.5 3q9 25 20.5 46t38.5 28q4 1 8.5 1.5t8.5 0.5q5 0 9 -0.5t7 -0.5t5 -0.5l2 -0.5l29.5 54t64.5 119q33 60 61 111.5t32 58.5q5 9 10 16t9 14q13 16 27 24t34 8h2.5h1.5
q13 0 29.5 -2t32.5 -5q37 -8 68.5 -25t33.5 -47q1 -10 1 -32.5v-54.5q0 -44 -0.5 -100.5t-1.5 -115.5q-1 -63 -3.5 -123t-5.5 -104v0zM399 382l-1 1q3 -3 7.5 -5t9.5 -2q1 -1 3 -1h3q5 0 9.5 1.5t8.5 4.5l14 137l-9 -17t-19 -39q-1 -3 -2.5 -6.5t-3.5 -6.5q-8 -19 -15 -36
t-7 -26q0 -1 0.5 -2.5t1.5 -2.5v0zM465 1000h-1q37 -1 48.5 -20.5t11.5 -44.5v-2.5v-3.5q-1 -26 -19.5 -47t-44.5 -21h-1.5h-1.5q-25 2 -39 22t-14 48v1.5v1.5q1 20 14.5 37.5t30.5 24.5q3 2 7 3t8 1v0h1v0v0v0zM635 1000h-1q36 -1 47.5 -20.5t11.5 -44.5v-2.5v-3.5
q-1 -26 -19 -47t-44 -21h-1.5h-1.5q-25 2 -39 22t-14 48v1.5v1.5q1 20 14.5 37.5t30.5 24.5q3 2 7 3t8 1v0h1v0v0v0z" />
    <glyph glyph-name="atilde" unicode="&#xe3;" horiz-adv-x="588" 
d="M614 177v1q0 -18 -1 -32t-3 -28q-1 -10 -2 -19t-2 -20q0 -6 -0.5 -13t-1.5 -15q-4 -37 -24.5 -46.5t-46.5 -9.5h-7.5h-6.5q-4 1 -7.5 1h-6.5q-5 0 -9.5 0.5t-9.5 1.5q-27 3 -49.5 15t-22.5 36v0.5v1.5v1.5v0.5q1 14 2 35t1 43q1 36 1.5 66.5l0.5 30.5q-2 -1 -4 -2.5
t-4 -3.5q-2 -1 -3.5 -2.5l-2.5 -2.5q-3 -3 -5.5 -5t-4.5 -4l-4 -4l-4 -4l-4.5 -4.5l-4.5 -4.5q-2 -1 -4 -1.5t-3 -1.5q-1 0 -1.5 -0.5t-1.5 -0.5q-4 -2 -7.5 -3t-8.5 -1h-7.5h-6.5h-9h-8t-7 0.5t-7 0.5l-12.5 -26t-27.5 -58q0 -1 -0.5 -2t-1.5 -2q-12 -25 -23 -46.5
t-16 -29.5q-9 -13 -21.5 -18t-26.5 -5h-4.5h-4.5q-9 1 -18 3l-18 4q-4 2 -7.5 3t-6.5 2q-2 1 -4.5 1.5t-5.5 1.5q-23 9 -42.5 23t-19.5 39q0 5 1 9.5t2 9.5q2 6 6.5 17.5t10.5 24.5q0 1 0.5 2l0.5 1q7 17 13 30l6 13q-1 1 -2.5 1.5t-2.5 0.5q-1 1 -2 1.5t-2 0.5q-2 2 -4 4.5
t-5 7.5q-1 3 -2 7.5t-1 8.5q0 7 1.5 15.5t3.5 17.5q1 6 2.5 12t3.5 12q3 10 6 18t4 12q1 2 1.5 4t1.5 3q9 25 20.5 46t38.5 28q4 1 8.5 1.5t8.5 0.5q5 0 9 -0.5t7 -0.5t5 -0.5l2 -0.5l29.5 54t64.5 119q33 60 61 111.5t32 58.5q5 9 10 16t9 14q13 16 27 24t34 8h2.5h1.5
q13 0 29.5 -2t32.5 -5q37 -8 68.5 -25t33.5 -47q1 -10 1 -32.5v-54.5q0 -44 -0.5 -100.5t-1.5 -115.5q-1 -63 -3.5 -123t-5.5 -104v0zM400 382l-1 1q3 -3 7.5 -5t9.5 -2q1 -1 3 -1h3q5 0 9.5 1.5t8.5 4.5l14 137l-9 -17t-19 -39q-1 -3 -2.5 -6.5t-3.5 -6.5q-8 -19 -15 -36
t-7 -26q0 -1 0.5 -2.5t1.5 -2.5v0zM570 978l3 -1q5 -3 8.5 -5.5t7.5 -3.5q2 0 4 -0.5t4 -0.5q8 0 15.5 5t17.5 16l2.5 2.5l2.5 2.5l6 4t6 3q3 2 5.5 2.5t4.5 0.5h4.5t3.5 -2q5 -4 7 -9t2 -11q0 -5 -1.5 -10.5t-3.5 -11.5q-3 -6 -6.5 -12.5t-7.5 -12.5q-2 -3 -3.5 -5.5
t-3.5 -5.5q-6 -9 -19.5 -17t-30.5 -13h-1.5h-1.5q-8 -1 -16 4t-15 11q-2 1 -3.5 2.5t-3.5 2.5q-3 2 -6 5t-6 5q-7 6 -13.5 10.5t-13.5 4.5h-2h-2h-0.5h-1.5h-1.5h-0.5h-2h-3q-4 -1 -9.5 -5.5t-18.5 -18.5q-3 -3 -5.5 -7t-4.5 -8q-1 -2 -2.5 -4t-2.5 -4l-8 -12t-10 -11
q-10 -7 -14 3.5t-4 26.5v5.5v5.5q1 9 3 18.5t5 15.5q8 15 16 27t18 20q3 2 6.5 5t7.5 6q5 3 11.5 6.5t14.5 5.5q1 0 2 0.5t2 0.5h1h2q11 0 20.5 -7t18.5 -15q0 -1 0.5 -1h0.5q4 -4 7.5 -7t7.5 -6v0z" />
    <glyph glyph-name="aring" unicode="&#xe5;" horiz-adv-x="588" 
d="M614 177v1q0 -18 -1 -32t-3 -28q-1 -10 -2 -19t-2 -20q0 -6 -0.5 -13t-1.5 -15q-4 -37 -24.5 -46.5t-46.5 -9.5h-7.5h-6.5q-4 1 -7.5 1h-6.5q-5 0 -9.5 0.5t-9.5 1.5q-27 3 -49.5 15t-22.5 36v0.5v1.5v1.5v0.5q1 14 2 35t1 43q1 36 1.5 66.5l0.5 30.5q-2 -1 -4 -2.5
t-4 -3.5q-2 -1 -3.5 -2.5l-2.5 -2.5q-3 -3 -5.5 -5t-4.5 -4l-4 -4l-4 -4l-4.5 -4.5l-4.5 -4.5q-2 -1 -4 -1.5t-3 -1.5q-1 0 -1.5 -0.5t-1.5 -0.5q-4 -2 -7.5 -3t-8.5 -1h-7.5h-6.5h-9h-8t-7 0.5t-7 0.5l-12.5 -26t-27.5 -58q0 -1 -0.5 -2t-1.5 -2q-12 -25 -23 -46.5
t-16 -29.5q-9 -13 -21.5 -18t-26.5 -5h-4.5h-4.5q-9 1 -18 3l-18 4q-4 2 -7.5 3t-6.5 2q-2 1 -4.5 1.5t-5.5 1.5q-23 9 -42.5 23t-19.5 39q0 5 1 9.5t2 9.5q2 6 6.5 17.5t10.5 24.5q0 1 0.5 2l0.5 1q7 17 13 30l6 13q-1 1 -2.5 1.5t-2.5 0.5q-1 1 -2 1.5t-2 0.5q-2 2 -4 4.5
t-5 7.5q-1 3 -2 7.5t-1 8.5q0 7 1.5 15.5t3.5 17.5q1 6 2.5 12t3.5 12q3 10 6 18t4 12q1 2 1.5 4t1.5 3q9 25 20.5 46t38.5 28q4 1 8.5 1.5t8.5 0.5q5 0 9 -0.5t7 -0.5t5 -0.5l2 -0.5l29.5 54t64.5 119q33 60 61 111.5t32 58.5q5 9 10 16t9 14q13 16 27 24t34 8h2.5h1.5
q13 0 29.5 -2t32.5 -5q37 -8 68.5 -25t33.5 -47q1 -10 1 -32.5v-54.5q0 -44 -0.5 -100.5t-1.5 -115.5q-1 -63 -3.5 -123t-5.5 -104v0zM400 382l-1 1q3 -3 7.5 -5t9.5 -2q1 -1 3 -1h3q5 0 9.5 1.5t8.5 4.5l14 137l-9 -17t-19 -39q-1 -3 -2.5 -6.5t-3.5 -6.5q-8 -19 -15 -36
t-7 -26q0 -1 0.5 -2.5t1.5 -2.5v0zM547 868q-38 0 -57 23.5t-19 51.5q-1 29 18.5 52.5t57.5 23.5t56.5 -23t19.5 -52q0 -28 -19 -52t-57 -24v0zM547 996q-25 -1 -37.5 -16.5t-12.5 -34.5v-1.5v-1.5q1 -19 14 -34.5t38 -15.5h0.5h1.5q25 1 37.5 16.5t12.5 34.5v1.5v1.5
q-1 19 -14 34.5t-38 15.5h-0.5h-1.5v0z" />
    <glyph glyph-name="ccedilla" unicode="&#xe7;" horiz-adv-x="584" 
d="M304 -12l-2 -3l-3 -7.5t-1 -5.5q-1 -1 -1 -3v-4v-2v-2v-5v-2l3 1t7 2q1 0 2 0.5t2 0.5q4 1 7 1.5t5 0.5v0h1v0v0q22 0 35 -15.5t16 -34.5v-3v-4v-3.5v-2.5q-1 -8 -2 -15.5t-3 -14.5q-2 -9 -7 -18.5t-13 -20.5q-7 -10 -18.5 -18t-23.5 -13q-7 -3 -14 -4.5t-13 -1.5h-0.5
h-0.5h-0.5h-0.5q-4 0 -7.5 0.5t-7.5 1.5q-17 3 -32 15t-18 42v0.5v0.5v0.5v0.5q0 7 4.5 12t14.5 6h3h2q2 1 3 1h2h5t7 -1q8 0 10 -3t3 -7q1 -1 1 -1.5v-0.5q1 -4 4.5 -7.5t13.5 -4.5v0h1v0v0q12 0 20.5 11.5t10.5 24.5v1.5v1.5v0.5v0.5v0.5v0.5q0 14 -6.5 20.5t-17.5 6.5
q-7 0 -14 -3t-15 -8l-28 38l16 59q-10 3 -21 9.5t-22 16.5q-28 24 -51.5 74t-23.5 137v10v10q9 248 124.5 398.5t262.5 150.5h2h2h1h2q98 -2 134 -52t36 -119q0 -40 -11 -73t-46 -53q-10 -6 -30 -10t-43 -4q-27 0 -49.5 8t-21.5 28q0 6 1.5 13.5t4.5 15.5v1v1q2 7 3.5 14.5
t1.5 13.5q0 9 -4.5 14.5t-15.5 5.5h-8t-9 -2q-5 -1 -10.5 -5t-10.5 -10q-11 -12 -21.5 -30t-19.5 -37q-12 -26 -21 -48.5t-13 -30.5q-3 -7 -8 -24.5t-10 -38.5q-2 -9 -4 -17.5t-4 -17.5q-6 -30 -10.5 -57t-4.5 -39v-1.5v-1.5q1 -20 9.5 -32t20.5 -13q8 0 17 5.5t18 17.5
q1 2 2 3.5t2 2.5q6 9 10.5 17.5t8.5 17.5q11 22 28.5 38.5t69.5 19.5h5.5t4.5 1h4.5h5.5q34 0 54.5 -10.5t20.5 -40.5q0 -8 -1.5 -18t-5.5 -22q-2 -5 -3.5 -10.5t-3.5 -10.5q-31 -86 -100.5 -157t-171.5 -71h-13.5t-13.5 1v-1z" />
    <glyph glyph-name="eacute" unicode="&#xe9;" horiz-adv-x="581" 
d="M639 583l-259 11v-1.5v-0.5v-1.5v-1.5q0 -12 6.5 -18t15.5 -11q1 0 2.5 -1t2.5 -1q6 -3 10.5 -6.5t5.5 -8.5q0 -1 0.5 -3t0.5 -3v-3.5v-3.5v-2.5v-3.5q0 -5 -0.5 -10t-1.5 -9q0 -3 -0.5 -5.5t-0.5 -4.5q-1 -7 -1.5 -13.5t-0.5 -13.5l25.5 -0.5t57.5 -1.5h5h5
q30 -1 56 -1.5t34 -0.5q12 0 20.5 -11t8.5 -25v-1.5v-1.5q-1 -10 -7 -34t-16 -51q-4 -11 -8.5 -21t-9.5 -19q0 -1 -0.5 -1.5l-0.5 -0.5q-5 -9 -14.5 -15.5t-43.5 -7.5h-3.5h-4.5q-14 0 -35 0.5t-43 1.5q-7 1 -13.5 1t-13.5 1q-28 1 -48.5 2l-20.5 1l-22 -107h131h10h10h5h5
h1.5h1.5q25 1 45.5 -5t20.5 -29v-0.5v-1.5v-1.5v-0.5q-1 -17 -3 -32t-5 -29q-3 -11 -7 -22.5t-9 -23.5q-10 -25 -25 -31t-33 -6h-7h-8q-1 1 -2 1h-3h-4.5h-5.5q-20 1 -38.5 1h-35.5h-35.5t-31.5 -1h-26h-23q-42 0 -62 6.5t-36 31.5q-1 1 -1.5 2.5t-1.5 2.5q-6 10 -11.5 19.5
t-10.5 18.5q-6 12 -10.5 23.5t-5.5 25.5q0 7 0.5 12t1.5 10q1 3 1.5 5.5t0.5 5.5l32 119q-2 1 -4 1.5t-4 0.5q-9 3 -17.5 8.5t-10.5 19.5v2v2v2v2v2.5v3.5q1 12 2.5 23.5t4.5 20.5q1 4 1.5 7t1.5 5q1 6 3 11.5t4 11.5q3 11 7.5 21t8.5 19q5 10 9.5 16.5t8.5 7.5q6 2 11 3.5
t10 2.5h3.5h3.5q4 0 8 -0.5t8 -1.5l40 124l-40 -2q-13 0 -20.5 10t-7.5 22v0.5v1.5v1.5v0.5q4 16 11.5 39.5t14.5 49.5q2 4 3 7.5t2 7.5q1 3 1.5 5.5t1.5 4.5q9 27 24.5 40.5t66.5 13.5l329 1q46 0 64 -9.5t21 -21.5q1 -3 1.5 -5.5t0.5 -4.5q0 -3 -0.5 -6.5t-1.5 -6.5
q0 -1 -0.5 -2t-0.5 -2q-1 -2 -1.5 -4.5t-0.5 -4.5q-3 -12 -5.5 -25.5t-6.5 -27.5q-8 -34 -23 -63t-45 -28v0zM444 962l89 74q3 2 5.5 4.5l5.5 5.5l2 2l2 2q7 7 13.5 11.5t15.5 4.5h4t4 -1q2 0 3.5 -1.5l3.5 -3.5q5 -6 10.5 -17.5t9.5 -24.5q4 -11 6 -21.5t2 -17.5v-1.5v-1.5
q-1 -11 -14 -20.5t-28 -18.5q-4 -2 -7.5 -4t-7.5 -4l-86 -49q-3 -2 -6.5 -3.5t-6.5 -3.5q-5 -2 -9.5 -3.5t-9.5 -2.5q-2 -1 -3.5 -1t-3.5 -1q-1 0 -2 -0.5l-1 -0.5h-2h-2q-13 0 -19.5 12t-7.5 26v1.5v1.5q0 11 3.5 21t10.5 14q2 1 7 5t10 9v0h1l4 4l4 4v0z" />
    <glyph glyph-name="egrave" unicode="&#xe8;" horiz-adv-x="581" 
d="M639 583l-259 11v-1.5v-0.5v-1.5v-1.5q0 -12 6.5 -18t15.5 -11q1 0 2.5 -1t2.5 -1q6 -3 10.5 -6.5t5.5 -8.5q0 -1 0.5 -3t0.5 -3v-3.5v-3.5v-2.5v-3.5q0 -5 -0.5 -10t-1.5 -9q0 -3 -0.5 -5.5t-0.5 -4.5q-1 -7 -1.5 -13.5t-0.5 -13.5l25.5 -0.5t57.5 -1.5h5h5
q30 -1 56 -1.5t34 -0.5q12 0 20.5 -11t8.5 -25v-1.5v-1.5q-1 -10 -7 -34t-16 -51q-4 -11 -8.5 -21t-9.5 -19q0 -1 -0.5 -1.5l-0.5 -0.5q-5 -9 -14.5 -15.5t-43.5 -7.5h-3.5h-4.5q-14 0 -35 0.5t-43 1.5q-7 1 -13.5 1t-13.5 1q-28 1 -48.5 2l-20.5 1l-22 -107h131h10h10h5h5
h1.5h1.5q25 1 45.5 -5t20.5 -29v-0.5v-1.5v-1.5v-0.5q-1 -17 -3 -32t-5 -29q-3 -11 -7 -22.5t-9 -23.5q-10 -25 -25 -31t-33 -6h-7h-8q-1 1 -2 1h-3h-4.5h-5.5q-20 1 -38.5 1h-35.5h-35.5t-31.5 -1h-26h-23q-42 0 -62 6.5t-36 31.5q-1 1 -1.5 2.5t-1.5 2.5q-6 10 -11.5 19.5
t-10.5 18.5q-6 12 -10.5 23.5t-5.5 25.5q0 7 0.5 12t1.5 10q1 3 1.5 5.5t0.5 5.5l32 119q-2 1 -4 1.5t-4 0.5q-9 3 -17.5 8.5t-10.5 19.5v2v2v2v2v2.5v3.5q1 12 2.5 23.5t4.5 20.5q1 4 1.5 7t1.5 5q1 6 3 11.5t4 11.5q3 11 7.5 21t8.5 19q5 10 9.5 16.5t8.5 7.5q6 2 11 3.5
t10 2.5h3.5h3.5q4 0 8 -0.5t8 -1.5l40 124l-40 -2q-13 0 -20.5 10t-7.5 22v0.5v1.5v1.5v0.5q4 16 11.5 39.5t14.5 49.5q2 4 3 7.5t2 7.5q1 3 1.5 5.5t1.5 4.5q9 27 24.5 40.5t66.5 13.5l329 1q46 0 64 -9.5t21 -21.5q1 -3 1.5 -5.5t0.5 -4.5q0 -3 -0.5 -6.5t-1.5 -6.5
q0 -1 -0.5 -2t-0.5 -2q-1 -2 -1.5 -4.5t-0.5 -4.5q-3 -12 -5.5 -25.5t-6.5 -27.5q-8 -34 -23 -63t-45 -28v0zM517 1036l68 -74q2 -2 3.5 -4t3.5 -4v0v0q4 -5 7.5 -9t5.5 -5q4 -3 5.5 -7.5t1.5 -10.5q0 -4 -1 -9l-2 -10q-5 -14 -15 -26t-22 -13h-2h-1q-1 0 -2 0.5t-2 0.5
q-2 1 -3.5 1t-2.5 1l-10.5 3.5t-9.5 4.5q-2 1 -4 2.5t-4 2.5l-73 49l-6 4t-5 4q-13 8 -23 17t-10 19v1.5v1.5q1 6 6 17.5t13 24.5q3 6 7 12l8 12q6 9 12.5 15.5t11.5 7.5q1 0 2 0.5t2 0.5h2h2q10 0 16 -5.5t11 -12.5l0.5 -1t1.5 -1q2 -3 4 -5.5t4 -4.5v0z" />
    <glyph glyph-name="ecircumflex" unicode="&#xea;" horiz-adv-x="581" 
d="M639 583l-259 11v-1.5v-0.5v-1.5v-1.5q0 -12 6.5 -18t15.5 -11q1 0 2.5 -1t2.5 -1q6 -3 10.5 -6.5t5.5 -8.5q0 -1 0.5 -3t0.5 -3v-3.5v-3.5v-2.5v-3.5q0 -5 -0.5 -10t-1.5 -9q0 -3 -0.5 -5.5t-0.5 -4.5q-1 -7 -1.5 -13.5t-0.5 -13.5l25.5 -0.5t57.5 -1.5h5h5
q30 -1 56 -1.5t34 -0.5q12 0 20.5 -11t8.5 -25v-1.5v-1.5q-1 -10 -7 -34t-16 -51q-4 -11 -8.5 -21t-9.5 -19q0 -1 -0.5 -1.5l-0.5 -0.5q-5 -9 -14.5 -15.5t-43.5 -7.5h-3.5h-4.5q-14 0 -35 0.5t-43 1.5q-7 1 -13.5 1t-13.5 1q-28 1 -48.5 2l-20.5 1l-22 -107h131h10h10h5h5
h1.5h1.5q25 1 45.5 -5t20.5 -29v-0.5v-1.5v-1.5v-0.5q-1 -17 -3 -32t-5 -29q-3 -11 -7 -22.5t-9 -23.5q-10 -25 -25 -31t-33 -6h-7h-8q-1 1 -2 1h-3h-4.5h-5.5q-20 1 -38.5 1h-35.5h-35.5t-31.5 -1h-26h-23q-42 0 -62 6.5t-36 31.5q-1 1 -1.5 2.5t-1.5 2.5q-6 10 -11.5 19.5
t-10.5 18.5q-6 12 -10.5 23.5t-5.5 25.5q0 7 0.5 12t1.5 10q1 3 1.5 5.5t0.5 5.5l32 119q-2 1 -4 1.5t-4 0.5q-9 3 -17.5 8.5t-10.5 19.5v2v2v2v2v2.5v3.5q1 12 2.5 23.5t4.5 20.5q1 4 1.5 7t1.5 5q1 6 3 11.5t4 11.5q3 11 7.5 21t8.5 19q5 10 9.5 16.5t8.5 7.5q6 2 11 3.5
t10 2.5h3.5h3.5q4 0 8 -0.5t8 -1.5l40 124l-40 -2q-13 0 -20.5 10t-7.5 22v0.5v1.5v1.5v0.5q4 16 11.5 39.5t14.5 49.5q2 4 3 7.5t2 7.5q1 3 1.5 5.5t1.5 4.5q9 27 24.5 40.5t66.5 13.5l329 1q46 0 64 -9.5t21 -21.5q1 -3 1.5 -5.5t0.5 -4.5q0 -3 -0.5 -6.5t-1.5 -6.5
q0 -1 -0.5 -2t-0.5 -2q-1 -2 -1.5 -4.5t-0.5 -4.5q-3 -12 -5.5 -25.5t-6.5 -27.5q-8 -34 -23 -63t-45 -28v0zM578 1064l-2 -1q11 5 20.5 -7t17.5 -27q1 -4 3 -7t3 -6q2 -2 3.5 -4.5t2.5 -4.5l52 -77q1 -2 2 -5l2 -6t1.5 -5t0.5 -4v-0.5v-1.5t-0.5 -1.5l-0.5 -0.5
q-1 -3 -3.5 -6t-5.5 -5q-5 -5 -12 -10t-13 -9q-11 -6 -20.5 -9t-13.5 0q-6 2 -9 6.5t-5 10.5q0 1 -0.5 2.5t-1.5 2.5l-52 75l-96 -78l-3.5 -3.5t-2.5 -3.5q-5 -5 -10.5 -9t-12.5 -6q-1 -1 -2 -1h-3q-3 0 -6.5 1t-7.5 3q-7 4 -14 11t-10 14q-1 3 -2 5.5t-1 5.5q0 2 2 5.5
t5 8.5q2 2 4.5 4t4.5 4q0 1 0.5 1.5t1.5 0.5l112 86q2 2 4.5 4t4.5 4q6 4 11 8.5t10 8.5q11 8 22 15t20 11v0z" />
    <glyph glyph-name="edieresis" unicode="&#xeb;" horiz-adv-x="581" 
d="M639 583l-259 11v-1.5v-0.5v-1.5v-1.5q0 -12 6.5 -18t15.5 -11q1 0 2.5 -1t2.5 -1q6 -3 10.5 -6.5t5.5 -8.5q0 -1 0.5 -3t0.5 -3v-3.5v-3.5v-2.5v-3.5q0 -5 -0.5 -10t-1.5 -9q0 -3 -0.5 -5.5t-0.5 -4.5q-1 -7 -1.5 -13.5t-0.5 -13.5l25.5 -0.5t57.5 -1.5h5h5
q30 -1 56 -1.5t34 -0.5q12 0 20.5 -11t8.5 -25v-1.5v-1.5q-1 -10 -7 -34t-16 -51q-4 -11 -8.5 -21t-9.5 -19q0 -1 -0.5 -1.5l-0.5 -0.5q-5 -9 -14.5 -15.5t-43.5 -7.5h-3.5h-4.5q-14 0 -35 0.5t-43 1.5q-7 1 -13.5 1t-13.5 1q-28 1 -48.5 2l-20.5 1l-22 -107h131h10h10h5h5
h1.5h1.5q25 1 45.5 -5t20.5 -29v-0.5v-1.5v-1.5v-0.5q-1 -17 -3 -32t-5 -29q-3 -11 -7 -22.5t-9 -23.5q-10 -25 -25 -31t-33 -6h-7h-8q-1 1 -2 1h-3h-4.5h-5.5q-20 1 -38.5 1h-35.5h-35.5t-31.5 -1h-26h-23q-42 0 -62 6.5t-36 31.5q-1 1 -1.5 2.5t-1.5 2.5q-6 10 -11.5 19.5
t-10.5 18.5q-6 12 -10.5 23.5t-5.5 25.5q0 7 0.5 12t1.5 10q1 3 1.5 5.5t0.5 5.5l32 119q-2 1 -4 1.5t-4 0.5q-9 3 -17.5 8.5t-10.5 19.5v2v2v2v2v2.5v3.5q1 12 2.5 23.5t4.5 20.5q1 4 1.5 7t1.5 5q1 6 3 11.5t4 11.5q3 11 7.5 21t8.5 19q5 10 9.5 16.5t8.5 7.5q6 2 11 3.5
t10 2.5h3.5h3.5q4 0 8 -0.5t8 -1.5l40 124l-40 -2q-13 0 -20.5 10t-7.5 22v0.5v1.5v1.5v0.5q4 16 11.5 39.5t14.5 49.5q2 4 3 7.5t2 7.5q1 3 1.5 5.5t1.5 4.5q9 27 24.5 40.5t66.5 13.5l329 1q46 0 64 -9.5t21 -21.5q1 -3 1.5 -5.5t0.5 -4.5q0 -3 -0.5 -6.5t-1.5 -6.5
q0 -1 -0.5 -2t-0.5 -2q-1 -2 -1.5 -4.5t-0.5 -4.5q-3 -12 -5.5 -25.5t-6.5 -27.5q-8 -34 -23 -63t-45 -28v0zM424 1004h-1q36 -1 47.5 -20.5t11.5 -44.5v-2.5v-3.5q-1 -26 -19 -47t-44 -21h-1.5h-1.5q-25 2 -39 22t-14 48v1.5v1.5q1 20 14.5 37.5t30.5 24.5q3 2 7 3t8 1v0h1
v0v0v0zM594 1004h-1q36 -1 47.5 -20.5t11.5 -44.5v-2.5v-3.5q-1 -26 -19 -47t-44 -21h-1.5h-1.5q-25 2 -39 22t-14 48v1.5v1.5q1 20 14.5 37.5t30.5 24.5q3 2 7 3t8 1v0h1v0v0v0z" />
    <glyph glyph-name="iacute" unicode="&#xed;" horiz-adv-x="372" 
d="M308 765l-2 -2q2 10 23.5 16.5t47.5 6.5h1.5h1.5q9 0 18 -0.5t16 -2.5q3 -1 6.5 -1.5t6.5 -1.5q27 -6 49.5 -16.5t25.5 -36.5v-0.5v-1.5v-1.5v-0.5q0 -8 -2.5 -14.5t-4.5 -12.5l-1 -1v0q-1 -4 -2.5 -7t-2.5 -7q-15 -55 -35 -131t-41 -157q-1 -2 -1.5 -4.5t-1.5 -4.5
q-35 -134 -65.5 -245t-36.5 -123q-8 -15 -23 -20.5t-33 -5.5q-8 0 -16 1t-17 2q-5 1 -11 2.5t-11 2.5q-1 0 -2 0.5t-2 0.5q-26 5 -49 15t-30 38q-1 5 -1.5 10t-0.5 10q0 15 3.5 32.5t9.5 35.5q1 5 3 11l4 12q2 16 28.5 105t58.5 194l0.5 1t0.5 2q1 3 1.5 5.5t1.5 4.5
q31 103 57 189.5t28 100.5v0zM374 957l88 74q3 2 5.5 4.5l5.5 5.5l1.5 1.5l1.5 1.5q7 7 14.5 12t16.5 5h4t4 -1q2 0 3.5 -1.5l3.5 -3.5q5 -6 10.5 -17.5t9.5 -24.5q4 -11 6 -21.5t2 -17.5v-1.5v-1.5q-1 -11 -15 -21t-30 -19q-3 -2 -6.5 -3.5t-6.5 -3.5l-85 -49
q-3 -2 -6.5 -3.5t-6.5 -3.5q-5 -2 -9.5 -3.5t-9.5 -2.5q-2 -1 -3.5 -1t-3.5 -1q-1 0 -2 -0.5l-1 -0.5h-2h-2q-13 0 -19.5 12t-7.5 26v1.5v1.5q0 11 3.5 21t10.5 14q2 1 7 5t10 9v0h1l4 4l4 4v0z" />
    <glyph glyph-name="igrave" unicode="&#xec;" horiz-adv-x="372" 
d="M308 765l-2 -2q2 10 23.5 16.5t47.5 6.5h1.5h1.5q9 0 18 -0.5t16 -2.5q3 -1 6.5 -1.5t6.5 -1.5q27 -6 49.5 -16.5t25.5 -36.5v-0.5v-1.5v-1.5v-0.5q0 -8 -2.5 -14.5t-4.5 -12.5l-1 -1v0q-1 -4 -2.5 -7t-2.5 -7q-15 -55 -35 -131t-41 -157q-1 -2 -1.5 -4.5t-1.5 -4.5
q-35 -134 -65.5 -245t-36.5 -123q-8 -15 -23 -20.5t-33 -5.5q-8 0 -16 1t-17 2q-5 1 -11 2.5t-11 2.5q-1 0 -2 0.5t-2 0.5q-26 5 -49 15t-30 38q-1 5 -1.5 10t-0.5 10q0 15 3.5 32.5t9.5 35.5q1 5 3 11l4 12q2 16 28.5 105t58.5 194l0.5 1t0.5 2q1 3 1.5 5.5t1.5 4.5
q31 103 57 189.5t28 100.5v0zM443 1033l69 -74q2 -2 3.5 -4t3.5 -4v0v0q4 -5 7.5 -9t5.5 -5q4 -3 5.5 -7.5t1.5 -10.5q0 -4 -1 -9l-2 -10q-5 -14 -15 -26t-23 -13h-2h-1q-1 0 -2 0.5t-2 0.5q-2 1 -3.5 1t-2.5 1l-10.5 3.5t-9.5 4.5q-2 1 -4 2.5t-4 2.5l-72 49l-6 4t-5 4
q-13 8 -23 17t-10 19v1.5v1.5q1 6 6 17.5t13 24.5q3 6 7 12l8 12q6 9 12.5 15.5t11.5 7.5q1 0 2 0.5t2 0.5h2h2q9 0 14.5 -5t10.5 -12l1.5 -1.5l1.5 -1.5q2 -3 4 -5.5t4 -4.5v0z" />
    <glyph glyph-name="icircumflex" unicode="&#xee;" horiz-adv-x="372" 
d="M308 765l-2 -2q2 10 23.5 16.5t47.5 6.5h1.5h1.5q9 0 18 -0.5t16 -2.5q3 -1 6.5 -1.5t6.5 -1.5q27 -6 49.5 -16.5t25.5 -36.5v-0.5v-1.5v-1.5v-0.5q0 -8 -2.5 -14.5t-4.5 -12.5l-1 -1v0q-1 -4 -2.5 -7t-2.5 -7q-15 -55 -35 -131t-41 -157q-1 -2 -1.5 -4.5t-1.5 -4.5
q-35 -134 -65.5 -245t-36.5 -123q-8 -15 -23 -20.5t-33 -5.5q-8 0 -16 1t-17 2q-5 1 -11 2.5t-11 2.5q-1 0 -2 0.5t-2 0.5q-26 5 -49 15t-30 38q-1 5 -1.5 10t-0.5 10q0 15 3.5 32.5t9.5 35.5q1 5 3 11l4 12q2 16 28.5 105t58.5 194l0.5 1t0.5 2q1 3 1.5 5.5t1.5 4.5
q31 103 57 189.5t28 100.5v0zM488 1061l-2 -1q12 5 21.5 -7t17.5 -27q2 -4 3.5 -7.5t3.5 -6.5q1 -2 2.5 -4t2.5 -4l52 -77q1 -2 2 -5l2 -6t1.5 -5t0.5 -4v-0.5v-1.5t-0.5 -1.5l-0.5 -0.5q-1 -3 -3.5 -6t-5.5 -5q-5 -5 -12 -10t-13 -9q-11 -6 -20.5 -9t-13.5 0q-6 2 -9 6.5
t-5 10.5q0 1 -0.5 2.5t-1.5 2.5l-53 75l-95 -78l-3.5 -3.5t-2.5 -3.5q-5 -5 -10.5 -9t-12.5 -6q-1 -1 -2 -1h-3q-3 0 -6.5 1t-7.5 3q-7 4 -14 11t-10 14q-1 3 -2 5.5t-1 5.5q0 2 2 5.5t5 8.5q2 2 4.5 4t4.5 4q0 1 0.5 1.5t1.5 0.5l111 86q2 2 4.5 4t4.5 4q6 4 11 8.5t10 8.5
q11 8 22 15t20 11v0z" />
    <glyph glyph-name="idieresis" unicode="&#xef;" horiz-adv-x="372" 
d="M308 765l-2 -2q2 10 23.5 16.5t47.5 6.5h1.5h1.5q9 0 18 -0.5t16 -2.5q3 -1 6.5 -1.5t6.5 -1.5q27 -6 49.5 -16.5t25.5 -36.5v-0.5v-1.5v-1.5v-0.5q0 -8 -2.5 -14.5t-4.5 -12.5l-1 -1v0q-1 -4 -2.5 -7t-2.5 -7q-15 -55 -35 -131t-41 -157q-1 -2 -1.5 -4.5t-1.5 -4.5
q-35 -134 -65.5 -245t-36.5 -123q-8 -15 -23 -20.5t-33 -5.5q-8 0 -16 1t-17 2q-5 1 -11 2.5t-11 2.5q-1 0 -2 0.5t-2 0.5q-26 5 -49 15t-30 38q-1 5 -1.5 10t-0.5 10q0 15 3.5 32.5t9.5 35.5q1 5 3 11l4 12q2 16 28.5 105t58.5 194l0.5 1t0.5 2q1 3 1.5 5.5t1.5 4.5
q31 103 57 189.5t28 100.5v0zM363 998h-1q36 -1 47.5 -20.5t11.5 -44.5v-2.5v-3.5q-1 -26 -19 -47t-44 -21h-1.5h-1.5q-25 2 -39 22t-14 48v1.5v1.5q1 20 14.5 37.5t30.5 24.5q3 2 7 3t8 1v0h1v0v0v0zM533 998h-1q36 -1 47.5 -20.5t11.5 -44.5v-2.5v-3.5q-1 -26 -19 -47
t-44 -21h-1.5h-1.5q-25 2 -39.5 22t-14.5 48v1.5v1.5q1 19 14.5 37t29.5 25q5 2 9 3t8 1v0h1v0v0v0z" />
    <glyph glyph-name="ntilde" unicode="&#xf1;" horiz-adv-x="684" 
d="M647 23l-1 -1q-2 -10 -17.5 -14.5t-38.5 -4.5q-12 0 -24.5 1t-25.5 3q-29 5 -55.5 14.5t-40.5 22.5q-6 5 -11 31t-10 57q-2 10 -3.5 20.5t-2.5 19.5l-41 252l-102 -373q-2 -8 -4 -15t-4 -12q-6 -15 -13.5 -18t-21.5 -3h-11t-14 -1h-2.5h-2.5q-2 -1 -3.5 -1h-3.5
q-9 0 -21.5 1t-25.5 4q-25 5 -45.5 16t-21.5 31q0 7 0.5 13t1.5 11q0 4 1 8l2 8l36 121l148 512v1.5t1 1.5q4 19 15.5 34.5t32.5 15.5h3.5h3.5q1 0 3 -0.5t3 -0.5q3 -1 6 -1.5t6 -0.5q7 -1 13 -2.5t13 -2.5q32 -6 62.5 -17.5t50.5 -36.5q14 -18 23.5 -45.5t17.5 -60.5
q2 -11 5 -22l6 -22q2 -7 3.5 -13t3.5 -12q3 -12 6 -22.5t6 -20.5v-0.5t1 -1.5q3 -10 6 -21t6 -24l15 72q3 16 10.5 47.5t15.5 66.5q1 4 2 7t1 7q7 28 14 54t11 41q1 2 2 4.5t3 5.5q4 8 12 15t18 7q1 1 1.5 0.5t1.5 -0.5h1.5h0.5q4 0 26 -3t48 -10q27 -8 50.5 -21.5
t23.5 -34.5q0 -7 -1 -14t-3 -13q-1 -3 -1.5 -5.5t-1.5 -5.5l-2 -8t-2 -9q-7 -33 -19 -82t-26 -101q-3 -11 -6.5 -22.5t-6.5 -23.5q-4 -13 -7.5 -26t-7.5 -25q-5 -18 -18.5 -60.5t-28.5 -89.5q-18 -59 -33.5 -108t-15.5 -53v-1.5v-1.5q0 -5 0.5 -9.5t1.5 -7.5q0 -2 0.5 -4
t0.5 -4q1 -2 1 -3.5v-3.5v-2.5v-3.5v0zM602 973l3 -1q5 -3 8.5 -5.5t7.5 -3.5q2 0 4 -0.5t4 -0.5q8 0 15.5 5t17.5 16l2.5 2.5l2.5 2.5l6 4t6 3q3 2 5.5 2.5t4.5 0.5h4.5t3.5 -2q5 -4 7 -9t2 -11q0 -5 -1.5 -10.5t-3.5 -11.5q-3 -6 -6.5 -12.5t-7.5 -12.5q-2 -3 -3.5 -5.5
t-3.5 -5.5q-6 -9 -19.5 -17t-30.5 -13h-1.5h-1.5q-8 -1 -16 4t-15 11q-2 1 -3.5 2.5t-3.5 2.5q-3 2 -6 5t-6 5q-7 6 -13.5 10.5t-13.5 4.5h-2h-2h-0.5h-1.5h-1.5h-0.5h-2.5h-2.5q-4 -1 -9.5 -5.5t-17.5 -18.5q-3 -4 -6 -8.5t-6 -8.5q-1 -2 -2 -3.5t-2 -2.5l-8 -12t-10 -11
q-10 -7 -14 3.5t-4 26.5v5.5v5.5q1 9 3 18.5t5 15.5q8 15 16 27t19 20q3 2 6.5 5t6.5 6q5 3 11.5 6.5t14.5 5.5q1 0 2 0.5t2 0.5h1h2q11 0 20.5 -7t18.5 -15q0 -1 0.5 -1h0.5q4 -4 7.5 -7t7.5 -6v0z" />
    <glyph glyph-name="oacute" unicode="&#xf3;" horiz-adv-x="647" 
d="M551 762h-1v-52l43 36q5 4 10.5 8.5t11.5 9.5q9 8 19 14.5t20 10.5q4 1 7.5 1.5t6.5 0.5q7 0 13.5 -2.5t12.5 -9.5q41 -43 50 -94.5t12 -113.5v-4.5v-4.5v-6t1 -6v-5.5v-5.5q0 -32 -3.5 -65.5t-10.5 -67.5q-33 -160 -131.5 -293t-231.5 -133q-22 0 -44.5 4.5t-45.5 13.5
q-94 38 -125.5 108t-31.5 169q0 193 114.5 354t253.5 174h2.5t2.5 1h2.5h2.5q24 0 32 -12.5t8 -29.5v0zM497 311l2 -1q8 22 15 40t12 35q5 19 8.5 39t5.5 44q2 23 2.5 39.5t0.5 28.5q0 13 -1 22.5t-2 17.5q-2 10 -4.5 21.5t-5.5 27.5l-31 -25q-7 -6 -12.5 -9.5t-10.5 -6.5
l-1.5 -1.5l-1.5 -1.5q-7 -4 -14 -10.5t-17 -19.5q-9 -11 -20.5 -27t-23.5 -36q-22 -38 -40.5 -90t-20.5 -113v-0.5v-1.5v-1.5v-0.5q0 -7 0.5 -14t1.5 -14q3 -24 14.5 -44t33.5 -21v0h1v0v0q22 0 43 21t37 46q10 16 17.5 31t11.5 25v0zM540 961l88 74q3 2 5.5 4.5l5.5 5.5
l2 2l2 2q7 7 13.5 11.5t15.5 4.5h4t4 -1q2 0 3.5 -1.5l3.5 -3.5q5 -6 10.5 -17.5t9.5 -24.5q4 -11 6 -21.5t2 -17.5v-1.5v-1.5q-1 -11 -14 -20.5t-28 -18.5q-4 -2 -7.5 -4t-7.5 -4l-85 -49q-3 -2 -6.5 -3.5t-6.5 -3.5q-5 -2 -9.5 -3.5t-9.5 -2.5q-2 -1 -3.5 -1t-3.5 -1
q-1 0 -2 -0.5l-1 -0.5h-2h-2q-13 0 -20.5 12.5t-7.5 27.5q0 11 4 21.5t11 14.5q2 1 7 5t10 9v0h1l4 4l4 4v0z" />
    <glyph glyph-name="ograve" unicode="&#xf2;" horiz-adv-x="647" 
d="M551 762h-1v-52l43 36q5 4 10.5 8.5t11.5 9.5q9 8 19 14.5t20 10.5q4 1 7.5 1.5t6.5 0.5q7 0 13.5 -2.5t12.5 -9.5q41 -43 50 -94.5t12 -113.5v-4.5v-4.5v-6t1 -6v-5.5v-5.5q0 -32 -3.5 -65.5t-10.5 -67.5q-33 -160 -131.5 -293t-231.5 -133q-22 0 -44.5 4.5t-45.5 13.5
q-94 38 -125.5 108t-31.5 169q0 193 114.5 354t253.5 174h2.5t2.5 1h2.5h2.5q24 0 32 -12.5t8 -29.5v0zM497 311l2 -1q8 22 15 40t12 35q5 19 8.5 39t5.5 44q2 23 2.5 39.5t0.5 28.5q0 13 -1 22.5t-2 17.5q-2 10 -4.5 21.5t-5.5 27.5l-31 -25q-7 -6 -12.5 -9.5t-10.5 -6.5
l-1.5 -1.5l-1.5 -1.5q-7 -4 -14 -10.5t-17 -19.5q-9 -11 -20.5 -27t-23.5 -36q-22 -38 -40.5 -90t-20.5 -113v-0.5v-1.5v-1.5v-0.5q0 -7 0.5 -14t1.5 -14q3 -24 14.5 -44t33.5 -21v0h1v0v0q22 0 43 21t37 46q10 16 17.5 31t11.5 25v0zM602 1032l68 -74q2 -2 3.5 -4t3.5 -4v0
v0q4 -5 7.5 -9t5.5 -5q4 -3 5.5 -7.5t1.5 -10.5q0 -4 -1 -9l-2 -10q-5 -14 -15 -26t-22 -13h-2h-1q-1 0 -2 0.5t-2 0.5q-2 1 -3.5 1t-2.5 1l-10.5 3.5t-9.5 4.5q-2 1 -4 2.5t-4 2.5l-72 49l-6 4t-7 4q-12 8 -22 17t-10 19v1.5v1.5q1 6 6.5 17.5t12.5 24.5q4 6 7.5 12t7.5 11
q7 10 13.5 16.5t11.5 7.5q1 0 2 0.5t2 0.5h2h2q9 0 14.5 -5t10.5 -12l1.5 -1.5l1.5 -1.5q2 -3 4 -5.5t4 -4.5v0z" />
    <glyph glyph-name="ocircumflex" unicode="&#xf4;" horiz-adv-x="647" 
d="M551 762h-1v-52l43 36q5 4 10.5 8.5t11.5 9.5q9 8 19 14.5t20 10.5q4 1 7.5 1.5t6.5 0.5q7 0 13.5 -2.5t12.5 -9.5q41 -43 50 -94.5t12 -113.5v-4.5v-4.5v-6t1 -6v-5.5v-5.5q0 -32 -3.5 -65.5t-10.5 -67.5q-33 -160 -131.5 -293t-231.5 -133q-22 0 -44.5 4.5t-45.5 13.5
q-94 38 -125.5 108t-31.5 169q0 193 114.5 354t253.5 174h2.5t2.5 1h2.5h2.5q24 0 32 -12.5t8 -29.5v0zM497 311l2 -1q8 22 15 40t12 35q5 19 8.5 39t5.5 44q2 23 2.5 39.5t0.5 28.5q0 13 -1 22.5t-2 17.5q-2 10 -4.5 21.5t-5.5 27.5l-31 -25q-7 -6 -12.5 -9.5t-10.5 -6.5
l-1.5 -1.5l-1.5 -1.5q-7 -4 -14 -10.5t-17 -19.5q-9 -11 -20.5 -27t-23.5 -36q-22 -38 -40.5 -90t-20.5 -113v-0.5v-1.5v-1.5v-0.5q0 -7 0.5 -14t1.5 -14q3 -24 14.5 -44t33.5 -21v0h1v0v0q22 0 43 21t37 46q10 16 17.5 31t11.5 25v0zM651 1064l-2 -1q11 5 20.5 -7t17.5 -27
q1 -4 3 -7t3 -6q2 -2 3.5 -4.5t2.5 -4.5l52 -77q1 -2 2 -5l2 -6t1.5 -5t0.5 -4v-0.5v-1.5t-0.5 -1.5l-0.5 -0.5q-1 -3 -3.5 -6t-5.5 -5q-5 -5 -12 -10t-13 -9q-11 -6 -20.5 -9t-13.5 0q-6 2 -9 6.5t-5 10.5q0 1 -0.5 2.5t-1.5 2.5l-52 75l-95 -78l-2.5 -2.5l-3.5 -3.5
q-5 -5 -10.5 -9.5t-13.5 -6.5q-1 -1 -2 -1h-3q-3 0 -6.5 1t-7.5 3q-7 4 -14 11t-10 14q-1 3 -2 5.5t-1 5.5q0 2 2 5.5t5 8.5q2 2 4.5 4t4.5 4q0 1 0.5 1.5t1.5 0.5l112 86q2 2 4.5 4t4.5 4q6 4 11 8.5t10 8.5q11 8 22 15t20 11v0z" />
    <glyph glyph-name="odieresis" unicode="&#xf6;" horiz-adv-x="647" 
d="M551 762h-1v-52l43 36q5 4 10.5 8.5t11.5 9.5q9 8 19 14.5t20 10.5q4 1 7.5 1.5t6.5 0.5q7 0 13.5 -2.5t12.5 -9.5q41 -43 50 -94.5t12 -113.5v-4.5v-4.5v-6t1 -6v-5.5v-5.5q0 -32 -3.5 -65.5t-10.5 -67.5q-33 -160 -131.5 -293t-231.5 -133q-22 0 -44.5 4.5t-45.5 13.5
q-94 38 -125.5 108t-31.5 169q0 193 114.5 354t253.5 174h2.5t2.5 1h2.5h2.5q24 0 32 -12.5t8 -29.5v0zM497 311l2 -1q8 22 15 40t12 35q5 19 8.5 39t5.5 44q2 23 2.5 39.5t0.5 28.5q0 13 -1 22.5t-2 17.5q-2 10 -4.5 21.5t-5.5 27.5l-31 -25q-7 -6 -12.5 -9.5t-10.5 -6.5
l-1.5 -1.5l-1.5 -1.5q-7 -4 -14 -10.5t-17 -19.5q-9 -11 -20.5 -27t-23.5 -36q-22 -38 -40.5 -90t-20.5 -113v-0.5v-1.5v-1.5v-0.5q0 -7 0.5 -14t1.5 -14q3 -24 14.5 -44t33.5 -21v0h1v0v0q22 0 43 21t37 46q10 16 17.5 31t11.5 25v0zM514 998h-1q36 -1 47.5 -20.5
t11.5 -44.5v-2.5v-3.5q-1 -26 -19 -47t-44 -21h-1.5h-1.5q-25 2 -39.5 22t-14.5 48v1.5v1.5q1 20 15.5 38.5t31.5 24.5q3 2 7 2.5t7 0.5v0h1v0v0v0zM683 998h-1q36 -1 47.5 -20.5t11.5 -44.5v-2.5v-3.5q-1 -26 -19 -47t-44 -21h-1.5h-1.5q-25 2 -39 22t-14 48v1.5v1.5
q1 20 14.5 37.5t30.5 24.5q3 2 7 3t8 1v0h1v0v0v0z" />
    <glyph glyph-name="otilde" unicode="&#xf5;" horiz-adv-x="647" 
d="M551 762h-1v-52l43 36q5 4 10.5 8.5t11.5 9.5q9 8 19 14.5t20 10.5q4 1 7.5 1.5t6.5 0.5q7 0 13.5 -2.5t12.5 -9.5q41 -43 50 -94.5t12 -113.5v-4.5v-4.5v-6t1 -6v-5.5v-5.5q0 -32 -3.5 -65.5t-10.5 -67.5q-33 -160 -131.5 -293t-231.5 -133q-22 0 -44.5 4.5t-45.5 13.5
q-94 38 -125.5 108t-31.5 169q0 193 114.5 354t253.5 174h2.5t2.5 1h2.5h2.5q24 0 32 -12.5t8 -29.5v0zM497 311l2 -1q8 22 15 40t12 35q5 19 8.5 39t5.5 44q2 23 2.5 39.5t0.5 28.5q0 13 -1 22.5t-2 17.5q-2 10 -4.5 21.5t-5.5 27.5l-31 -25q-7 -6 -12.5 -9.5t-10.5 -6.5
l-1.5 -1.5l-1.5 -1.5q-7 -4 -14 -10.5t-17 -19.5q-9 -11 -20.5 -27t-23.5 -36q-22 -38 -40.5 -90t-20.5 -113v-0.5v-1.5v-1.5v-0.5q0 -7 0.5 -14t1.5 -14q3 -24 14.5 -44t33.5 -21v0h1v0v0q22 0 43 21t37 46q10 16 17.5 31t11.5 25v0zM635 978l3 -1q5 -3 8.5 -5.5t7.5 -3.5
q2 0 4 -0.5t4 -0.5q8 0 15.5 5t17.5 16l2.5 2.5l2.5 2.5l6 4t6 3q3 2 5.5 2.5t4.5 0.5h4.5t3.5 -2q5 -4 7 -9t2 -11q0 -5 -1.5 -10.5t-3.5 -11.5q-3 -6 -6.5 -12.5t-7.5 -12.5q-2 -3 -3.5 -5.5t-3.5 -5.5q-6 -9 -19.5 -17t-30.5 -13h-1.5h-1.5q-8 -1 -16 4t-15 11
q-2 1 -3.5 2.5t-3.5 2.5q-3 2 -6 5t-6 5q-7 6 -13.5 10.5t-13.5 4.5h-2h-2h-0.5h-1.5h-1.5h-0.5h-2.5h-2.5q-4 -1 -9.5 -5.5t-17.5 -18.5q-3 -3 -5.5 -7t-4.5 -8q-1 -2 -2.5 -4t-2.5 -4l-8 -12t-10 -11q-10 -7 -14.5 3.5t-4.5 26.5v5.5v5.5q1 9 3 18.5t5 15.5q2 3 3.5 6
t3.5 6q6 11 13 19.5t15 15.5q3 2 6.5 5t6.5 6q5 3 11.5 6.5t14.5 5.5q1 0 2 0.5t2 0.5h1h2q11 0 20.5 -7t18.5 -15q0 -1 0.5 -1h0.5q4 -4 7.5 -7t7.5 -6v0z" />
    <glyph glyph-name="uacute" unicode="&#xfa;" horiz-adv-x="630" 
d="M645 790l-1 -2q5 1 10 1h10q6 0 12.5 -0.5t13.5 -0.5q26 -3 49 -9t32 -12q0 -1 1 -1.5t1 -1.5q5 -7 7 -14t2 -14q0 -6 -1.5 -13t-3.5 -14q-1 -4 -2 -7.5t-2 -7.5l-54 -214l-80 -271q-24 -82 -87 -148t-165 -67q-12 0 -25 1.5t-27 3.5q-100 16 -146 83t-46 148q0 9 0.5 18
t1.5 19q1 9 2.5 18t3.5 18l94 403q1 6 2.5 11.5t2.5 9.5q9 38 25.5 55.5t70.5 16.5q20 0 30 -1.5t18 -3.5q5 -1 10.5 -2.5t13.5 -3.5q25 -6 34 -16.5t9 -23.5q0 -9 -2.5 -19.5t-6.5 -20.5q0 -1 -0.5 -2t-0.5 -2q-3 -7 -5.5 -13.5t-3.5 -13.5l-91 -374q0 -2 -0.5 -4.5
t-1.5 -4.5q-1 -7 -2.5 -14t-1.5 -14q-1 -3 -1 -6.5v-6.5q0 -20 9 -35.5t36 -16.5h0.5h0.5h0.5h0.5q34 0 50.5 24.5t25.5 53.5q3 10 5.5 19.5t4.5 18.5l93 353q5 19 8.5 34t6.5 28q9 29 20 42t40 16v0zM515 958l88 74q3 2 5.5 4.5l5.5 5.5l2 2l2 2q7 7 13.5 11.5t15.5 4.5h4
t4 -1q2 0 3.5 -1.5l3.5 -3.5q5 -6 10.5 -17.5t9.5 -24.5q4 -11 6 -21.5t2 -17.5v-1.5v-1.5q-1 -11 -14 -20.5t-28 -18.5q-4 -2 -7.5 -4t-7.5 -4l-85 -49q-3 -2 -6.5 -3.5t-6.5 -3.5q-5 -2 -9.5 -3.5t-9.5 -2.5q-2 -1 -3.5 -1t-3.5 -1q-1 0 -2 -0.5l-1 -0.5h-2h-2
q-13 0 -20 12t-8 26v1.5v1.5q0 11 3.5 21t10.5 14q2 1 7 5l10 8q0 1 0.5 1h0.5q3 2 5 4l4 4v0z" />
    <glyph glyph-name="ugrave" unicode="&#xf9;" horiz-adv-x="630" 
d="M645 790l-1 -2q5 1 10 1h10q6 0 12.5 -0.5t13.5 -0.5q26 -3 49 -9t32 -12q0 -1 1 -1.5t1 -1.5q5 -7 7 -14t2 -14q0 -6 -1.5 -13t-3.5 -14q-1 -4 -2 -7.5t-2 -7.5l-54 -214l-80 -271q-24 -82 -87 -148t-165 -67q-12 0 -25 1.5t-27 3.5q-100 16 -146 83t-46 148q0 9 0.5 18
t1.5 19q1 9 2.5 18t3.5 18l94 403q1 6 2.5 11.5t2.5 9.5q9 38 25.5 55.5t70.5 16.5q20 0 30 -1.5t18 -3.5q5 -1 10.5 -2.5t13.5 -3.5q25 -6 34 -16.5t9 -23.5q0 -9 -2.5 -19.5t-6.5 -20.5q0 -1 -0.5 -2t-0.5 -2q-3 -7 -5.5 -13.5t-3.5 -13.5l-91 -374q0 -2 -0.5 -4.5
t-1.5 -4.5q-1 -7 -2.5 -14t-1.5 -14q-1 -3 -1 -6.5v-6.5q0 -20 9 -35.5t36 -16.5h0.5h0.5h0.5h0.5q34 0 50.5 24.5t25.5 53.5q3 10 5.5 19.5t4.5 18.5l93 353q5 19 8.5 34t6.5 28q9 29 20 42t40 16v0zM569 1031l68 -74q2 -2 3.5 -4t3.5 -4v0v0q4 -5 7.5 -9t5.5 -5
q4 -3 5.5 -7.5t1.5 -10.5q0 -4 -1 -9l-2 -10q-5 -14 -15 -26t-22 -13h-2h-1q-1 0 -2 0.5t-2 0.5q-2 1 -3.5 1t-2.5 1l-10.5 3.5t-9.5 4.5q-2 1 -4 2.5t-4 2.5l-72 49q-2 2 -5 3.5t-5 3.5q-13 8 -24 17t-11 20v1.5v1.5q1 6 6 17.5t13 24.5q4 6 7.5 12t7.5 11q7 10 13.5 16.5
t11.5 7.5q1 0 2 0.5t2 0.5h2h2q9 0 14.5 -5t10.5 -12l1.5 -1.5l1.5 -1.5q2 -3 4 -5.5t4 -4.5v0z" />
    <glyph glyph-name="ucircumflex" unicode="&#xfb;" horiz-adv-x="630" 
d="M645 790l-1 -2q5 1 10 1h10q6 0 12.5 -0.5t13.5 -0.5q26 -3 49 -9t32 -12q0 -1 1 -1.5t1 -1.5q5 -7 7 -14t2 -14q0 -6 -1.5 -13t-3.5 -14q-1 -4 -2 -7.5t-2 -7.5l-54 -214l-80 -271q-24 -82 -87 -148t-165 -67q-12 0 -25 1.5t-27 3.5q-100 16 -146 83t-46 148q0 9 0.5 18
t1.5 19q1 9 2.5 18t3.5 18l94 403q1 6 2.5 11.5t2.5 9.5q9 38 25.5 55.5t70.5 16.5q20 0 30 -1.5t18 -3.5q5 -1 10.5 -2.5t13.5 -3.5q25 -6 34 -16.5t9 -23.5q0 -9 -2.5 -19.5t-6.5 -20.5q0 -1 -0.5 -2t-0.5 -2q-3 -7 -5.5 -13.5t-3.5 -13.5l-91 -374q0 -2 -0.5 -4.5
t-1.5 -4.5q-1 -7 -2.5 -14t-1.5 -14q-1 -3 -1 -6.5v-6.5q0 -20 9 -35.5t36 -16.5h0.5h0.5h0.5h0.5q34 0 50.5 24.5t25.5 53.5q3 10 5.5 19.5t4.5 18.5l93 353q5 19 8.5 34t6.5 28q9 29 20 42t40 16v0zM617 1064l-2 -1q11 5 20.5 -7t17.5 -27q1 -4 3 -7t3 -6q2 -2 3.5 -4.5
t2.5 -4.5l52 -77q1 -2 2 -5l2 -6t1.5 -5t0.5 -4v-0.5v-1.5t-0.5 -1.5l-0.5 -0.5q-1 -3 -3.5 -6t-5.5 -5q-5 -5 -12 -10t-13 -9q-11 -6 -20.5 -9t-13.5 0q-6 2 -9 6.5t-5 10.5q0 1 -0.5 2.5t-1.5 2.5l-52 75l-96 -78l-3.5 -3.5t-2.5 -3.5q-5 -5 -10.5 -9t-12.5 -6
q-1 -1 -2 -1h-3q-3 0 -6.5 1t-7.5 3q-7 4 -14 11t-10 14q-1 3 -2 5.5t-1 5.5q0 2 2 5.5t5 8.5q2 2 4.5 4t4.5 4q0 1 0.5 1.5t1.5 0.5l112 86q2 2 4.5 4t4.5 4q6 4 11 8.5t10 8.5q11 8 22 15t20 11v0z" />
    <glyph glyph-name="udieresis" unicode="&#xfc;" horiz-adv-x="630" 
d="M645 790l-1 -2q5 1 10 1h10q6 0 12.5 -0.5t13.5 -0.5q26 -3 49 -9t32 -12q0 -1 1 -1.5t1 -1.5q5 -7 7 -14t2 -14q0 -6 -1.5 -13t-3.5 -14q-1 -4 -2 -7.5t-2 -7.5l-54 -214l-80 -271q-24 -82 -87 -148t-165 -67q-12 0 -25 1.5t-27 3.5q-100 16 -146 83t-46 148q0 9 0.5 18
t1.5 19q1 9 2.5 18t3.5 18l94 403q1 6 2.5 11.5t2.5 9.5q9 38 25.5 55.5t70.5 16.5q20 0 30 -1.5t18 -3.5q5 -1 10.5 -2.5t13.5 -3.5q25 -6 34 -16.5t9 -23.5q0 -9 -2.5 -19.5t-6.5 -20.5q0 -1 -0.5 -2t-0.5 -2q-3 -7 -5.5 -13.5t-3.5 -13.5l-91 -374q0 -2 -0.5 -4.5
t-1.5 -4.5q-1 -7 -2.5 -14t-1.5 -14q-1 -3 -1 -6.5v-6.5q0 -20 9 -35.5t36 -16.5h0.5h0.5h0.5h0.5q34 0 50.5 24.5t25.5 53.5q3 10 5.5 19.5t4.5 18.5l93 353q5 19 8.5 34t6.5 28q9 29 20 42t40 16v0zM472 999h-1q37 -1 48.5 -20.5t11.5 -44.5v-2.5v-3.5q-1 -26 -19.5 -47
t-44.5 -21h-1.5h-1.5q-25 2 -39 22t-14 48v1.5v1.5q1 20 14.5 37.5t30.5 24.5q3 2 7 3t8 1v0h1v0v0v0zM642 999h-1q36 -1 47.5 -20.5t11.5 -44.5v-2.5v-3.5q-1 -26 -19 -47t-44 -21h-1.5h-1.5q-25 2 -39 22t-14 48v1.5v1.5q1 20 14.5 37.5t30.5 24.5q3 2 7 3t8 1v0h1v0v0v0z
" />
    <glyph glyph-name="dagger" unicode="&#x2020;" horiz-adv-x="592" 
d="M428 575l60 228h62l-62 -228h226l-17 -64h-228l-39 -146l-137 -511h-59l39 145l137 512h-222l17 64h223v0z" />
    <glyph glyph-name="cent" unicode="&#xa2;" horiz-adv-x="432" 
d="M561 631l-2 3q-4 -63 -24 -86t-55 -23h-6h-6h-2.5h-2.5q-3 1 -6.5 1t-6.5 1q-14 1 -25.5 6t-11.5 19v2.5t1 3.5q0 3 1.5 6.5t3.5 6.5q5 11 5.5 20.5t-20.5 15.5q-2 1 -4.5 1h-4.5q-13 1 -21 -9.5t-13 -22.5q-2 -3 -3.5 -6.5t-2.5 -6.5q-2 -3 -3 -5l-2 -4q-4 -7 -9 -17
t-9 -23q-5 -12 -9.5 -25.5t-8.5 -27.5q-7 -23 -12 -44t-8 -36q-2 -13 -3 -23t-1 -18q0 -18 6 -26t19 -8h0.5h1.5h1.5h0.5q14 1 20.5 8t11.5 25q0 3 1 6t2 7q4 18 24.5 27.5t43.5 11.5q5 1 9.5 1h8.5h6.5t6.5 -1q14 -2 26 -9t12 -23v-2.5v-2.5t-0.5 -2.5t-0.5 -2.5
q-5 -21 -7.5 -30t-4.5 -14q0 -1 -0.5 -2t-0.5 -2q-2 -3 -3.5 -6.5t-4.5 -9.5q-18 -40 -44 -67.5t-66 -48.5l-12 -41q-3 -13 -8 -25t-14 -22q-4 -4 -7 -6.5t-6 -4.5q-9 -6 -20.5 -7t-36.5 -1h-3.5h-3.5q-46 0 -63 11t-20 38v1.5v0.5q0 9 3 17l6 16q1 0 1 0.5v1.5l2 4l2 4
l12 31q-9 18 -16.5 34t-13.5 32q-7 18 -11 37t-4 40v9.5t1 9.5q8 92 31.5 157t50.5 107q28 42 51.5 63t31.5 25l41 23v5v3q0 3 0.5 7t3.5 14q6 17 19 27t32 11q11 1 20 2l18 2h4.5h4.5q8 0 15.5 -1t15.5 -3q17 -4 30 -13t13 -27v-0.5v-0.5v-0.5v-0.5v-2.5v-3.5
q-1 -8 -2 -15.5t-5 -13.5q2 -2 4.5 -4t5.5 -5q11 -12 20 -31.5t9 -40.5v-0.5v-1.5v0z" />
    <glyph glyph-name="sterling" unicode="&#xa3;" horiz-adv-x="554" 
d="M660 725h5q15 -8 26.5 -17t11.5 -23q0 -11 -8 -25.5t-28 -34.5q-5 -5 -10 -12.5t-11 -15.5q-10 -12 -21.5 -22.5t-26.5 -10.5q-8 0 -17 4t-19 13q-22 20 -46 31.5t-52 11.5q-31 0 -49.5 -18t-18.5 -44v-0.5v-1.5v-1.5v-0.5q1 -22 7 -36t13 -27q0 -1 0.5 -1.5l1.5 -1.5
q3 -7 6.5 -14t6.5 -15q1 -5 3 -12.5t4 -16.5q1 -1 1 -2v-2q4 -14 6.5 -26l2.5 -12h10.5h22.5h5h4h16h11h1.5h1.5h0.5h1.5h3.5h2.5q9 -1 16 -6t7 -14v-0.5v-1.5q-1 -9 -2.5 -17t-3.5 -15q-2 -5 -3.5 -10.5t-3.5 -11.5q-4 -10 -8.5 -13.5t-9.5 -3.5h-3t-3 1h-3.5h-3.5h-86
q-3 -13 -7 -22.5t-9 -18.5q-1 -1 -1.5 -2t-1.5 -2q-3 -4 -6.5 -8t-6.5 -8q-7 -8 -15 -15.5t-18 -14.5q-4 -3 -11 -7.5t-15 -9.5q-1 -1 -2 -1.5t-2 -1.5q-13 -8 -24 -14.5l-11 -6.5l8.5 -2.5t20.5 -6.5q6 -1 11.5 -2.5t11.5 -2.5l14 -2t13 -1h1.5h1.5q5 0 9.5 0.5t9.5 0.5
q10 1 20 2.5t19 3.5q10 2 18 3.5t11 2.5q8 3 14.5 4.5t11.5 1.5q13 0 19.5 -6t9.5 -13q1 -4 2 -7l2 -6l0.5 -0.5t0.5 -1.5q4 -11 8 -20t7 -17l4 -12t3 -13q2 -8 2.5 -15t0.5 -12q1 -17 -5 -23t-12 -9q-2 -1 -3.5 -1t-2.5 -1q-2 0 -3.5 -0.5t-2.5 -1.5q-15 -9 -32.5 -11.5
t-43.5 -4.5q-6 0 -13 -0.5t-14 -1.5h-6h-6q-24 0 -48 4.5t-46 10.5q-21 7 -38.5 12t-30.5 5h-1.5h-1.5h-5h-5q-8 -1 -15.5 -1.5t-14.5 -2.5q-6 -1 -12 -4t-12 -8q-1 -1 -2.5 -2t-3.5 -2q-10 -6 -20.5 -10t-21.5 9q-6 8 -10.5 15t-8.5 14q-2 5 -4 9.5t-4 9.5q-4 10 -9 21
t-12 24q-1 4 -2 8.5t-1 8.5q0 11 4 20t11 13q12 7 26.5 15.5t28.5 18.5q7 4 14 9l14 10q2 1 5 3t5 4q1 1 2 1.5t1 1.5q10 6 18.5 13.5t16.5 14.5q11 10 19 19.5t10 18.5l8 23h-13.5h-30.5h-28.5h-14.5q-10 1 -14 6.5t-4 12.5t1.5 13t3.5 10q1 1 1.5 2t0.5 2l2 4l2 4
q0 1 0.5 2t1.5 1q6 13 13 23t20 10h0.5h0.5h0.5h0.5q6 0 13 0.5t16 0.5t19 0.5t21 0.5q-5 8 -10.5 18t-11.5 21q-12 24 -22.5 53.5t-10.5 62.5v2v2v2v2q5 99 72 159.5t186 60.5h3.5h3.5h3.5h3.5q53 -1 96 -15t80 -34v0z" />
    <glyph glyph-name="section" unicode="&#xa7;" horiz-adv-x="502" 
d="M591 614l-51 1q5 12 7 23.5t2 21.5q0 20 -8.5 37t-27.5 27q-11 6 -24.5 9t-28.5 3q-6 0 -12 -0.5t-12 -1.5q-30 -5 -58.5 -21.5t-42.5 -45.5q-6 -11 -9 -22t-3 -21q0 -23 13 -42.5t33 -34.5l117 -87q32 -23 55 -49.5t23 -64.5q0 -8 -1 -17t-4 -19q-13 -43 -41 -73.5
t-72 -55.5l-33 -19q16 -16 23.5 -33t7.5 -38q0 -8 -1.5 -17t-3.5 -20q-15 -64 -74.5 -103.5t-130.5 -40.5h-1.5h-0.5h-1.5h-1.5q-62 0 -96 35.5t-34 87.5q0 13 2.5 26.5t6.5 27.5h57q-5 -13 -8 -25t-3 -23q0 -13 4 -24.5t12 -20.5q12 -15 33.5 -23t45.5 -8h6.5t6.5 1
q26 2 50.5 14t41.5 34q4 6 7 11.5t6 10.5q5 11 7.5 22.5t2.5 21.5q0 20 -8 37t-23 29l-160 129q-22 17 -33 38t-11 47q0 9 1.5 19.5t4.5 21.5q11 43 39 73.5t70 53.5l27 14q-12 15 -18.5 31t-6.5 34q0 10 2 20.5t5 22.5q16 54 64.5 90.5t103.5 45.5q8 2 16 2.5t16 0.5
q65 1 99.5 -32.5t34.5 -85.5q0 -13 -2 -27t-7 -28v0zM311 511l-23 -13q-31 -15 -52.5 -35.5t-30.5 -51.5q-1 -5 -2 -9.5t-2 -8.5v-4.5v-4.5q0 -19 9.5 -34.5t25.5 -29.5l154 -125l27 15q32 17 54 38t31 52q2 7 3 13.5t1 12.5q0 18 -8.5 32.5t-23.5 25.5l-163 127v0z" />
    <glyph glyph-name="paragraph" unicode="&#xb6;" horiz-adv-x="536" 
d="M486 730l-90 -338l-136 -511l-67 1l3 11l137 511q-67 1 -105 48.5t-41 105.5v4v4q0 8 1 16.5t2 16.5q18 92 91 147t159 54l255 1l-108 -404l-137 -511h-67l90 332l137 512h-124v0z" />
    <glyph glyph-name="germandbls" unicode="&#xdf;" horiz-adv-x="628" 
d="M269 547l-4 -3l-13 5q-1 0 -1.5 0.5l-0.5 0.5h-1.5h-1.5q-6 0 -11.5 -2.5t-11.5 -6.5q-3 -1 -5.5 -2.5t-5.5 -2.5q-4 -1 -7.5 -2t-6.5 -1q-11 0 -15 8.5t-5 19.5v4v4v7v5l30 102q13 47 65 68t200 34h4t4 1h4.5h4.5q20 0 41.5 -3.5t43.5 -10.5q67 -21 123 -72.5t55 -127.5
q0 -53 -22.5 -93t-49.5 -66q-18 -18 -35 -29t-27 -15l17 -25q6 -10 12 -18t11 -15q8 -13 13.5 -28t5.5 -38v-4v-4q-1 -2 -1 -4v-4q-6 -97 -57.5 -140t-112.5 -58q-19 -4 -38 -6.5t-36 -3.5h-0.5h-1.5h-1.5h-0.5q-28 0 -38.5 14.5t-17.5 35.5q0 1 -0.5 1.5t-0.5 1.5
q-1 3 -2 6.5t-2 7.5q0 4 -0.5 7.5t-0.5 6.5q0 24 15 44.5t46 32.5q3 1 6 2.5l7 3.5q14 8 26.5 22.5t13.5 32.5v4t-1 4q-3 14 -11.5 24.5t-19.5 16.5q-9 4 -11.5 14t-2.5 20v3.5v3.5v1.5v1.5q-1 12 -5.5 16t-9.5 7h-0.5h-0.5q-2 1 -3.5 2t-3.5 2l-18.5 -49.5t-40.5 -114.5
q-3 -10 -6.5 -19.5t-6.5 -19.5q-9 -28 -17.5 -56t-14.5 -52q-6 -21 -14 -35t-22 -26q-5 -5 -11 -9.5t-13 -9.5q-2 -2 -4.5 -3.5t-4.5 -2.5q-6 -5 -13 -8t-15 -3q-13 -1 -30.5 11.5t-43.5 45.5q-2 3 -4.5 6t-4.5 7q-8 12 -13 25t-5 27q0 8 1.5 17.5t5.5 19.5q7 18 28.5 80
t45.5 133q29 83 53 153l24 70v0zM465 534h-1q-1 -5 -3.5 -18.5t-6.5 -29.5t-9.5 -30.5t-12.5 -18.5l79 33q4 2 8.5 5.5t9.5 9.5q9 10 17 25.5t9 31.5v2v2v0.5v1.5q-1 24 -30 39t-63 17h-5.5h-5.5q-10 0 -19.5 -1.5t-18.5 -3.5q-6 -2 -11 -4t-10 -5q-4 -1 -7 -3.5t-7 -4.5
q6 1 17.5 -2.5t24.5 -9.5l16 -8t14 -9q7 -5 11.5 -10t3.5 -9v0z" />
    <glyph glyph-name="registered" unicode="&#xae;" horiz-adv-x="812" 
d="M424 22q-148 0 -216.5 78t-69.5 186q0 26 4 52.5t11 53.5q37 140 161 255.5t309 115.5q149 0 217 -78t68 -186q0 -19 -2 -39t-6 -41q-2 -7 -3.5 -13.5t-3.5 -13.5q-37 -139 -160.5 -254.5t-308.5 -115.5v0zM613 723q-166 0 -276.5 -103t-143.5 -228q-6 -24 -9.5 -47.5
t-3.5 -46.5q0 -96 61 -166t194 -70q166 0 276 103t143 227q7 24 10 48t3 47q0 97 -60.5 166.5t-193.5 69.5v0zM593 355l-1 1q-3 2 -5.5 3t-5.5 2q-10 4 -20.5 4.5t-23.5 0.5h-5h-5h-119l-54 -201h-43l119 445h164q51 0 92.5 -15.5t41.5 -70.5q0 -7 -0.5 -15t-2.5 -16
q-8 -42 -35.5 -69t-66.5 -42l6 -4l6 -4q7 -5 12 -11.5t8 -17.5q2 -6 2.5 -12t0.5 -12q0 -8 -1 -15.5t-3 -14.5q-2 -8 -4 -15.5t-4 -14.5q-5 -16 -9 -32.5t-4 -34.5v-3t1 -3v-3.5v-3.5q0 -3 1 -5.5t2 -4.5q0 -2 0.5 -3.5t1.5 -3.5h-46h-0.5h-0.5v0v0h-1.5t-0.5 1
q-1 4 -1.5 7.5t-0.5 7.5q0 15 4 31.5t9 34.5v1v1q5 17 8.5 33.5t3.5 30.5q1 14 -4 25t-16 18v0zM593 573h-128l-45 -169h125q7 0 15 0.5t15 1.5q36 4 67.5 22t41.5 61q2 6 2.5 12t0.5 11q0 37 -29 49t-65 12v0z" />
    <glyph glyph-name="copyright" unicode="&#xa9;" horiz-adv-x="813" 
d="M422 24q-148 0 -216.5 78t-69.5 186q0 26 4 52.5t11 53.5q37 140 161 255.5t309 115.5q149 0 217 -78t68 -186q0 -19 -2 -39t-6 -41q-2 -7 -3.5 -13.5t-3.5 -13.5q-37 -139 -160.5 -254.5t-308.5 -115.5v0zM611 725q-166 0 -276.5 -103t-143.5 -228q-6 -24 -9.5 -47.5
t-3.5 -46.5q0 -96 61 -166t194 -70q166 0 276 103t143 227q7 24 10 48t3 47q0 97 -60.5 166.5t-193.5 69.5v0zM724 487l-44 -3l1 14v1.5v1.5q0 44 -31.5 66t-73.5 21q-85 -2 -134.5 -62t-69.5 -131q0 -1 -0.5 -1.5t-0.5 -1.5q-6 -22 -10 -43.5t-4 -41.5q0 -42 22.5 -71
t82.5 -37q3 -1 6 -1h6q9 0 18.5 1.5t18.5 4.5q39 11 75 42.5t55 72.5h44q-30 -68 -91 -112.5t-132 -44.5h-3h-3h-3.5h-3.5q-74 5 -104 44.5t-30 95.5q0 21 3.5 44t9.5 46q0 1 0.5 1.5t0.5 1.5q23 88 90.5 161t161.5 73h2h2h1h2q58 -1 98.5 -28.5t40.5 -80.5v-7.5t-1 -7.5
l-2 -18v0z" />
    <glyph glyph-name="trademark" unicode="&#x2122;" horiz-adv-x="716" 
d="M589 417l-30 329l-89 -329h-36l98 369h57l29 -325l206 324l53 -1l-98 -368h-36l88 328l-210 -327h-32v0zM239 788h267l-9 -31h-116l-91 -340h-36l91 340h-115l9 31v0z" />
    <glyph glyph-name="acute" unicode="&#xb4;" horiz-adv-x="293" 
d="M268 682l88 74q3 2 5.5 4.5l5.5 5.5l2 2l2 2q7 7 13.5 11.5t15.5 4.5h4t4 -1q2 0 3.5 -1.5l3.5 -3.5q5 -6 10.5 -17.5t9.5 -24.5q4 -11 6 -21.5t2 -17.5v-1.5v-1.5q-1 -11 -14 -20.5t-28 -18.5q-4 -2 -7.5 -4t-7.5 -4l-85 -49q-3 -2 -6.5 -3.5t-6.5 -3.5q-5 -2 -9.5 -3.5
t-9.5 -2.5q-2 -1 -3.5 -1t-3.5 -1q-1 0 -2 -0.5l-1 -0.5h-2h-2q-13 0 -19.5 12t-7.5 26v1.5v1.5q0 11 3.5 21t10.5 14q2 1 7 5t10 9v0h1l4 4l4 4v0z" />
    <glyph glyph-name="dieresis" unicode="&#xa8;" horiz-adv-x="398" 
d="M322 786h-1q36 -1 47.5 -20.5t11.5 -44.5v-2.5v-3.5q-1 -26 -19 -47t-44 -21h-1.5h-1.5q-25 2 -39 22t-14 48v1.5v1.5q1 20 14.5 37.5t30.5 24.5q3 2 7 3t8 1v0h1v0v0v0zM491 786h-1q37 -1 48.5 -20.5t11.5 -44.5v-2.5v-3.5q-1 -26 -19.5 -47t-44.5 -21h-1.5h-1.5
q-25 2 -39 22t-14 48v1.5v1.5q1 20 14.5 37.5t30.5 24.5q3 2 7 3t8 1v0h1v0v0v0z" />
    <glyph glyph-name="AE" unicode="&#xc6;" horiz-adv-x="882" 
d="M448 291l-4 4l-4 -4t-5 -4t-6 -4.5t-5 -4.5q-2 -1 -4 -1.5t-4 -1.5q-5 -2 -10 -3.5t-10 -1.5h-7h-6h-9h-8h-6.5t-7.5 1l-20 -38.5t-45 -84.5q-1 -2 -1.5 -3.5t-1.5 -3.5q-22 -40 -41 -73.5t-25 -41.5q-11 -13 -24 -18.5t-27 -5.5q-11 0 -22 2.5t-21 5.5q-3 2 -6.5 3
t-6.5 2q-2 1 -4 1.5t-4 1.5q-20 7 -37.5 20t-17.5 35q0 6 1.5 12.5t4.5 13.5q3 6 20.5 35.5t38.5 63.5q22 36 40.5 65.5l18.5 29.5q-1 1 -2.5 1.5t-2.5 0.5l-3 1.5t-2 1.5q-2 2 -3.5 4.5t-3.5 6.5q-1 2 -1 4.5v4.5q0 6 1.5 13.5t4.5 14.5l4 10t4 9q4 8 7.5 14.5t5.5 10.5
t4.5 8.5t4.5 8.5q11 22 25 40t40 24q4 1 8.5 1h8.5h9h7q3 -1 5 -1h2l27 41t60 90q30 44 55.5 82.5t30.5 45.5q10 14 19 23.5t17 16.5q12 9 25 13.5t30 7.5q27 4 105 4.5t166 1.5h5.5h4.5h60h57q39 1 54.5 -9t18.5 -21q0 -3 0.5 -5.5t0.5 -4.5q0 -3 -0.5 -6.5t-1.5 -6.5
q0 -2 -0.5 -3t-0.5 -2q-1 -2 -1.5 -4.5t-0.5 -4.5q-3 -12 -5.5 -25.5t-6.5 -27.5q-8 -34 -23 -63t-45 -28l-256 10v-1.5v-0.5v-1.5v-1.5q0 -12 6.5 -18t15.5 -11q1 0 2.5 -1t2.5 -1q6 -3 10.5 -6.5t5.5 -8.5q0 -1 0.5 -3t0.5 -3v-3.5v-3.5v-2.5v-3.5q0 -5 -0.5 -10t-1.5 -9
q0 -3 -0.5 -5.5t-0.5 -4.5q-1 -7 -1.5 -13.5t-0.5 -13.5l25.5 -0.5t57.5 -1.5h4.5h4.5q30 -1 56 -1.5t34 -0.5q12 0 20.5 -11t8.5 -25v-1.5v-1.5q-1 -10 -7 -34t-16 -51q-4 -11 -8.5 -21t-9.5 -19q0 -1 -0.5 -1.5l-0.5 -0.5q-5 -9 -14.5 -15.5t-43.5 -7.5h-2h-1h-2h-2
q-14 0 -35 0.5t-43 1.5q-7 1 -13.5 1t-13.5 1q-28 1 -48.5 2l-20.5 1l-22 -107h131h10h10h5h5q26 1 47 -5t21 -29v-0.5v-1.5v-1.5v-0.5q-1 -17 -3 -32t-5 -29q-3 -11 -7 -22.5t-9 -23.5q-10 -25 -25 -31t-32 -6h-7.5h-7.5q-4 1 -7.5 1h-7.5q-20 1 -38.5 1h-35.5h-35.5
t-31.5 -1h-26.5h-23.5q-40 0 -60 6t-36 29q-1 2 -2.5 4t-2.5 4q-6 10 -11.5 19.5t-10.5 18.5q-6 12 -10.5 23.5t-5.5 25.5q0 5 7 33t16 60q0 1 0.5 2.5t1.5 2.5q9 34 16.5 61.5l7.5 27.5h-1.5t-1.5 1q-6 0 -9.5 -4t-6.5 -9q-1 -1 -2 -2.5t-2 -3.5q-1 -1 -1.5 -2t-1.5 -2v0z
M469 442v1q3 -3 7 -4t8 -1t7.5 0.5t8.5 1.5q2 0 4.5 0.5t5.5 0.5l36 147l-12 -19t-27 -44q-2 -3 -3.5 -5.5t-2.5 -4.5q-15 -26 -25.5 -48t-6.5 -25v0z" />
    <glyph glyph-name="Oslash" unicode="&#xd8;" horiz-adv-x="647" 
d="M134 274h1q0 193 114.5 354t253.5 174h2.5t2.5 1h2.5h2.5q24 0 32 -12.5t8 -29.5v-52l31 29q27 50 48.5 90t24.5 44q7 10 17.5 15t22.5 5q6 0 12 -1.5t11 -3.5q11 -4 14.5 -10t3.5 -12q1 -5 -1.5 -10.5t-4.5 -9.5l-2 -2l-2 -2q-3 -3 -9.5 -18t-17.5 -33q-2 -3 -3.5 -5.5
t-3.5 -5.5q31 -19 43.5 -68.5t16.5 -105.5l2 -22t1 -22v-11t1 -12q0 -33 -4 -68t-12 -71q-34 -158 -133 -289t-228 -132q-23 0 -47 5t-48 16q-4 -15 -10 -26l-12 -22q-4 -6 -8.5 -12.5t-8.5 -13.5q-3 -6 -10.5 -8.5t-15.5 -2.5q-5 0 -10 0.5t-9 2.5q-7 3 -13 10t-8 14v2v2v2
t1 2q0 1 0.5 2t0.5 2q6 10 11 18t9 15q0 1 0.5 2t1.5 2q5 8 10 17.5t12 22.5q-39 32 -66 88.5t-27 155.5v0zM498 310l3 -1q8 22 14.5 40t11.5 35q5 19 8.5 39t5.5 44q2 23 2.5 39.5t0.5 28.5q0 13 -1 22.5t-2 17.5q-2 10 -4.5 21.5t-5.5 27.5l-30 -25q-7 -6 -13 -9.5
t-10 -6.5l-3 -1.5t-2 -1.5q-6 -4 -13 -10.5t-17 -19.5q-9 -11 -20.5 -27t-23.5 -36q-22 -38 -40.5 -90t-20.5 -113v-0.5v-1.5v-1.5v-0.5q0 -7 0.5 -14t1.5 -14q3 -24 14.5 -44t33.5 -21v0h1v0v0q22 0 43 21t37 46q10 16 17.5 31t11.5 25v0z" />
    <glyph glyph-name="plusminus" unicode="&#xb1;" horiz-adv-x="542" 
d="M70 97l12 44h459l-12 -44h-459v0zM384 492l54 203h54l-54 -203h201l-15 -57h-203l-54 -201h-52l54 201h-201l17 57h199v0z" />
    <glyph glyph-name="yen" unicode="&#xa5;" horiz-adv-x="530" 
d="M726 659l-160 -318h10h22h1.5h1.5h13h10h3h2h1.5h0.5q11 0 19.5 -5.5t7.5 -16.5q-1 -9 -2.5 -17t-3.5 -15q-1 -5 -3 -10.5t-4 -11.5q-4 -10 -8.5 -13.5t-9.5 -3.5h-3t-3 1h-3.5h-3.5h-96l-116 -229q-7 -15 -22 -22.5t-33 -8.5h-4t-4 1q-3 0 -5 0.5t-4 0.5q-7 1 -13.5 2.5
t-12.5 2.5q-9 2 -17.5 3.5t-16.5 3.5q-10 3 -20.5 7t-21.5 9q-9 5 -12.5 11.5t-3.5 13.5q0 3 0.5 5.5t0.5 5.5q1 6 3.5 11.5t4.5 10.5l88 172h-17.5h-38.5h-37h-18q-10 1 -14 6.5t-4 12.5t1.5 13t3.5 10q1 1 1.5 2t0.5 2q1 3 2.5 5.5t2.5 4.5v1h1q5 13 12 23t20 10h0.5h0.5
h0.5h0.5q5 0 13.5 0.5t18.5 0.5q8 0 17 0.5t18 0.5h4.5h4.5l-71 371q0 2 -0.5 4.5t-0.5 4.5q-1 4 -1.5 8.5t-0.5 8.5q0 17 9.5 29.5t38.5 13.5h3.5h2.5q2 -1 3.5 -1h3.5q19 -1 35.5 -3t33.5 -5q9 -2 18.5 -4.5t19.5 -6.5q11 -4 16.5 -16.5t7.5 -26.5v-3.5v-3.5l22 -209
l103 212q11 24 26.5 44t44.5 20h3.5h3.5t3.5 -0.5t3.5 -0.5q5 -1 9.5 -1.5t8.5 -0.5q17 -2 32.5 -5t29.5 -9q6 -2 11.5 -5t11.5 -7q8 -6 11.5 -13t4.5 -15q0 -8 -3 -17t-7 -18q-2 -3 -3.5 -6.5t-3.5 -6.5q-2 -4 -3.5 -7.5t-3.5 -6.5v0z" />
    <glyph glyph-name="mu" unicode="&#xb5;" horiz-adv-x="597" 
d="M211 540l88 -1l-99 -372q-1 -3 -1.5 -5.5t-0.5 -5.5q-1 -6 -1.5 -11.5t-0.5 -10.5q-1 -34 17.5 -58.5t54.5 -23.5q14 0 31 4.5t35 13.5q33 15 62.5 41t37.5 56l101 373h88l-112 -421q-1 -4 -2 -8.5t-2 -8.5q0 -4 -0.5 -8.5t-0.5 -8.5q0 -22 9.5 -38.5t28.5 -16.5h4.5
t4.5 1q20 4 35 16t25 31l16 28h20l-16 -33q-12 -26 -35.5 -46t-49.5 -31q-17 -8 -33 -12.5t-29 -4.5h-2h-2q-2 1 -3 1h-2q-28 4 -48.5 27t-20.5 56q0 5 1 11l2 12l-35 -27q-11 -9 -23 -17l-24 -16q-30 -19 -59 -30.5t-50 -11.5h-0.5h-0.5h-0.5h-0.5q-9 0 -21.5 2.5
t-25.5 8.5q-18 6 -34 19t-25 32l-10 -38q-4 -13 -5.5 -24.5t-1.5 -21.5q0 -8 0.5 -15t1.5 -15v-2.5v-2.5l2 -18t1 -19q0 -12 -1 -26.5t-6 -30.5q-1 -2 -1.5 -4.5t-1.5 -5.5q-8 -22 -27 -41t-41 -19h-0.5h-0.5h-0.5h-0.5q-18 1 -26.5 13.5t-9.5 30.5q0 4 0.5 9t2.5 10
q7 30 17 49t22 36q8 13 16 27t15 32q2 4 3 8t2 7q2 4 3 7.5t2 7.5l8 28l136 512v0z" />
    <glyph glyph-name="ordfeminine" unicode="&#xaa;" horiz-adv-x="351" 
d="M246 416l-1 -2h135q14 0 26.5 -1t19.5 -6t3.5 -11t-9.5 -11l-3.5 -3.5t-2.5 -3.5q-1 -1 -2 -2.5t-1 -2.5q-4 -6 -9.5 -11.5t-17.5 -8.5q-3 -1 -5.5 -1.5t-5.5 -0.5h-5.5h-5.5h-8h-8h-4.5h-4.5l-122 1h-5.5h-4.5q-3 0 -5.5 -0.5t-5.5 -0.5h-6h-5q-22 -1 -23 6t4 16l0.5 1
l0.5 1q2 3 3.5 6l2.5 5q0 2 1 3.5t1 2.5q4 10 14 17.5t30 7.5h6.5t7.5 -1h0.5h1.5h1.5h0.5h6h5v0zM443 527h1q0 -8 -0.5 -14.5t-1.5 -12.5q-1 -7 -1.5 -14.5t-1.5 -16.5q-1 -16 -10 -20.5t-21 -4.5h-3h-3h-3.5h-3.5t-4.5 0.5t-5.5 0.5q-12 2 -21.5 8t-9.5 16v0.5v0.5v0.5
v0.5q1 6 1.5 16t0.5 20q0 16 0.5 30l0.5 14q-2 -1 -4 -2.5t-4 -3.5l-1.5 -1.5l-1.5 -1.5l-2 -2l-1 -1l-2 -2l-2 -2q-1 0 -2 -0.5t-2 -0.5q-2 -1 -4 -1.5t-4 -0.5h-7.5h-6.5h-2.5h-3.5l-5.5 -12t-12.5 -26q0 -1 -0.5 -1.5t-0.5 -1.5q-6 -11 -11 -21t-7 -13q-4 -6 -10 -8.5
t-12 -2.5q-7 0 -14.5 2t-12.5 4q-1 0 -2.5 0.5t-2.5 1.5q-12 4 -21 12t-4 24q1 2 3 7.5t4 11.5l1 1v1q3 7 5.5 13l2.5 6q-1 0 -1.5 0.5t-1.5 0.5v0v0q-1 1 -2.5 2t-3.5 4q-1 2 -1 3.5v3.5q0 3 0.5 7t1.5 9q1 2 1.5 5t1.5 5q1 5 2 8.5t2 5.5q0 1 0.5 2t0.5 2q4 11 9.5 19.5
t17.5 11.5q1 0 2 0.5t2 0.5h1h2h4h4q1 -1 2 -1h1l13 24.5t29 53.5q15 27 27.5 50t14.5 26q2 4 4 7.5t5 5.5q5 8 11 11.5t15 3.5h1.5h1.5q6 0 13.5 -1t14.5 -2q17 -4 31 -11.5t15 -21.5v-14.5v-24.5v-44.5v-51.5q-1 -28 -2 -55.5t-3 -47.5v0zM348 618q1 -1 3 -2t5 -1h1.5h1.5
h2h2l1 0.5t2 1.5l6 62l-4 -7.5t-8 -17.5q-1 -1 -1.5 -2.5t-1.5 -3.5q-5 -10 -8 -19.5t-1 -10.5v0z" />
    <glyph glyph-name="ordmasculine" unicode="&#xba;" horiz-adv-x="348" 
d="M253 415l1 -1h113q11 0 21.5 -1t15.5 -6q6 -5 3 -11t-8 -12q-1 -2 -2.5 -3.5t-2.5 -3.5t-2.5 -4t-2.5 -3q-3 -6 -7.5 -10.5t-12.5 -7.5q-4 -1 -9 -1.5t-10 -0.5h-6.5h-6.5h-4h-4l-102 1h-3.5h-3.5h-0.5h-0.5q-2 -1 -4 -1h-5h-1.5h-1.5h-3.5h-2.5q-20 -1 -21 6t3 16
q1 0 1 1t1 1l2 6t2 5q0 1 0.5 2.5t1.5 2.5q3 9 11 17t27 9h2h3q1 -1 2.5 -1h2.5h0.5h1.5h1.5h0.5h5.5h4.5v0zM394 791h1v-23l19 16l4 4t5 4q4 4 8.5 7t8.5 5q5 2 10 1.5t9 -5.5q19 -20 22.5 -44.5t4.5 -53.5v-2.5v-2.5v-3v-3q0 -14 -1.5 -29t-4.5 -30q-15 -72 -59 -132
t-104 -61q-10 0 -19.5 2t-20.5 6q-43 17 -57 49.5t-14 76.5q0 86 51.5 158.5t113.5 77.5h1.5h1.5h0.5h1.5q11 0 14.5 -5t3.5 -13v0zM372 588h1q4 10 6.5 18t5.5 16q2 8 3.5 17t2.5 20t1 18v12t-0.5 9t-0.5 8l-2 10t-3 13l-13 -11q-3 -3 -5.5 -4.5t-4.5 -2.5q-1 0 -1.5 -0.5
l-0.5 -0.5q-3 -2 -6 -5t-8 -9q-4 -5 -9 -12t-11 -16q-10 -17 -18.5 -40.5t-8.5 -50.5v-0.5v-1.5v-1.5v-0.5v-5t1 -5q1 -11 5.5 -20t15.5 -10v0h1h2h2q9 2 17 11t15 19q4 7 7.5 14l5.5 11v0z" />
    <glyph glyph-name="ae" unicode="&#xe6;" horiz-adv-x="882" 
d="M448 291l-4 4l-4 -4t-5 -4t-6 -4.5t-5 -4.5q-2 -1 -4 -1.5t-4 -1.5q-5 -2 -10 -3.5t-10 -1.5h-7h-6h-9h-8h-6.5t-7.5 1l-20 -38.5t-45 -84.5q-1 -2 -1.5 -3.5t-1.5 -3.5q-22 -40 -41 -73.5t-25 -41.5q-11 -13 -24 -18.5t-27 -5.5q-11 0 -22 2.5t-21 5.5q-3 2 -6.5 3
t-6.5 2q-2 1 -4 1.5t-4 1.5q-20 7 -37.5 20t-17.5 35q0 6 1.5 12.5t4.5 13.5q3 6 20.5 35.5t38.5 63.5q22 36 40.5 65.5l18.5 29.5q-1 1 -2.5 1.5t-2.5 0.5l-3 1.5t-2 1.5q-2 2 -3.5 4.5t-3.5 6.5q-1 2 -1 4.5v4.5q0 6 1.5 13.5t4.5 14.5l4 10t4 9q4 8 7.5 14.5t5.5 10.5
t4.5 8.5t4.5 8.5q11 22 25 40t40 24q4 1 8.5 1h8.5h9h7q3 -1 5 -1h2l27 41t60 90q30 44 55.5 82.5t30.5 45.5q10 14 19 23.5t17 16.5q12 9 25 13.5t30 7.5q27 4 105 4.5t166 1.5h5.5h4.5h60h57q39 1 54.5 -9t18.5 -21q0 -3 0.5 -5.5t0.5 -4.5q0 -3 -0.5 -6.5t-1.5 -6.5
q0 -2 -0.5 -3t-0.5 -2q-1 -2 -1.5 -4.5t-0.5 -4.5q-3 -12 -5.5 -25.5t-6.5 -27.5q-8 -34 -23 -63t-45 -28l-256 10v-1.5v-0.5v-1.5v-1.5q0 -12 6.5 -18t15.5 -11q1 0 2.5 -1t2.5 -1q6 -3 10.5 -6.5t5.5 -8.5q0 -1 0.5 -3t0.5 -3v-3.5v-3.5v-2.5v-3.5q0 -5 -0.5 -10t-1.5 -9
q0 -3 -0.5 -5.5t-0.5 -4.5q-1 -7 -1.5 -13.5t-0.5 -13.5l25.5 -0.5t57.5 -1.5h4.5h4.5q30 -1 56 -1.5t34 -0.5q12 0 20.5 -11t8.5 -25v-1.5v-1.5q-1 -10 -7 -34t-16 -51q-4 -11 -8.5 -21t-9.5 -19q0 -1 -0.5 -1.5l-0.5 -0.5q-5 -9 -14.5 -15.5t-43.5 -7.5h-2h-1h-2h-2
q-14 0 -35 0.5t-43 1.5q-7 1 -13.5 1t-13.5 1q-28 1 -48.5 2l-20.5 1l-22 -107h131h10h10h5h5q26 1 47 -5t21 -29v-0.5v-1.5v-1.5v-0.5q-1 -17 -3 -32t-5 -29q-3 -11 -7 -22.5t-9 -23.5q-10 -25 -25 -31t-32 -6h-7.5h-7.5q-4 1 -7.5 1h-7.5q-20 1 -38.5 1h-35.5h-35.5
t-31.5 -1h-26.5h-23.5q-40 0 -60 6t-36 29q-1 2 -2.5 4t-2.5 4q-6 10 -11.5 19.5t-10.5 18.5q-6 12 -10.5 23.5t-5.5 25.5q0 5 7 33t16 60q0 1 0.5 2.5t1.5 2.5q9 34 16.5 61.5l7.5 27.5h-1.5t-1.5 1q-6 0 -9.5 -4t-6.5 -9q-1 -1 -2 -2.5t-2 -3.5q-1 -1 -1.5 -2t-1.5 -2v0z
M469 442v1q3 -3 7 -4t8 -1t7.5 0.5t8.5 1.5q2 0 4.5 0.5t5.5 0.5l36 147l-12 -19t-27 -44q-2 -3 -3.5 -5.5t-2.5 -4.5q-15 -26 -25.5 -48t-6.5 -25v0z" />
    <glyph glyph-name="oslash" unicode="&#xf8;" horiz-adv-x="647" 
d="M134 274h1q0 193 114.5 354t253.5 174h2.5t2.5 1h2.5h2.5q24 0 32 -12.5t8 -29.5v-52l31 29q27 50 48.5 90t24.5 44q7 10 17.5 15t22.5 5q6 0 12 -1.5t11 -3.5q11 -4 14.5 -10t3.5 -12q1 -5 -1.5 -10.5t-4.5 -9.5l-2 -2l-2 -2q-3 -3 -9.5 -18t-17.5 -33q-2 -3 -3.5 -5.5
t-3.5 -5.5q31 -19 43.5 -68.5t16.5 -105.5l2 -22t1 -22v-11t1 -12q0 -33 -4 -68t-12 -71q-34 -158 -133 -289t-228 -132q-23 0 -47 5t-48 16q-4 -15 -10 -26l-12 -22q-4 -6 -8.5 -12.5t-8.5 -13.5q-3 -6 -10.5 -8.5t-15.5 -2.5q-5 0 -10 0.5t-9 2.5q-7 3 -13 10t-8 14v2v2v2
t1 2q0 1 0.5 2t0.5 2q6 10 11 18t9 15q0 1 0.5 2t1.5 2q5 8 10 17.5t12 22.5q-39 32 -66 88.5t-27 155.5v0zM498 310l3 -1q8 22 14.5 40t11.5 35q5 19 8.5 39t5.5 44q2 23 2.5 39.5t0.5 28.5q0 13 -1 22.5t-2 17.5q-2 10 -4.5 21.5t-5.5 27.5l-30 -25q-7 -6 -13 -9.5
t-10 -6.5l-3 -1.5t-2 -1.5q-6 -4 -13 -10.5t-17 -19.5q-9 -11 -20.5 -27t-23.5 -36q-22 -38 -40.5 -90t-20.5 -113v-0.5v-1.5v-1.5v-0.5q0 -7 0.5 -14t1.5 -14q3 -24 14.5 -44t33.5 -21v0h1v0v0q22 0 43 21t37 46q10 16 17.5 31t11.5 25v0z" />
    <glyph glyph-name="questiondown" unicode="&#xbf;" horiz-adv-x="518" 
d="M329 299l-2 3q4 5 5.5 9.5t2.5 8.5q0 1 0.5 2t0.5 3q1 4 4.5 8.5t10.5 10.5q18 13 39 15t45 2h4.5h4.5h2h2q34 0 51 -4.5t18 -30.5v-2.5v-3.5q-1 0 -1 -0.5v-1.5v-2v-2q-1 -5 -2 -11t-2 -11q-6 -22 -17 -44t-23 -40q-11 -18 -22 -31t-17 -19q-55 -51 -82.5 -69t-42.5 -30
q-7 -5 -12 -10.5t-10 -13.5q-2 -4 -4.5 -8.5t-4.5 -10.5q-3 -8 -4.5 -14.5t-1.5 -12.5q0 -16 8.5 -24.5t19.5 -11.5q6 -2 12 -2.5t10 -0.5h2.5h1.5q29 1 43.5 22.5t23.5 48.5q8 22 22.5 27.5t33.5 5.5h6.5h7.5h7.5h6.5h12.5h12.5q23 -2 42 -9t19 -28v-1.5v-0.5v-1.5v-1.5
q-11 -104 -84.5 -162t-172.5 -61h-6h-6q-94 -1 -152 51.5t-58 116.5v4.5v4.5q0 3 0.5 5.5t0.5 4.5q11 76 43 118t73 76q10 8 19.5 16t19.5 16q11 9 21 18.5t20 19.5q16 17 29 33t20 26v0zM464 403q-52 1 -68 30t-16 66v2.5v2.5q1 37 26.5 66t61.5 29h4h3q37 -3 57 -30.5
t20 -67.5q0 -31 -21 -58t-47 -36q-5 -2 -10 -3t-10 -1v0z" />
    <glyph glyph-name="exclamdown" unicode="&#xa1;" horiz-adv-x="387" 
d="M398 204l-30 -155q-1 -6 -8 -38t-15 -70q-7 -32 -13.5 -62t-8.5 -44q-4 -32 -33.5 -41.5t-64.5 -10.5h-4.5h-4.5h-10.5h-10.5h-3.5h-3.5q-7 1 -15 1t-17 1q-25 2 -46 8.5t-22 24.5v3.5t1 4.5q0 2 1.5 4.5t3.5 5.5t3.5 5.5t1.5 4.5l86 233l60 144l7 17.5t5 13.5q1 2 1.5 4
t1.5 4q2 3 3.5 6.5t3.5 7.5q10 20 22 23t27 3h3h3h2.5h2.5h7.5h7.5h8h8q20 -1 36 -7t16 -22v-2.5v-3.5q-4 -24 -6 -32.5t-3 -14.5v0v0q-1 -3 -1.5 -6.5t-1.5 -9.5v0zM381 397q-52 1 -68.5 30t-16.5 66v2.5v2.5q2 38 28 67.5t61 29.5h3.5h2.5q36 -3 56 -31.5t20 -69.5
q0 -30 -20 -56t-43 -36q-6 -3 -12 -4t-11 -1v0z" />
    <glyph glyph-name="logicalnot" unicode="&#xac;" horiz-adv-x="832" 
d="M798 258h-167h-512l15 57h229h512l-85 -315h-61l69 258v0z" />
    <glyph glyph-name="florin" unicode="&#x192;" horiz-adv-x="460" 
d="M584 815v-1q-1 1 -2 1.5t-2 0.5q-1 1 -2 1h-2q-8 0 -16.5 -9t-16.5 -25q-10 -19 -20 -45.5t-20 -54.5q-9 -22 -17.5 -43.5t-18.5 -39.5l-11 -21h103l-17 -43h-108l-145 -310q-12 -26 -30.5 -63t-42.5 -76q-32 -52 -70 -99t-77 -67q-11 -5 -21.5 -8t-20.5 -3h-5.5t-5.5 1
q-3 0 -5.5 0.5t-5.5 1.5q-8 3 -13.5 11t-5.5 18v4.5t1 4.5q1 3 1.5 5.5t2.5 4.5q10 16 24.5 26.5t31.5 11.5v0h1v0v0q10 0 13 -4.5t4 -10.5h1v0q1 -5 2.5 -8.5t6.5 -5.5q15 -5 31.5 14.5t34.5 52.5q8 16 16 33t16 35q9 20 17 38.5t16 35.5l167 358h-112l14 43h126l13 27
l16.5 33t17.5 34q32 59 69.5 111.5t77.5 76.5q11 8 23 12t24 4q14 0 25.5 -9t12.5 -22q0 -2 -0.5 -4t-0.5 -4l-2 -4l-2 -4q-11 -17 -27.5 -27t-35.5 -10q-6 0 -9.5 3t-6.5 6q-1 1 -1.5 2t-1.5 1q-2 3 -4 5t-5 4v0z" />
    <glyph glyph-name="guillemotleft" unicode="&#xab;" horiz-adv-x="573" 
d="M176 445l258 160l-28 -104l-182 -111l122 -106l-30 -111l-168 166l28 106v0zM446 445l260 160l-28 -104l-184 -111l123 -106l-30 -111l-169 166l28 106v0z" />
    <glyph glyph-name="guillemotright" unicode="&#xbb;" horiz-adv-x="589" 
d="M218 605l173 -160l-28 -106l-257 -166l30 111l179 106l-125 111l28 104v0zM488 605l175 -160l-29 -106l-258 -166l30 111l179 106l-125 111l28 104v0z" />
    <glyph glyph-name="ellipsis" unicode="&#x2026;" horiz-adv-x="793" 
d="M174 192l-1 1q51 -1 67.5 -29t16.5 -64v-4.5v-4.5q-1 -37 -25.5 -66t-60.5 -29h-2h-2h-2h-2q-36 4 -56 31.5t-20 67.5q0 30 20.5 56.5t44.5 36.5q6 2 11.5 3t10.5 1v0zM427 193v1q52 -1 68.5 -30.5t16.5 -66.5v-2v-3q-1 -37 -27.5 -66t-62.5 -29h-2.5h-3.5q-36 3 -56 31
t-20 68q0 30 20.5 56.5t44.5 36.5q6 2 11.5 3t10.5 1v0zM685 194v1q52 -1 68 -30.5t16 -66.5v-2v-3q-1 -37 -27 -66t-62 -29h-2.5h-3.5q-36 2 -56 30.5t-20 68.5q0 30 20.5 56.5t44.5 36.5q6 2 11.5 3t10.5 1v0z" />
    <glyph glyph-name="Agrave" unicode="&#xc0;" horiz-adv-x="588" 
d="M613 177v1q0 -18 -1 -32t-3 -28q-1 -10 -2 -19t-2 -20q0 -6 -0.5 -13t-1.5 -15q-4 -37 -24.5 -46.5t-46.5 -9.5h-7.5h-6.5q-4 1 -7.5 1h-6.5q-5 0 -9.5 0.5t-9.5 1.5q-27 3 -49.5 15t-22.5 36v0.5v1.5v1.5v0.5q1 14 2 35t1 43q1 36 1.5 66.5l0.5 30.5q-2 -1 -4 -2.5
t-4 -3.5q-2 -1 -3.5 -2.5l-2.5 -2.5q-3 -3 -5.5 -5t-4.5 -4l-4 -4l-4 -4l-4.5 -4.5l-4.5 -4.5q-2 -1 -4 -1.5t-3 -1.5q-1 0 -1.5 -0.5t-1.5 -0.5q-4 -2 -7.5 -3t-8.5 -1h-7.5h-6.5h-9h-8t-7 0.5t-7 0.5l-12.5 -26t-27.5 -58q0 -1 -0.5 -2t-1.5 -2q-12 -25 -23 -46.5
t-16 -29.5q-9 -13 -21.5 -18t-26.5 -5h-4.5h-4.5q-9 1 -18 3l-18 4q-4 2 -7.5 3t-6.5 2q-2 1 -4.5 1.5t-5.5 1.5q-23 9 -42.5 23t-19.5 39q0 5 1 9.5t2 9.5q2 6 6.5 17.5t10.5 24.5q0 1 0.5 2l0.5 1q7 17 13 30l6 13q-1 1 -2.5 1.5t-2.5 0.5q-1 1 -2 1.5t-2 0.5q-2 2 -4 4.5
t-5 7.5q-1 3 -2 7.5t-1 8.5q0 7 1.5 15.5t3.5 17.5q1 6 2.5 12t3.5 12q3 10 6 18t4 12q1 2 1.5 4t1.5 3q9 25 20.5 46t38.5 28q4 1 8.5 1.5t8.5 0.5q5 0 9 -0.5t7 -0.5t5 -0.5l2 -0.5l29.5 54t64.5 119q33 60 61 111.5t32 58.5q5 9 10 16t9 14q13 16 27 24t34 8h2.5h1.5
q13 0 29.5 -2t32.5 -5q37 -8 68.5 -25t33.5 -47q1 -10 1 -32.5v-54.5q0 -44 -0.5 -100.5t-1.5 -115.5q-1 -63 -3.5 -123t-5.5 -104v0zM399 382l-1 1q3 -3 7.5 -5t9.5 -2q1 -1 3 -1h3q5 0 9.5 1.5t8.5 4.5l14 137l-9 -17t-19 -39q-1 -3 -2.5 -6.5t-3.5 -6.5q-8 -19 -15 -36
t-7 -26q0 -1 0.5 -2.5t1.5 -2.5v0zM567 1039l68 -74q2 -2 3.5 -4t3.5 -4v0v0q4 -5 7.5 -9t5.5 -5q4 -3 5.5 -7.5t1.5 -10.5q0 -4 -1 -9l-2 -10q-5 -14 -15 -26t-22 -13h-2h-1q-1 0 -2 0.5t-2 0.5q-2 1 -3.5 1t-2.5 1l-10.5 3.5t-9.5 4.5q-2 1 -4 2.5t-4 2.5l-72 49
q-2 2 -5 3.5t-5 3.5q-13 8 -24 17t-11 20v1.5v1.5q1 6 6 17.5t13 24.5q4 6 7.5 12t7.5 11q7 10 13.5 16.5t11.5 7.5q1 0 2 0.5t2 0.5h2h2q9 0 14.5 -5t10.5 -12l1.5 -1.5l1.5 -1.5q2 -3 4 -5.5t4 -4.5v0z" />
    <glyph glyph-name="Atilde" unicode="&#xc3;" horiz-adv-x="588" 
d="M614 177v1q0 -18 -1 -32t-3 -28q-1 -10 -2 -19t-2 -20q0 -6 -0.5 -13t-1.5 -15q-4 -37 -24.5 -46.5t-46.5 -9.5h-7.5h-6.5q-4 1 -7.5 1h-6.5q-5 0 -9.5 0.5t-9.5 1.5q-27 3 -49.5 15t-22.5 36v0.5v1.5v1.5v0.5q1 14 2 35t1 43q1 36 1.5 66.5l0.5 30.5q-2 -1 -4 -2.5
t-4 -3.5q-2 -1 -3.5 -2.5l-2.5 -2.5q-3 -3 -5.5 -5t-4.5 -4l-4 -4l-4 -4l-4.5 -4.5l-4.5 -4.5q-2 -1 -4 -1.5t-3 -1.5q-1 0 -1.5 -0.5t-1.5 -0.5q-4 -2 -7.5 -3t-8.5 -1h-7.5h-6.5h-9h-8t-7 0.5t-7 0.5l-12.5 -26t-27.5 -58q0 -1 -0.5 -2t-1.5 -2q-12 -25 -23 -46.5
t-16 -29.5q-9 -13 -21.5 -18t-26.5 -5h-4.5h-4.5q-9 1 -18 3l-18 4q-4 2 -7.5 3t-6.5 2q-2 1 -4.5 1.5t-5.5 1.5q-23 9 -42.5 23t-19.5 39q0 5 1 9.5t2 9.5q2 6 6.5 17.5t10.5 24.5q0 1 0.5 2l0.5 1q7 17 13 30l6 13q-1 1 -2.5 1.5t-2.5 0.5q-1 1 -2 1.5t-2 0.5q-2 2 -4 4.5
t-5 7.5q-1 3 -2 7.5t-1 8.5q0 7 1.5 15.5t3.5 17.5q1 6 2.5 12t3.5 12q3 10 6 18t4 12q1 2 1.5 4t1.5 3q9 25 20.5 46t38.5 28q4 1 8.5 1.5t8.5 0.5q5 0 9 -0.5t7 -0.5t5 -0.5l2 -0.5l29.5 54t64.5 119q33 60 61 111.5t32 58.5q5 9 10 16t9 14q13 16 27 24t34 8h2.5h1.5
q13 0 29.5 -2t32.5 -5q37 -8 68.5 -25t33.5 -47q1 -10 1 -32.5v-54.5q0 -44 -0.5 -100.5t-1.5 -115.5q-1 -63 -3.5 -123t-5.5 -104v0zM400 382l-1 1q3 -3 7.5 -5t9.5 -2q1 -1 3 -1h3q5 0 9.5 1.5t8.5 4.5l14 137l-9 -17t-19 -39q-1 -3 -2.5 -6.5t-3.5 -6.5q-8 -19 -15 -36
t-7 -26q0 -1 0.5 -2.5t1.5 -2.5v0zM586 981l3 -1q5 -3 8.5 -5.5t7.5 -3.5q2 0 4 -0.5t4 -0.5q8 0 15.5 5t17.5 16l2.5 2.5l2.5 2.5l6 4t6 3q3 2 5.5 2.5t4.5 0.5h4.5t3.5 -2q5 -4 7 -9t2 -11q0 -5 -1.5 -10.5t-3.5 -11.5q-3 -6 -6.5 -12.5t-7.5 -12.5q-2 -3 -3.5 -5.5
t-3.5 -5.5q-6 -9 -19.5 -17t-30.5 -13h-1.5h-1.5q-8 -1 -16 4t-15 11q-2 1 -3.5 2.5t-3.5 2.5q-3 2 -6 5t-6 5q-7 6 -13.5 10.5t-13.5 4.5h-2h-2h-0.5h-1.5h-1.5h-0.5h-2h-3q-4 -1 -9.5 -5.5t-18.5 -18.5q-3 -3 -5.5 -7t-4.5 -8q-1 -2 -2.5 -4t-2.5 -4l-8 -12t-10 -11
q-10 -7 -14 3.5t-4 26.5v5.5v5.5q1 9 3 18.5t5 15.5q8 15 16 27t18 20q3 2 6.5 5t7.5 6q5 3 11.5 6.5t14.5 5.5q1 0 2 0.5t2 0.5h1h2q11 0 20.5 -7t18.5 -15q0 -1 0.5 -1h0.5q4 -4 7.5 -7t7.5 -6v0z" />
    <glyph glyph-name="Otilde" unicode="&#xd5;" horiz-adv-x="647" 
d="M551 762h-1v-52l43 36q5 4 10.5 8.5t11.5 9.5q9 8 19 14.5t20 10.5q4 1 7.5 1.5t6.5 0.5q7 0 13.5 -2.5t12.5 -9.5q41 -43 50 -94.5t12 -113.5v-4.5v-4.5v-6t1 -6v-5.5v-5.5q0 -32 -3.5 -65.5t-10.5 -67.5q-33 -160 -131.5 -293t-231.5 -133q-22 0 -44.5 4.5t-45.5 13.5
q-94 38 -125.5 108t-31.5 169q0 193 114.5 354t253.5 174h2.5t2.5 1h2.5h2.5q24 0 32 -12.5t8 -29.5v0zM497 311l2 -1q8 22 15 40t12 35q5 19 8.5 39t5.5 44q2 23 2.5 39.5t0.5 28.5q0 13 -1 22.5t-2 17.5q-2 10 -4.5 21.5t-5.5 27.5l-31 -25q-7 -6 -12.5 -9.5t-10.5 -6.5
l-1.5 -1.5l-1.5 -1.5q-7 -4 -14 -10.5t-17 -19.5q-9 -11 -20.5 -27t-23.5 -36q-22 -38 -40.5 -90t-20.5 -113v-0.5v-1.5v-1.5v-0.5q0 -7 0.5 -14t1.5 -14q3 -24 14.5 -44t33.5 -21v0h1v0v0q22 0 43 21t37 46q10 16 17.5 31t11.5 25v0zM625 982l3 -1q5 -3 8.5 -5.5t7.5 -3.5
q2 0 4 -0.5t4 -0.5q8 0 15.5 5t17.5 16l2.5 2.5l2.5 2.5l6 4t6 3q3 2 5.5 2.5t4.5 0.5h4.5t3.5 -2q5 -4 7 -9t2 -11q0 -5 -1.5 -10.5t-3.5 -11.5q-3 -6 -6.5 -12.5t-7.5 -12.5q-2 -3 -3.5 -5.5t-3.5 -5.5q-6 -9 -19.5 -17t-30.5 -13h-1.5h-1.5q-8 -1 -16 4t-15 11
q-2 1 -3.5 2.5t-3.5 2.5q-3 2 -6 5t-6 5q-7 6 -13.5 10.5t-13.5 4.5h-2h-2h-0.5h-1.5h-1.5h-0.5h-2.5h-2.5q-4 -1 -9.5 -5.5t-17.5 -18.5q-3 -3 -5 -6.5t-4 -7.5q-2 -2 -3.5 -4.5t-2.5 -4.5q-4 -6 -8.5 -12t-10.5 -11q-10 -7 -14 3.5t-4 26.5v5.5v5.5q1 9 3 18.5t5 15.5
q8 15 16.5 27t18.5 20q3 2 6.5 5t6.5 6q5 3 11.5 6.5t14.5 5.5q1 0 2 0.5t2 0.5h1h2q11 0 20.5 -7t18.5 -15q0 -1 0.5 -1h0.5q4 -4 7.5 -7t7.5 -6v0z" />
    <glyph glyph-name="OE" unicode="&#x152;" horiz-adv-x="916" 
d="M287 -4q-94 40 -126 109.5t-32 168.5q0 193 114.5 354t252.5 174h4.5h4.5q22 0 32.5 -12t10.5 -42v-11t-1 -12q6 20 16 37.5t25 21.5q8 3 12.5 4.5t8.5 1.5q4 1 10 1.5t18 0.5h16.5h22.5l296 1q46 0 64 -9.5t21 -21.5q1 -3 1.5 -5.5t0.5 -4.5q0 -3 -0.5 -6.5t-1.5 -6.5
q0 -1 -0.5 -2t-0.5 -2q-1 -2 -1.5 -4.5t-0.5 -4.5q-3 -12 -5.5 -25.5t-6.5 -27.5q-8 -34 -23 -63t-45 -28l-256 10v-1.5v-0.5v-1.5v-1.5q0 -12 6.5 -18t15.5 -11q1 0 2.5 -1t2.5 -1q6 -3 10.5 -6.5t5.5 -8.5q0 -1 0.5 -3t0.5 -3v-3.5v-3.5v-2.5v-3.5q0 -5 -0.5 -10t-1.5 -9
q0 -3 -0.5 -5.5t-0.5 -4.5q-1 -7 -1.5 -13.5t-0.5 -13.5l25.5 -0.5t57.5 -1.5h4.5h4.5q30 -1 56 -1.5t34 -0.5q12 0 20.5 -11t8.5 -25v-1.5v-1.5q-1 -10 -7 -34t-16 -51q-4 -11 -8.5 -21t-9.5 -19q0 -1 -0.5 -1.5l-0.5 -0.5q-5 -9 -14.5 -15.5t-43.5 -7.5h-2h-1h-2h-2
q-14 0 -35 0.5t-43 1.5q-7 1 -13.5 1t-13.5 1q-28 1 -48.5 2l-20.5 1l-22 -107h131h10h10h5h5q26 1 47 -5t21 -29v-0.5v-1.5v-1.5v-0.5q-1 -17 -3 -32t-5 -29q-3 -11 -7 -22.5t-9 -23.5q-10 -24 -24 -30t-31 -6h-8h-8q-4 1 -8 1h-8q-57 1 -92.5 1t-60.5 -1h-24h-21h-12.5
h-12.5q-15 0 -27.5 5.5t-20.5 12.5q-2 2 -4 3.5t-3 3.5q-25 -17 -57.5 -28t-70.5 -12q-21 0 -44 4.5t-46 14.5v-1zM490 277l-2 -1q-2 1 -4 1.5t-4 0.5q-9 3 -17.5 8.5t-10.5 19.5v2v2v2v2v2.5v3.5q1 12 2.5 23.5t4.5 20.5q1 4 1.5 7t1.5 5q1 6 3 11.5t4 11.5q4 12 8.5 23
t9.5 20q4 9 8.5 14.5t8.5 6.5q9 3 16.5 4.5t14.5 1.5h7t6 -1l38 134l-65 6v0h-1q-6 0 -20 -7.5t-29 -19.5q-8 -6 -16 -14t-15 -16q-9 -11 -20.5 -27.5t-23.5 -37.5q-21 -38 -39.5 -89.5t-20.5 -111.5v-1.5v-2.5q0 -7 0.5 -15.5t2.5 -16.5q4 -23 15 -42t32 -19h0.5h1.5h1.5
h0.5q21 2 40.5 17.5t33.5 34.5q9 10 15 20t11 17v0z" />
    <glyph glyph-name="oe" unicode="&#x153;" horiz-adv-x="916" 
d="M287 -4q-94 40 -126 109.5t-32 168.5q0 193 114.5 354t252.5 174h4.5h4.5q22 0 32.5 -12t10.5 -42v-11t-1 -12q6 20 16 37.5t25 21.5q8 3 12.5 4.5t8.5 1.5q4 1 10 1.5t18 0.5h16.5h22.5l296 1q46 0 64 -9.5t21 -21.5q1 -3 1.5 -5.5t0.5 -4.5q0 -3 -0.5 -6.5t-1.5 -6.5
q0 -1 -0.5 -2t-0.5 -2q-1 -2 -1.5 -4.5t-0.5 -4.5q-3 -12 -5.5 -25.5t-6.5 -27.5q-8 -34 -23 -63t-45 -28l-256 10v-1.5v-0.5v-1.5v-1.5q0 -12 6.5 -18t15.5 -11q1 0 2.5 -1t2.5 -1q6 -3 10.5 -6.5t5.5 -8.5q0 -1 0.5 -3t0.5 -3v-3.5v-3.5v-2.5v-3.5q0 -5 -0.5 -10t-1.5 -9
q0 -3 -0.5 -5.5t-0.5 -4.5q-1 -7 -1.5 -13.5t-0.5 -13.5l25.5 -0.5t57.5 -1.5h4.5h4.5q30 -1 56 -1.5t34 -0.5q12 0 20.5 -11t8.5 -25v-1.5v-1.5q-1 -10 -7 -34t-16 -51q-4 -11 -8.5 -21t-9.5 -19q0 -1 -0.5 -1.5l-0.5 -0.5q-5 -9 -14.5 -15.5t-43.5 -7.5h-2h-1h-2h-2
q-14 0 -35 0.5t-43 1.5q-7 1 -13.5 1t-13.5 1q-28 1 -48.5 2l-20.5 1l-22 -107h131h10h10h5h5q26 1 47 -5t21 -29v-0.5v-1.5v-1.5v-0.5q-1 -17 -3 -32t-5 -29q-3 -11 -7 -22.5t-9 -23.5q-10 -24 -24 -30t-31 -6h-8h-8q-4 1 -8 1h-8q-57 1 -92.5 1t-60.5 -1h-24h-21h-12.5
h-12.5q-15 0 -27.5 5.5t-20.5 12.5q-2 2 -4 3.5t-3 3.5q-25 -17 -57.5 -28t-70.5 -12q-21 0 -44 4.5t-46 14.5v-1zM490 277l-2 -1q-2 1 -4 1.5t-4 0.5q-9 3 -17.5 8.5t-10.5 19.5v2v2v2v2v2.5v3.5q1 12 2.5 23.5t4.5 20.5q1 4 1.5 7t1.5 5q1 6 3 11.5t4 11.5q4 12 8.5 23
t9.5 20q4 9 8.5 14.5t8.5 6.5q9 3 16.5 4.5t14.5 1.5h7t6 -1l38 134l-65 6v0h-1q-6 0 -20 -7.5t-29 -19.5q-8 -6 -16 -14t-15 -16q-9 -11 -20.5 -27.5t-23.5 -37.5q-21 -38 -39.5 -89.5t-20.5 -111.5v-1.5v-2.5q0 -7 0.5 -15.5t2.5 -16.5q4 -23 15 -42t32 -19h0.5h1.5h1.5
h0.5q21 2 40.5 17.5t33.5 34.5q9 10 15 20t11 17v0z" />
    <glyph glyph-name="emdash" unicode="&#x2014;" horiz-adv-x="916" 
d="M269 481l1 -1l154 -1h512h2.5h3.5q18 0 34.5 -3t26.5 -18q2 -2 2.5 -5.5t0.5 -8.5q0 -11 -4 -27t-11 -33q-5 -13 -11.5 -25.5t-13.5 -23.5q-6 -11 -13 -18.5t-12 -10.5q-7 -4 -14.5 -5.5t-15.5 -1.5q-5 0 -10 0.5t-10 0.5t-10 0.5t-10 0.5l-135 1l-512 1h-2.5h-2.5h-12
h-15q-10 1 -19.5 3.5t-13.5 7.5q-6 8 -8.5 18.5t-2.5 21.5q0 7 1 13.5t2 13.5q4 16 10 32t13 28q8 13 14.5 21.5t9.5 10.5q6 3 14.5 4.5t17.5 2.5q6 1 12.5 1h11.5h9.5h5.5v0z" />
    <glyph glyph-name="quotedblleft" unicode="&#x201c;" horiz-adv-x="504" 
d="M304 572l-57 130q-2 4 -4 8.5t-5 8.5q-2 4 -4.5 8.5t-4.5 8.5q-3 5 -4.5 10.5t-1.5 11.5q0 4 1 8t3 8q4 8 23 11.5t41 4.5h4.5h4.5q14 0 27 -1t19 -3q13 -5 20 -24t12 -41q0 -1 0.5 -2.5t0.5 -2.5q1 -4 2 -8.5t2 -8.5l32 -116q1 -2 1.5 -5t1.5 -6q2 -4 3 -10t1 -12
q0 -3 -0.5 -6t-1.5 -6q-2 -7 -17 -10.5t-33 -3.5q-13 0 -26 2.5t-22 7.5q-2 1 -5.5 7.5t-6.5 14.5v1.5t-1 1.5q-1 3 -2.5 6.5t-2.5 6.5v0zM515 573l-58 130q-2 4 -4 8.5t-5 8.5q-2 4 -4.5 8.5t-4.5 8.5q-3 5 -4.5 10.5t-1.5 11.5q0 4 1 8t3 8q4 8 22.5 11.5t40.5 4.5h5h6
q14 0 27 -1t19 -3q13 -5 20 -24t12 -41q0 -1 0.5 -2.5t0.5 -2.5q1 -4 2 -8.5t2 -8.5l32 -116q1 -2 1.5 -5t1.5 -6q2 -4 3 -10t1 -12q0 -3 -0.5 -6t-1.5 -6q-2 -7 -17 -10.5t-33 -3.5q-13 0 -26 2.5t-22 7.5q-2 1 -5.5 7.5t-6.5 14.5v1.5t-1 1.5q-1 3 -2.5 6.5t-2.5 6.5v0z
" />
    <glyph glyph-name="quotedblright" unicode="&#x201d;" horiz-adv-x="425" 
d="M383 704l-59 -130q-1 -3 -2.5 -6.5t-3.5 -6.5q-3 -9 -6.5 -16.5t-6.5 -8.5q-7 -4 -16.5 -6.5t-20.5 -3.5h-4.5h-5.5q-18 0 -33 3.5t-17 10.5q0 2 -0.5 3.5t-0.5 3.5q-1 1 -1 3v3q0 5 1 10t2 9t2 7t1 6l33 116q1 3 1.5 6t1.5 7q1 2 1.5 4t0.5 5q6 22 13 41t20 24
q6 2 18.5 3t26.5 1h6h5q22 -1 40.5 -4.5t22.5 -11.5q2 -4 3 -8t1 -8q0 -6 -1.5 -11.5t-4.5 -10.5q-2 -5 -4.5 -9.5t-4.5 -9.5q-2 -3 -4 -7l-4 -8v0zM596 705l-59 -130q-1 -3 -2.5 -6.5t-3.5 -6.5q-3 -9 -6.5 -16.5t-6.5 -8.5q-9 -5 -21.5 -7.5t-26.5 -2.5q-18 0 -33 3.5
t-17 10.5q0 2 -0.5 3.5t-0.5 3.5q-1 1 -1 3v3q0 5 1 10t2 9t2 7t1 6l33 116q1 3 1.5 6t1.5 7q1 2 1.5 4t0.5 5q6 22 13 41t20 24q7 2 19 3t27 1h6h5q22 -1 40.5 -4.5t22.5 -11.5q2 -4 3 -8t1 -8q0 -6 -1.5 -11.5t-4.5 -10.5q-2 -5 -4.5 -9.5t-4.5 -9.5q-2 -3 -4 -7l-4 -8v0z
" />
    <glyph glyph-name="quoteleft" unicode="&#x2018;" horiz-adv-x="306" 
d="M321 573l-57 130q-2 4 -4 8.5t-5 8.5q-2 4 -4.5 8.5t-4.5 8.5q-3 5 -4.5 10.5t-1.5 11.5q0 4 1 8t3 8q4 8 23 11.5t41 4.5h4.5h4.5q14 0 27 -1t19 -3q13 -5 20 -24t12 -41q0 -1 0.5 -2.5t0.5 -2.5q1 -4 2 -8.5t2 -8.5l32 -116q1 -2 1.5 -5t1.5 -6q2 -4 3 -10t1 -12
q0 -3 -0.5 -6t-1.5 -6q-2 -7 -17 -10.5t-33 -3.5q-13 0 -26 2.5t-22 7.5q-2 1 -5.5 7.5t-6.5 14.5v1.5t-1 1.5q-1 3 -2.5 6.5t-2.5 6.5v0z" />
    <glyph glyph-name="quoteright" unicode="&#x2019;" horiz-adv-x="238" 
d="M388 704l-57 -130q-1 -3 -2.5 -6.5t-2.5 -6.5q-1 -1 -1 -1.5v-1.5q-3 -8 -6 -14.5t-6 -7.5q-7 -4 -16.5 -6.5t-20.5 -3.5h-4.5h-5.5q-18 0 -33.5 3.5t-17.5 10.5q0 2 -0.5 3t-0.5 3q-1 1 -1 2.5v2.5q0 6 1 12t3 11q1 3 1.5 6t1.5 5l32 116q1 4 2 8.5t2 8.5q0 1 0.5 2.5
t0.5 2.5q5 22 12 41t20 24q6 2 18.5 3t26.5 1h6h5q22 -1 40.5 -4.5t22.5 -11.5l2 -4t1 -4q1 -2 1 -4v-4q0 -6 -1.5 -11.5t-4.5 -10.5q-2 -4 -4.5 -8.5t-4.5 -8.5q-3 -4 -5 -8.5t-4 -8.5v0z" />
    <glyph glyph-name="divide" unicode="&#xf7;" horiz-adv-x="692" 
d="M431 293h1q23 0 36.5 -14t13.5 -35v-8.5t-2 -9.5q-6 -24 -27 -43t-46 -24q-3 0 -6 -0.5t-6 -0.5h-0.5h-0.5h-0.5h-0.5q-22 1 -35.5 14.5t-13.5 34.5q0 5 1 10l2 10q7 25 29 44t48 22h3.5h3.5v0zM141 355l19 68h115h512l-19 -68h-115h-512v0zM520 620q23 0 37 -14.5
t14 -35.5v-8t-2 -9q-7 -28 -32 -48.5t-54 -20.5h-0.5h-0.5h-0.5h-0.5q-22 0 -35.5 14.5t-13.5 35.5q0 5 1 10l2 10q7 26 30.5 45t50.5 21h2h2v0z" />
    <glyph glyph-name="ydieresis" unicode="&#xff;" horiz-adv-x="530" 
d="M692 659l-66 -128l-261 -512q-7 -15 -22 -22.5t-33 -8.5h-4t-4 1q-3 0 -5 0.5t-4 0.5q-7 1 -13.5 2.5t-12.5 2.5q-9 2 -17.5 3.5t-16.5 3.5q-10 3 -20.5 7t-21.5 9q-8 5 -11.5 11t-3.5 13q-1 9 2 18t7 16l96 191l-84 445q-1 3 -1.5 6.5t-0.5 7.5q-1 4 -1 7.5v6.5
q0 17 9.5 28.5t37.5 12.5h3.5h2.5q2 -1 3.5 -1h3.5q19 -1 35.5 -3t33.5 -5q9 -2 18.5 -4.5t19.5 -6.5q11 -4 17 -16.5t7 -26.5q1 -2 1 -3.5v-3.5l22 -209l103 212q11 24 27 44t45 20h3.5h3.5t3.5 -0.5t3.5 -0.5q5 -1 9.5 -1.5t8.5 -0.5q19 -2 35.5 -5.5t32.5 -11.5l8 -4
t8 -5q9 -6 12.5 -13.5t3.5 -15.5q0 -9 -3 -18t-8 -18q-1 -4 -2.5 -7l-3.5 -7q-2 -2 -3.5 -5t-2.5 -6v0zM421 1002h-1q36 -1 47.5 -20.5t11.5 -44.5v-2.5v-3.5q-1 -26 -19 -47t-44 -21h-1.5h-1.5q-25 2 -39 22t-14 48v1.5v1.5q1 20 14.5 37.5t30.5 24.5q3 2 7 3t8 1v0h1v0v0
v0zM591 1002h-1q36 -1 47.5 -20.5t11.5 -44.5v-2.5v-3.5q-1 -26 -19 -47t-44 -21h-1.5h-1.5q-25 2 -39 22t-14 48v1.5v1.5q1 20 14.5 37.5t30.5 24.5q3 2 7 3t8 1v0h1v0v0v0z" />
    <glyph glyph-name="Ydieresis" unicode="&#x178;" 
 />
    <glyph glyph-name="currency" unicode="&#xa4;" 
 />
    <glyph glyph-name="guilsinglleft" unicode="&#x2039;" 
 />
    <glyph glyph-name="guilsinglright" unicode="&#x203a;" 
 />
    <glyph glyph-name="daggerdbl" unicode="&#x2021;" 
 />
    <glyph glyph-name="quotesinglbase" unicode="&#x201a;" 
 />
    <glyph glyph-name="quotedblbase" unicode="&#x201e;" 
 />
    <glyph glyph-name="perthousand" unicode="&#x2030;" 
 />
    <glyph glyph-name="Acircumflex" unicode="&#xc2;" horiz-adv-x="598" 
d="M613 177v1q0 -18 -1 -32t-3 -28q-1 -10 -2 -19t-2 -20q0 -6 -0.5 -13t-1.5 -15q-4 -37 -24.5 -46.5t-46.5 -9.5h-7.5h-6.5q-4 1 -7.5 1h-6.5q-5 0 -9.5 0.5t-9.5 1.5q-27 3 -49.5 15t-22.5 36v0.5v1.5v1.5v0.5q1 14 2 35t1 43q1 36 1.5 66.5l0.5 30.5q-2 -1 -4 -2.5
t-4 -3.5q-2 -1 -3.5 -2.5l-2.5 -2.5q-3 -3 -5.5 -5t-4.5 -4l-4 -4l-4 -4l-4.5 -4.5l-4.5 -4.5q-2 -1 -4 -1.5t-3 -1.5q-1 0 -1.5 -0.5t-1.5 -0.5q-4 -2 -7.5 -3t-8.5 -1h-7.5h-6.5h-9h-8t-7 0.5t-7 0.5l-12.5 -26t-27.5 -58q0 -1 -0.5 -2t-1.5 -2q-12 -25 -23 -46.5
t-16 -29.5q-9 -13 -21.5 -18t-26.5 -5h-4.5h-4.5q-9 1 -18 3l-18 4q-4 2 -7.5 3t-6.5 2q-2 1 -4.5 1.5t-5.5 1.5q-23 9 -42.5 23t-19.5 39q0 5 1 9.5t2 9.5q2 6 6.5 17.5t10.5 24.5q0 1 0.5 2l0.5 1q7 17 13 30l6 13q-1 1 -2.5 1.5t-2.5 0.5q-1 1 -2 1.5t-2 0.5q-2 2 -4 4.5
t-5 7.5q-1 3 -2 7.5t-1 8.5q0 7 1.5 15.5t3.5 17.5q1 6 2.5 12t3.5 12q3 10 6 18t4 12q1 2 1.5 4t1.5 3q9 25 20.5 46t38.5 28q4 1 8.5 1.5t8.5 0.5q5 0 9 -0.5t7 -0.5t5 -0.5l2 -0.5l29.5 54t64.5 119q33 60 61 111.5t32 58.5q5 9 10 16t9 14q13 16 27 24t34 8h2.5h1.5
q13 0 29.5 -2t32.5 -5q37 -8 68.5 -25t33.5 -47q1 -10 1 -32.5v-54.5q0 -44 -0.5 -100.5t-1.5 -115.5q-1 -63 -3.5 -123t-5.5 -104v0zM399 382l-1 1q3 -3 7.5 -5t9.5 -2q1 -1 3 -1h3q5 0 9.5 1.5t8.5 4.5l14 137l-9 -17t-19 -39q-1 -3 -2.5 -6.5t-3.5 -6.5q-8 -19 -15 -36
t-7 -26q0 -1 0.5 -2.5t1.5 -2.5v0zM566 1068l-2 -1q11 5 20.5 -7t17.5 -27q1 -4 3 -7t3 -6q2 -2 3.5 -4.5t2.5 -4.5l52 -77q1 -2 2 -5l2 -6t1.5 -5t0.5 -4v-0.5v-1.5t-0.5 -1.5l-0.5 -0.5q-1 -3 -3.5 -6t-5.5 -5q-5 -5 -12 -10t-13 -9q-11 -6 -20.5 -9t-13.5 0q-6 2 -9 6.5
t-5 10.5q0 1 -0.5 2.5t-1.5 2.5l-52 75l-96 -78l-3.5 -3.5t-2.5 -3.5q-5 -5 -10.5 -9t-12.5 -6q-1 -1 -2 -1h-3q-3 0 -6.5 1t-7.5 3q-7 4 -14 11t-10 14q-1 3 -2 5.5t-1 5.5q0 2 2 5.5t5 8.5q2 2 4.5 4t4.5 4q0 1 0.5 1.5t1.5 0.5l111 86q2 2 4.5 4t5.5 4q4 4 8.5 7.5
t8.5 6.5q12 9 24 17t22 12v0z" />
    <glyph glyph-name="Ecircumflex" unicode="&#xca;" horiz-adv-x="592" 
d="M639 583l-259 11v-1.5v-0.5v-1.5v-1.5q0 -12 6.5 -18t15.5 -11q1 0 2.5 -1t2.5 -1q6 -3 10.5 -6.5t5.5 -8.5q0 -1 0.5 -3t0.5 -3v-3.5v-3.5v-2.5v-3.5q0 -5 -0.5 -10t-1.5 -9q0 -3 -0.5 -5.5t-0.5 -4.5q-1 -7 -1.5 -13.5t-0.5 -13.5l25.5 -0.5t57.5 -1.5h5h5
q30 -1 56 -1.5t34 -0.5q12 0 20.5 -11t8.5 -25v-1.5v-1.5q-1 -10 -7 -34t-16 -51q-4 -11 -8.5 -21t-9.5 -19q0 -1 -0.5 -1.5l-0.5 -0.5q-5 -9 -14.5 -15.5t-43.5 -7.5h-3.5h-4.5q-14 0 -35 0.5t-43 1.5q-7 1 -13.5 1t-13.5 1q-28 1 -48.5 2l-20.5 1l-22 -107h131h10h10h5h5
h1.5h1.5q25 1 45.5 -5t20.5 -29v-0.5v-1.5v-1.5v-0.5q-1 -17 -3 -32t-5 -29q-3 -11 -7 -22.5t-9 -23.5q-10 -25 -25 -31t-33 -6h-7h-8q-1 1 -2 1h-3h-4.5h-5.5q-20 1 -38.5 1h-35.5h-35.5t-31.5 -1h-26h-23q-42 0 -62 6.5t-36 31.5q-1 1 -1.5 2.5t-1.5 2.5q-6 10 -11.5 19.5
t-10.5 18.5q-6 12 -10.5 23.5t-5.5 25.5q0 7 0.5 12t1.5 10q1 3 1.5 5.5t0.5 5.5l32 119q-2 1 -4 1.5t-4 0.5q-9 3 -17.5 8.5t-10.5 19.5v2v2v2v2v2.5v3.5q1 12 2.5 23.5t4.5 20.5q1 4 1.5 7t1.5 5q1 6 3 11.5t4 11.5q3 11 7.5 21t8.5 19q5 10 9.5 16.5t8.5 7.5q6 2 11 3.5
t10 2.5h3.5h3.5q4 0 8 -0.5t8 -1.5l40 124l-40 -2q-13 0 -20.5 10t-7.5 22v0.5v1.5v1.5v0.5q4 16 11.5 39.5t14.5 49.5q2 4 3 7.5t2 7.5q1 3 1.5 5.5t1.5 4.5q9 27 24.5 40.5t66.5 13.5l329 1q46 0 64 -9.5t21 -21.5q1 -3 1.5 -5.5t0.5 -4.5q0 -3 -0.5 -6.5t-1.5 -6.5
q0 -1 -0.5 -2t-0.5 -2q-1 -2 -1.5 -4.5t-0.5 -4.5q-3 -12 -5.5 -25.5t-6.5 -27.5q-8 -34 -23 -63t-45 -28v0zM553 1066l-2 -1q11 5 20.5 -7t17.5 -27q1 -4 3 -7t3 -6q2 -2 3.5 -4.5t2.5 -4.5l52 -77q1 -2 2 -5l2 -6t1.5 -5t0.5 -4v-0.5v-1.5t-0.5 -1.5l-0.5 -0.5
q-1 -3 -3.5 -6t-5.5 -5q-5 -5 -12 -10t-13 -9q-11 -6 -20.5 -9t-13.5 0q-6 2 -9 6.5t-5 10.5q0 1 -0.5 2.5t-1.5 2.5l-52 75l-96 -78l-3.5 -3.5t-2.5 -3.5q-5 -5 -10.5 -9t-12.5 -6q-1 -1 -2 -1h-3q-3 0 -6.5 1t-7.5 3q-7 4 -14 11t-10 14q-1 3 -2 5.5t-1 5.5q0 2 2 5.5
t5 8.5q2 2 4.5 4t4.5 4q0 1 0.5 1.5t1.5 0.5l111 86q2 2 4.5 4t5.5 4q4 4 8.5 7.5t8.5 6.5q12 9 24 17t22 12v0z" />
    <glyph glyph-name="Aacute" unicode="&#xc1;" horiz-adv-x="595" 
d="M614 177v1q0 -18 -1 -32t-3 -28q-1 -10 -2 -19t-2 -20q0 -6 -0.5 -13t-1.5 -15q-4 -37 -24.5 -46.5t-46.5 -9.5h-7.5h-6.5q-4 1 -7.5 1h-6.5q-5 0 -9.5 0.5t-9.5 1.5q-27 3 -49.5 15t-22.5 36v0.5v1.5v1.5v0.5q1 14 2 35t1 43q1 36 1.5 66.5l0.5 30.5q-2 -1 -4 -2.5
t-4 -3.5q-2 -1 -3.5 -2.5l-2.5 -2.5q-3 -3 -5.5 -5t-4.5 -4l-4 -4l-4 -4l-4.5 -4.5l-4.5 -4.5q-2 -1 -4 -1.5t-3 -1.5q-1 0 -1.5 -0.5t-1.5 -0.5q-4 -2 -7.5 -3t-8.5 -1h-7.5h-6.5h-9h-8t-7 0.5t-7 0.5l-12.5 -26t-27.5 -58q0 -1 -0.5 -2t-1.5 -2q-12 -25 -23 -46.5
t-16 -29.5q-9 -13 -21.5 -18t-26.5 -5h-4.5h-4.5q-9 1 -18 3l-18 4q-4 2 -7.5 3t-6.5 2q-2 1 -4.5 1.5t-5.5 1.5q-23 9 -42.5 23t-19.5 39q0 5 1 9.5t2 9.5q2 6 6.5 17.5t10.5 24.5q0 1 0.5 2l0.5 1q7 17 13 30l6 13q-1 1 -2.5 1.5t-2.5 0.5q-1 1 -2 1.5t-2 0.5q-2 2 -4 4.5
t-5 7.5q-1 3 -2 7.5t-1 8.5q0 7 1.5 15.5t3.5 17.5q1 6 2.5 12t3.5 12q3 10 6 18t4 12q1 2 1.5 4t1.5 3q9 25 20.5 46t38.5 28q4 1 8.5 1.5t8.5 0.5q5 0 9 -0.5t7 -0.5t5 -0.5l2 -0.5l29.5 54t64.5 119q33 60 61 111.5t32 58.5q5 9 10 16t9 14q13 16 27 24t34 8h2.5h1.5
q13 0 29.5 -2t32.5 -5q37 -8 68.5 -25t33.5 -47q1 -10 1 -32.5v-54.5q0 -44 -0.5 -100.5t-1.5 -115.5q-1 -63 -3.5 -123t-5.5 -104v0zM400 382l-1 1q3 -3 7.5 -5t9.5 -2q1 -1 3 -1h3q5 0 9.5 1.5t8.5 4.5l14 137l-9 -17t-19 -39q-1 -3 -2.5 -6.5t-3.5 -6.5q-8 -19 -15 -36
t-7 -26q0 -1 0.5 -2.5t1.5 -2.5v0zM467 959l89 74q3 2 5.5 4.5l5.5 5.5l2 2l2 2q7 7 13.5 11.5t15.5 4.5h4t4 -1q2 0 3.5 -1.5l3.5 -3.5q5 -6 10.5 -17.5t9.5 -24.5q4 -11 6 -21.5t2 -17.5v-1.5v-1.5q-1 -11 -14 -20.5t-28 -18.5q-4 -2 -7.5 -4t-7.5 -4l-85 -49
q-5 -3 -10 -5l-10 -4q-3 -1 -6.5 -2t-6.5 -2q-2 -1 -3.5 -1t-3.5 -1q-1 0 -2 -0.5l-1 -0.5h-2h-2q-13 0 -19.5 12t-7.5 26v1.5v1.5q0 11 3.5 21t10.5 14q2 1 7 5t10 9v0h1l4 4l4 4v0z" />
    <glyph glyph-name="Edieresis" unicode="&#xcb;" horiz-adv-x="580" 
d="M639 583l-259 11v-1.5v-0.5v-1.5v-1.5q0 -12 6.5 -18t15.5 -11q1 0 2.5 -1t2.5 -1q6 -3 10.5 -6.5t5.5 -8.5q0 -1 0.5 -3t0.5 -3v-3.5v-3.5v-2.5v-3.5q0 -5 -0.5 -10t-1.5 -9q0 -3 -0.5 -5.5t-0.5 -4.5q-1 -7 -1.5 -13.5t-0.5 -13.5l25.5 -0.5t57.5 -1.5h5h5
q30 -1 56 -1.5t34 -0.5q12 0 20.5 -11t8.5 -25v-1.5v-1.5q-1 -10 -7 -34t-16 -51q-4 -11 -8.5 -21t-9.5 -19q0 -1 -0.5 -1.5l-0.5 -0.5q-5 -9 -14.5 -15.5t-43.5 -7.5h-3.5h-4.5q-14 0 -35 0.5t-43 1.5q-7 1 -13.5 1t-13.5 1q-28 1 -48.5 2l-20.5 1l-22 -107h131h10h10h5h5
h1.5h1.5q25 1 45.5 -5t20.5 -29v-0.5v-1.5v-1.5v-0.5q-1 -17 -3 -32t-5 -29q-3 -11 -7 -22.5t-9 -23.5q-10 -25 -25 -31t-33 -6h-7h-8q-1 1 -2 1h-3h-4.5h-5.5q-20 1 -38.5 1h-35.5h-35.5t-31.5 -1h-26h-23q-42 0 -62 6.5t-36 31.5q-1 1 -1.5 2.5t-1.5 2.5q-6 10 -11.5 19.5
t-10.5 18.5q-6 12 -10.5 23.5t-5.5 25.5q0 7 0.5 12t1.5 10q1 3 1.5 5.5t0.5 5.5l32 119q-2 1 -4 1.5t-4 0.5q-9 3 -17.5 8.5t-10.5 19.5v2v2v2v2v2.5v3.5q1 12 2.5 23.5t4.5 20.5q1 4 1.5 7t1.5 5q1 6 3 11.5t4 11.5q3 11 7.5 21t8.5 19q5 10 9.5 16.5t8.5 7.5q6 2 11 3.5
t10 2.5h3.5h3.5q4 0 8 -0.5t8 -1.5l40 124l-40 -2q-13 0 -20.5 10t-7.5 22v0.5v1.5v1.5v0.5q4 16 11.5 39.5t14.5 49.5q2 4 3 7.5t2 7.5q1 3 1.5 5.5t1.5 4.5q9 27 24.5 40.5t66.5 13.5l329 1q46 0 64 -9.5t21 -21.5q1 -3 1.5 -5.5t0.5 -4.5q0 -3 -0.5 -6.5t-1.5 -6.5
q0 -1 -0.5 -2t-0.5 -2q-1 -2 -1.5 -4.5t-0.5 -4.5q-3 -12 -5.5 -25.5t-6.5 -27.5q-8 -34 -23 -63t-45 -28v0zM431 1002h-1q36 -1 47.5 -20.5t11.5 -44.5v-2.5v-3.5q-1 -26 -19 -47t-44 -21h-1.5h-1.5q-25 2 -39 22t-14 48v1.5v1.5q1 20 14.5 37.5t30.5 24.5q3 2 7 3t8 1v0h1
v0v0v0zM601 1002h-1q36 -1 47.5 -20.5t11.5 -44.5v-2.5v-3.5q-1 -26 -19 -47t-44 -21h-1.5h-1.5q-25 2 -39 22t-14 48v1.5v1.5q1 20 14.5 37.5t30.5 24.5q3 2 7 3t8 1v0h1v0v0v0z" />
    <glyph glyph-name="Egrave" unicode="&#xc8;" horiz-adv-x="583" 
d="M639 583l-259 11v-1.5v-0.5v-1.5v-1.5q0 -12 6.5 -18t15.5 -11q1 0 2.5 -1t2.5 -1q6 -3 10.5 -6.5t5.5 -8.5q0 -1 0.5 -3t0.5 -3v-3.5v-3.5v-2.5v-3.5q0 -5 -0.5 -10t-1.5 -9q0 -3 -0.5 -5.5t-0.5 -4.5q-1 -7 -1.5 -13.5t-0.5 -13.5l25.5 -0.5t57.5 -1.5h5h5
q30 -1 56 -1.5t34 -0.5q12 0 20.5 -11t8.5 -25v-1.5v-1.5q-1 -10 -7 -34t-16 -51q-4 -11 -8.5 -21t-9.5 -19q0 -1 -0.5 -1.5l-0.5 -0.5q-5 -9 -14.5 -15.5t-43.5 -7.5h-3.5h-4.5q-14 0 -35 0.5t-43 1.5q-7 1 -13.5 1t-13.5 1q-28 1 -48.5 2l-20.5 1l-22 -107h131h10h10h5h5
h1.5h1.5q25 1 45.5 -5t20.5 -29v-0.5v-1.5v-1.5v-0.5q-1 -17 -3 -32t-5 -29q-3 -11 -7 -22.5t-9 -23.5q-10 -25 -25 -31t-33 -6h-7h-8q-1 1 -2 1h-3h-4.5h-5.5q-20 1 -38.5 1h-35.5h-35.5t-31.5 -1h-26h-23q-42 0 -62 6.5t-36 31.5q-1 1 -1.5 2.5t-1.5 2.5q-6 10 -11.5 19.5
t-10.5 18.5q-6 12 -10.5 23.5t-5.5 25.5q0 7 0.5 12t1.5 10q1 3 1.5 5.5t0.5 5.5l32 119q-2 1 -4 1.5t-4 0.5q-9 3 -17.5 8.5t-10.5 19.5v2v2v2v2v2.5v3.5q1 12 2.5 23.5t4.5 20.5q1 4 1.5 7t1.5 5q1 6 3 11.5t4 11.5q3 11 7.5 21t8.5 19q5 10 9.5 16.5t8.5 7.5q6 2 11 3.5
t10 2.5h3.5h3.5q4 0 8 -0.5t8 -1.5l40 124l-40 -2q-13 0 -20.5 10t-7.5 22v0.5v1.5v1.5v0.5q4 16 11.5 39.5t14.5 49.5q2 4 3 7.5t2 7.5q1 3 1.5 5.5t1.5 4.5q9 27 24.5 40.5t66.5 13.5l329 1q46 0 64 -9.5t21 -21.5q1 -3 1.5 -5.5t0.5 -4.5q0 -3 -0.5 -6.5t-1.5 -6.5
q0 -1 -0.5 -2t-0.5 -2q-1 -2 -1.5 -4.5t-0.5 -4.5q-3 -12 -5.5 -25.5t-6.5 -27.5q-8 -34 -23 -63t-45 -28v0zM488 1037l69 -74q2 -2 3.5 -4t3.5 -4v0v0q4 -5 7.5 -9t5.5 -5q4 -3 5.5 -7.5t1.5 -10.5q0 -4 -1 -9l-2 -10q-5 -14 -15 -26t-22 -13h-2h-1q-1 0 -2 0.5t-2 0.5
q-2 1 -3.5 1t-2.5 1l-10.5 3.5t-9.5 4.5q-2 1 -4 2.5t-4 2.5l-73 49l-6 4t-5 4q-13 8 -23 17t-10 19v1.5v1.5q1 6 6 17.5t13 24.5q3 6 7 12l8 12q6 9 12.5 15.5t11.5 7.5q1 0 2 0.5t2 0.5h2h2q9 0 14.5 -5t10.5 -12l1.5 -1.5l1.5 -1.5q2 -3 4 -5.5t4 -4.5v0z" />
    <glyph glyph-name="Iacute" unicode="&#xcd;" horiz-adv-x="388" 
d="M308 765l-2 -2q2 10 23.5 16.5t47.5 6.5h1.5h1.5q9 0 18 -0.5t16 -2.5q3 -1 6.5 -1.5t6.5 -1.5q27 -6 49.5 -16.5t25.5 -36.5v-0.5v-1.5v-1.5v-0.5q0 -8 -2.5 -14.5t-4.5 -12.5l-1 -1v0q-1 -4 -2.5 -7t-2.5 -7q-15 -55 -35 -131t-41 -157q-1 -2 -1.5 -4.5t-1.5 -4.5
q-35 -134 -65.5 -245t-36.5 -123q-8 -15 -23 -20.5t-33 -5.5q-8 0 -16 1t-17 2q-5 1 -11 2.5t-11 2.5q-1 0 -2 0.5t-2 0.5q-26 5 -49 15t-30 38q-1 5 -1.5 10t-0.5 10q0 15 3.5 32.5t9.5 35.5q1 5 3 11l4 12q2 16 28.5 105t58.5 194l0.5 1t0.5 2q1 3 1.5 5.5t1.5 4.5
q31 103 57 189.5t28 100.5v0zM352 964l88 74q3 2 5.5 4.5l5.5 5.5l2 2l2 2q7 7 13.5 11.5t15.5 4.5h4t4 -1q1 0 2.5 -1t2.5 -2q6 -5 12 -17.5t11 -25.5q4 -12 6 -23t2 -17v-1.5v-1.5q-1 -11 -14 -20t-28 -18q-4 -2 -8 -4.5t-8 -4.5l-85 -49q-3 -2 -6.5 -3.5t-6.5 -3.5
q-5 -2 -9.5 -3.5t-9.5 -2.5q-2 -1 -3.5 -1t-3.5 -1q-1 0 -2 -0.5l-1 -0.5h-2h-2q-13 0 -19.5 12t-7.5 26v1.5v1.5q0 11 3.5 21t10.5 14q2 1 7 5t10 9v0h1l4 4l4 4v0z" />
    <glyph glyph-name="Icircumflex" unicode="&#xce;" horiz-adv-x="364" 
d="M308 765l-2 -2q2 10 23.5 16.5t47.5 6.5h1.5h1.5q9 0 18 -0.5t16 -2.5q3 -1 6.5 -1.5t6.5 -1.5q27 -6 49.5 -16.5t25.5 -36.5v-0.5v-1.5v-1.5v-0.5q0 -8 -2.5 -14.5t-4.5 -12.5l-1 -1v0q-1 -4 -2.5 -7t-2.5 -7q-15 -55 -35 -131t-41 -157q-1 -2 -1.5 -4.5t-1.5 -4.5
q-35 -134 -65.5 -245t-36.5 -123q-8 -15 -23 -20.5t-33 -5.5q-8 0 -16 1t-17 2q-5 1 -11 2.5t-11 2.5q-1 0 -2 0.5t-2 0.5q-26 5 -49 15t-30 38q-1 5 -1.5 10t-0.5 10q0 15 3.5 32.5t9.5 35.5q1 5 3 11l4 12q2 16 28.5 105t58.5 194l0.5 1t0.5 2q1 3 1.5 5.5t1.5 4.5
q31 103 57 189.5t28 100.5v0zM466 1063l-2 -1q11 5 20.5 -7t17.5 -27l1.5 -3t1.5 -2q2 -4 4.5 -8.5t5.5 -8.5l52 -77q1 -2 2 -5l2 -6t1.5 -5t0.5 -4v-0.5v-1.5t-0.5 -1.5l-0.5 -0.5q-1 -3 -3.5 -6t-5.5 -5q-5 -5 -12 -10t-13 -9q-11 -6 -20.5 -9t-13.5 0q-7 2 -10 7t-5 10
q0 1 -0.5 2.5t-1.5 2.5l-52 75l-95 -78l-3.5 -3.5t-2.5 -3.5q-5 -5 -10.5 -9t-12.5 -6q-1 -1 -2 -1h-3q-3 0 -6.5 1t-7.5 3q-7 4 -14 11t-10 14q-1 3 -2 5.5t-1 5.5q0 2 2 5.5t5 8.5q2 2 4.5 4t4.5 4q0 1 0.5 1.5t1.5 0.5l111 86q2 2 4.5 4t4.5 4q6 4 11 8.5t10 8.5
q11 8 22 15t20 11v0z" />
    <glyph glyph-name="Idieresis" unicode="&#xcf;" horiz-adv-x="385" 
d="M307 765l-2 -2q2 10 23.5 16.5t47.5 6.5h1.5h1.5q9 0 18 -0.5t16 -2.5q3 -1 6.5 -1.5t6.5 -1.5q27 -6 49.5 -16.5t25.5 -36.5v-0.5v-1.5v-1.5v-0.5q0 -8 -2.5 -14.5t-4.5 -12.5l-1 -1v0q-1 -4 -2.5 -7t-2.5 -7q-15 -55 -35 -131t-41 -157q-1 -2 -1.5 -4.5t-1.5 -4.5
q-35 -134 -65.5 -245t-36.5 -123q-8 -15 -23 -20.5t-33 -5.5q-8 0 -16 1t-17 2q-5 1 -11 2.5t-11 2.5q-1 0 -2 0.5t-2 0.5q-26 5 -49 15t-30 38q-1 5 -1.5 10t-0.5 10q0 15 3.5 32.5t9.5 35.5q1 5 3 11l4 12q2 16 28.5 105t58.5 194l0.5 1t0.5 2q1 3 1.5 5.5t1.5 4.5
q31 103 57 189.5t28 100.5v0zM347 997h-1q36 -1 47.5 -20.5t11.5 -44.5v-2.5v-3.5q-1 -26 -19 -47t-44 -21h-1.5h-1.5q-25 2 -39 22t-14 48v1.5v1.5q1 20 14.5 37.5t30.5 24.5q3 2 7 3t8 1v0h1v0v0v0zM517 997h-1q36 -1 47.5 -20.5t11.5 -44.5v-2.5v-3.5q-1 -26 -19 -47
t-44 -21h-1.5h-1.5q-25 2 -39.5 22t-14.5 48v1.5v1.5q1 20 15.5 38.5t31.5 24.5q3 2 7 2.5t7 0.5v0h1v0v0v0z" />
    <glyph glyph-name="Igrave" unicode="&#xcc;" horiz-adv-x="376" 
d="M307 765l-2 -2q2 10 23.5 16.5t47.5 6.5h1.5h1.5q9 0 18 -0.5t16 -2.5q3 -1 6.5 -1.5t6.5 -1.5q27 -6 49.5 -16.5t25.5 -36.5v-0.5v-1.5v-1.5v-0.5q0 -8 -2.5 -14.5t-4.5 -12.5l-1 -1v0q-1 -4 -2.5 -7t-2.5 -7q-15 -55 -35 -131t-41 -157q-1 -2 -1.5 -4.5t-1.5 -4.5
q-35 -134 -65.5 -245t-36.5 -123q-8 -15 -23 -20.5t-33 -5.5q-8 0 -16 1t-17 2q-5 1 -11 2.5t-11 2.5q-1 0 -2 0.5t-2 0.5q-26 5 -49 15t-30 38q-1 5 -1.5 10t-0.5 10q0 15 3.5 32.5t9.5 35.5q1 5 3 11l4 12q2 16 28.5 105t58.5 194l0.5 1t0.5 2q1 3 1.5 5.5t1.5 4.5
q31 103 57 189.5t28 100.5v0zM423 1031l68 -74q2 -2 3.5 -4t3.5 -4h0.5t0.5 -1l8 -8l5 -5q4 -3 5.5 -7.5t1.5 -10.5q0 -4 -1 -9l-2 -10q-5 -14 -15 -26t-23 -13h-2h-1q-1 0 -2 0.5t-2 0.5q-2 1 -3.5 1t-2.5 1l-10.5 3.5t-9.5 4.5q-2 1 -4 2.5t-4 2.5l-72 49l-6 4t-5 4
q-13 8 -23 17t-10 19v1.5v1.5q1 6 6 17.5t13 24.5q3 6 7 12l8 12q6 9 12.5 15.5t11.5 7.5q1 0 2 0.5t2 0.5h2h2q9 0 14.5 -5t10.5 -12l1.5 -1.5l1.5 -1.5q2 -3 4 -5.5t4 -4.5v0z" />
    <glyph glyph-name="Oacute" unicode="&#xd3;" horiz-adv-x="641" 
d="M551 762h-1v-52l43 36q5 4 10.5 8.5t11.5 9.5q9 8 19 14.5t20 10.5q4 1 7.5 1.5t6.5 0.5q7 0 13.5 -2.5t12.5 -9.5q41 -43 50 -94.5t12 -113.5v-4.5v-4.5v-6t1 -6v-5.5v-5.5q0 -32 -3.5 -65.5t-10.5 -67.5q-33 -160 -131.5 -293t-231.5 -133q-22 0 -44.5 4.5t-45.5 13.5
q-94 38 -125.5 108t-31.5 169q0 193 114.5 354t253.5 174h2.5t2.5 1h2.5h2.5q24 0 32 -12.5t8 -29.5v0zM497 311l2 -1q8 22 15 40t12 35q5 19 8.5 39t5.5 44q2 23 2.5 39.5t0.5 28.5q0 13 -1 22.5t-2 17.5q-2 10 -4.5 21.5t-5.5 27.5l-31 -25q-7 -6 -12.5 -9.5t-10.5 -6.5
l-1.5 -1.5l-1.5 -1.5q-7 -4 -14 -10.5t-17 -19.5q-9 -11 -20.5 -27t-23.5 -36q-22 -38 -40.5 -90t-20.5 -113v-0.5v-1.5v-1.5v-0.5q0 -7 0.5 -14t1.5 -14q3 -24 14.5 -44t33.5 -21v0h1v0v0q22 0 43 21t37 46q10 16 17.5 31t11.5 25v0zM517 963l88 74q3 2 5.5 4.5l5.5 5.5
l2 2l2 2q7 7 13.5 11.5t15.5 4.5h4t4 -1q2 0 3.5 -1.5l3.5 -3.5q5 -6 10.5 -17.5t9.5 -24.5q4 -11 6 -21.5t2 -17.5v-1.5v-1.5q-1 -11 -14 -20.5t-28 -18.5q-4 -2 -7.5 -4t-7.5 -4l-85 -49q-3 -2 -6.5 -3.5t-6.5 -3.5q-5 -2 -9.5 -3.5t-9.5 -2.5q-2 -1 -3.5 -1t-3.5 -1
q-1 0 -2 -0.5l-1 -0.5h-2h-2q-13 0 -20 12t-8 26v1.5v1.5q0 11 3.5 21t10.5 14q2 1 7 5l10 8q0 1 0.5 1h0.5q3 2 5 4l4 4v0z" />
    <glyph glyph-name="Ocircumflex" unicode="&#xd4;" horiz-adv-x="623" 
d="M551 762h-1v-52l43 36q5 4 10.5 8.5t11.5 9.5q9 8 19 14.5t20 10.5q4 1 7.5 1.5t6.5 0.5q7 0 13.5 -2.5t12.5 -9.5q41 -43 50 -94.5t12 -113.5v-4.5v-4.5v-6t1 -6v-5.5v-5.5q0 -32 -3.5 -65.5t-10.5 -67.5q-33 -160 -131.5 -293t-231.5 -133q-22 0 -44.5 4.5t-45.5 13.5
q-94 38 -125.5 108t-31.5 169q0 193 114.5 354t253.5 174h2.5t2.5 1h2.5h2.5q24 0 32 -12.5t8 -29.5v0zM497 311l2 -1q8 22 15 40t12 35q5 19 8.5 39t5.5 44q2 23 2.5 39.5t0.5 28.5q0 13 -1 22.5t-2 17.5q-2 10 -4.5 21.5t-5.5 27.5l-31 -25q-7 -6 -12.5 -9.5t-10.5 -6.5
l-1.5 -1.5l-1.5 -1.5q-7 -4 -14 -10.5t-17 -19.5q-9 -11 -20.5 -27t-23.5 -36q-22 -38 -40.5 -90t-20.5 -113v-0.5v-1.5v-1.5v-0.5q0 -7 0.5 -14t1.5 -14q3 -24 14.5 -44t33.5 -21v0h1v0v0q22 0 43 21t37 46q10 16 17.5 31t11.5 25v0zM624 1069l-2 -1q11 5 20.5 -7t17.5 -27
q1 -4 3 -7t3 -6q2 -2 3.5 -4.5t2.5 -4.5l52 -77q1 -2 2 -5l2 -6t1.5 -5t0.5 -4v-0.5v-1.5t-0.5 -1.5l-0.5 -0.5q-1 -3 -3.5 -6t-5.5 -5q-5 -5 -12 -10t-13 -9q-11 -6 -20.5 -9t-13.5 0q-6 2 -9 6.5t-5 10.5q0 1 -0.5 2.5t-1.5 2.5l-52 75l-96 -78l-3.5 -3.5t-2.5 -3.5
q-5 -5 -10.5 -9t-12.5 -6q-1 -1 -2 -1h-3q-3 0 -6.5 1t-7.5 3q-7 4 -14 11t-10 14q-1 3 -2 5.5t-1 5.5q0 2 2 5.5t5 8.5q2 2 4.5 4t4.5 4q0 1 0.5 1.5t1.5 0.5l112 86q2 2 4.5 4t4.5 4q6 4 11 8.5t10 8.5q11 8 22 15t20 11v0z" />
    <glyph glyph-name="Ograve" unicode="&#xd2;" horiz-adv-x="251" 
 />
    <glyph glyph-name="Uacute" unicode="&#xda;" horiz-adv-x="626" 
d="M645 790l-1 -2q5 1 10 1h10q6 0 12.5 -0.5t13.5 -0.5q26 -3 49 -9t32 -12q0 -1 1 -1.5t1 -1.5q5 -7 7 -14t2 -14q0 -6 -1.5 -13t-3.5 -14q-1 -4 -2 -7.5t-2 -7.5l-54 -214l-80 -271q-24 -82 -87 -148t-165 -67q-12 0 -25 1.5t-27 3.5q-100 16 -146 83t-46 148q0 9 0.5 18
t1.5 19q1 9 2.5 18t3.5 18l94 403q1 6 2.5 11.5t2.5 9.5q9 38 25.5 55.5t70.5 16.5q20 0 30 -1.5t18 -3.5q5 -1 10.5 -2.5t13.5 -3.5q25 -6 34 -16.5t9 -23.5q0 -9 -2.5 -19.5t-6.5 -20.5q0 -1 -0.5 -2t-0.5 -2q-3 -7 -5.5 -13.5t-3.5 -13.5l-91 -374q0 -2 -0.5 -4.5
t-1.5 -4.5q-1 -7 -2.5 -14t-1.5 -14q-1 -3 -1 -6.5v-6.5q0 -20 9 -35.5t36 -16.5h0.5h0.5h0.5h0.5q34 0 50.5 24.5t25.5 53.5q3 10 5.5 19.5t4.5 18.5l93 353q5 19 8.5 34t6.5 28q9 29 20 42t40 16v0zM480 964l89 74q3 2 5.5 4.5l5.5 5.5l2 2l2 2q7 7 13.5 11.5t15.5 4.5h4
t4 -1q2 0 3.5 -1.5l3.5 -3.5q5 -6 10.5 -17.5t9.5 -24.5q4 -11 6 -21.5t2 -17.5v-1.5v-1.5q-1 -11 -14 -20.5t-28 -18.5q-4 -2 -7.5 -4t-7.5 -4l-85 -49q-8 -5 -16.5 -8t-16.5 -5q-2 -1 -3.5 -1t-3.5 -1q-1 0 -2 -0.5l-1 -0.5h-2h-2q-13 0 -19.5 12t-7.5 26v1.5v1.5
q0 11 3.5 21t10.5 14q2 1 7 5t10 9v0h1l4 4l4 4v0z" />
    <glyph glyph-name="Ucircumflex" unicode="&#xdb;" horiz-adv-x="617" 
d="M645 790l-1 -2q5 1 10 1h10q6 0 12.5 -0.5t13.5 -0.5q26 -3 49 -9t32 -12q0 -1 1 -1.5t1 -1.5q5 -7 7 -14t2 -14q0 -6 -1.5 -13t-3.5 -14q-1 -4 -2 -7.5t-2 -7.5l-54 -214l-80 -271q-24 -82 -87 -148t-165 -67q-12 0 -25 1.5t-27 3.5q-100 16 -146 83t-46 148q0 9 0.5 18
t1.5 19q1 9 2.5 18t3.5 18l94 403q1 6 2.5 11.5t2.5 9.5q9 38 25.5 55.5t70.5 16.5q20 0 30 -1.5t18 -3.5q5 -1 10.5 -2.5t13.5 -3.5q25 -6 34 -16.5t9 -23.5q0 -9 -2.5 -19.5t-6.5 -20.5q0 -1 -0.5 -2t-0.5 -2q-3 -7 -5.5 -13.5t-3.5 -13.5l-91 -374q0 -2 -0.5 -4.5
t-1.5 -4.5q-1 -7 -2.5 -14t-1.5 -14q-1 -3 -1 -6.5v-6.5q0 -20 9 -35.5t36 -16.5h0.5h0.5h0.5h0.5q34 0 50.5 24.5t25.5 53.5q3 10 5.5 19.5t4.5 18.5l93 353q5 19 8.5 34t6.5 28q9 29 20 42t40 16v0zM588 1067l-2 -1q11 5 20.5 -7t17.5 -27q1 -4 3 -7t3 -6q2 -2 3.5 -4.5
t2.5 -4.5l52 -77q1 -2 2 -5l2 -6t1.5 -5t0.5 -4v-0.5v-1.5t-0.5 -1.5l-0.5 -0.5q-1 -3 -3.5 -6t-5.5 -5q-5 -5 -12 -10t-13 -9q-11 -6 -20.5 -9t-13.5 0q-6 2 -9 6.5t-5 10.5q0 1 -0.5 2.5t-1.5 2.5l-52 75l-96 -78l-3.5 -3.5t-2.5 -3.5q-5 -5 -10.5 -9t-12.5 -6
q-1 -1 -2 -1h-3q-3 0 -6.5 1t-7.5 3q-7 4 -14 11t-10 14q-1 3 -2 5.5t-1 5.5q0 2 2 5.5t5 8.5q2 2 4.5 4t4.5 4q0 1 0.5 1.5t1.5 0.5l112 86q2 2 4.5 4t4.5 4q6 4 11 8.5t10 8.5q11 8 22 15t20 11v0z" />
    <glyph glyph-name="Ugrave" unicode="&#xd9;" horiz-adv-x="626" 
d="M645 790l-1 -2q5 1 10 1h10q6 0 12.5 -0.5t13.5 -0.5q26 -3 49 -9t32 -12q0 -1 1 -1.5t1 -1.5q5 -7 7 -14t2 -14q0 -6 -1.5 -13t-3.5 -14q-1 -4 -2 -7.5t-2 -7.5l-54 -214l-80 -271q-24 -82 -87 -148t-165 -67q-12 0 -25 1.5t-27 3.5q-100 16 -146 83t-46 148q0 9 0.5 18
t1.5 19q1 9 2.5 18t3.5 18l94 403q1 6 2.5 11.5t2.5 9.5q9 38 25.5 55.5t70.5 16.5q20 0 30 -1.5t18 -3.5q5 -1 10.5 -2.5t13.5 -3.5q25 -6 34 -16.5t9 -23.5q0 -9 -2.5 -19.5t-6.5 -20.5q0 -1 -0.5 -2t-0.5 -2q-3 -7 -5.5 -13.5t-3.5 -13.5l-91 -374q0 -2 -0.5 -4.5
t-1.5 -4.5q-1 -7 -2.5 -14t-1.5 -14q-1 -3 -1 -6.5v-6.5q0 -20 9 -35.5t36 -16.5h0.5h0.5h0.5h0.5q34 0 50.5 24.5t25.5 53.5q3 10 5.5 19.5t4.5 18.5l93 353q5 19 8.5 34t6.5 28q9 29 20 42t40 16v0zM550 1035l68 -74q2 -2 3.5 -4t3.5 -4v0v0q4 -5 7.5 -9t5.5 -5
q4 -3 5.5 -7.5t1.5 -10.5q0 -4 -1 -9l-2 -10q-5 -14 -15 -26t-22 -13h-2h-1q-1 0 -2 0.5t-2 0.5q-2 1 -3.5 1t-2.5 1l-10.5 3.5t-9.5 4.5q-2 1 -4 2.5t-4 2.5l-73 49l-6 4t-5 4q-13 8 -23 17t-10 19v1.5v1.5q1 6 6 17.5t13 24.5q3 7 7.5 13t8.5 12q6 9 12.5 15t11.5 7
q1 0 2 0.5t2 0.5h2h2q9 0 14.5 -5t10.5 -12l1.5 -1.5l1.5 -1.5q2 -3 4 -5.5t4 -4.5v0z" />
    <glyph glyph-name="circumflex" unicode="&#x2dc;" 
 />
    <glyph glyph-name="tilde" unicode="&#x2c6;" 
 />
    <glyph glyph-name="cedilla" unicode="&#xb8;" 
 />
    <glyph glyph-name="Scaron" unicode="&#x160;" 
 />
    <glyph glyph-name="scaron" unicode="&#x161;" 
 />
    <glyph glyph-name="Zcaron" unicode="&#x17d;" 
 />
    <glyph glyph-name="zcaron" unicode="&#x17e;" 
 />
    <glyph glyph-name="brokenbar" unicode="&#xa6;" 
 />
    <glyph glyph-name="Eth" unicode="&#xd0;" 
 />
    <glyph glyph-name="eth" unicode="&#xf0;" 
 />
    <glyph glyph-name="Yacute" unicode="&#xdd;" horiz-adv-x="251" 
 />
    <glyph glyph-name="yacute" unicode="&#xfd;" horiz-adv-x="251" 
 />
    <glyph glyph-name="Thorn" unicode="&#xde;" 
 />
    <glyph glyph-name="thorn" unicode="&#xfe;" 
 />
    <glyph glyph-name="multiply" unicode="&#xd7;" 
 />
    <glyph glyph-name="onesuperior" unicode="&#xb9;" 
 />
    <glyph glyph-name="twosuperior" unicode="&#xb2;" 
 />
    <glyph glyph-name="threesuperior" unicode="&#xb3;" 
 />
    <glyph glyph-name="onehalf" unicode="&#xbd;" 
 />
    <glyph glyph-name="onequarter" unicode="&#xbc;" 
 />
    <glyph glyph-name="threequarters" unicode="&#xbe;" 
 />
    <glyph glyph-name="endash" unicode="&#x2013;" horiz-adv-x="747" 
d="M269 481l1 -1l499 -1h2.5h3.5q18 0 34.5 -3t26.5 -18q2 -2 2.5 -5.5t0.5 -8.5q0 -11 -4 -27t-11 -33q-5 -13 -11.5 -25.5t-13.5 -23.5q-6 -11 -13 -18.5t-12 -10.5q-7 -4 -14.5 -5.5t-15.5 -1.5q-5 0 -10 0.5t-10 0.5t-10 0.5t-10 0.5l-480 2h-2.5h-2.5h-12h-15
q-10 1 -19.5 3.5t-13.5 7.5q-6 8 -8.5 18.5t-2.5 21.5q0 7 1 13.5t2 13.5q4 16 10 32t13 28q8 13 14.5 21.5t9.5 10.5q6 3 14.5 4.5t17.5 2.5q6 1 12.5 1h11.5h9.5h5.5v0z" />
    <glyph glyph-name="sfthyphen" unicode="&#xad;" 
 />
    <glyph glyph-name="filledbox" unicode="&#x25a0;" 
 />
    <glyph glyph-name="bullet" unicode="&#x2022;" 
 />
    <glyph glyph-name="overstore" unicode="&#xaf;" horiz-adv-x="251" 
 />
    <glyph glyph-name="degree" unicode="&#xb0;" 
 />
    <glyph glyph-name="middot" unicode="&#xb7;" horiz-adv-x="251" 
 />
    <glyph glyph-name="invcircle" unicode="&#x25d9;" horiz-adv-x="251" 
 />
    <glyph glyph-name="Rcaron" unicode="&#x158;" horiz-adv-x="251" 
 />
    <glyph glyph-name="Ncaron" unicode="&#x147;" horiz-adv-x="251" 
 />
    <glyph glyph-name="2510" unicode="&#x2510;" horiz-adv-x="251" 
 />
  </font>
</defs>
</svg>
